<svg width="1488" height="1766" viewBox="0 0 1488 1766" xmlns="http://www.w3.org/2000/svg"><g fill="none" fill-rule="evenodd"><path d="M827.994 513c-2.758 0-4.994 2.24-4.994 4.998v154.004c0 2.76 2.246 4.998 4.994 4.998h655.012c2.758 0 4.994-2.24 4.994-4.998V517.998c0-2.76-2.246-4.998-4.994-4.998H827.994zM823 567v56.292l-21-28.146L823 567zm4.994 442c-2.758 0-4.994 2.238-4.994 4.993v128.014c0 2.758 2.246 4.993 4.994 4.993h655.012c2.758 0 4.994-2.238 4.994-4.993v-128.014c0-2.758-2.246-4.993-4.994-4.993H827.994zM823 1050v56.292l-21-28.146L823 1050zm4.994-820c-2.758 0-4.994 2.238-4.994 4.993v128.014c0 2.758 2.246 4.993 4.994 4.993h655.012c2.758 0 4.994-2.238 4.994-4.993V234.993c0-2.758-2.246-4.993-4.994-4.993H827.994zM823 271v56.292l-21-28.146L823 271zm4.994 1256c-2.758 0-4.994 2.238-4.994 4.993v128.014c0 2.758 2.246 4.993 4.994 4.993h655.012c2.758 0 4.994-2.238 4.994-4.993v-128.014c0-2.758-2.246-4.993-4.994-4.993H827.994zM823 1568v56.292l-21-28.146L823 1568z" fill-opacity=".05" fill="#000"/><path d="M672.712 311.097v273.806H610.17v-31.535c0-3.59-6.915-2.693-9.32 0l-31.693 31.535h-73.83c0-6.057-3.913-9.97-8.727-9.97h-13.84c-2.71-13.843-8.125-26.483-15.648-37.618l9.93-9.93c3.31-3.312 3.31-9.03 0-12.34L449.59 497.59c-3.61-3.61-9.027-3.61-12.337 0l-9.93 9.63c-11.433-7.222-24.07-12.64-37.61-15.348v-14.145c0-4.815-3.913-8.727-8.727-8.727H356.01c-4.813 0-8.724 3.912-8.724 8.727v14.145c-13.54 2.71-26.178 8.126-37.612 15.348l-9.93-9.63c-3.31-3.61-8.726-3.61-12.337 0l-17.452 17.455c-3.31 3.31-3.31 9.028 0 12.34l9.93 9.93c-7.522 11.135-12.94 23.775-15.647 37.62h-13.84c-4.815 0-8.727 3.91-8.727 8.726v24.68c0 4.814 3.913 8.726 8.727 8.726h13.84c2.71 13.844 8.126 26.484 15.648 37.62l-9.93 9.93c-3.31 3.31-3.31 9.03 0 12.34l17.452 17.755c3.61 3.31 9.027 3.31 12.337 0l9.93-9.93c11.434 7.523 24.07 12.64 37.612 15.65v13.843c0 4.815 3.91 8.727 8.725 8.727h24.976c4.814 0 8.726-3.912 8.726-8.727V700.43c13.54-3.01 26.178-8.127 37.612-15.65l9.93 9.93c3.31 3.31 8.725 3.31 12.336 0l3.37-3.428 59.833 59.915-11.07 11.19c-1.502 1.506 1.502 3.613 3.604 3.613h22.25l50.37 50.438c-.732 6.136-.25 7.983.602 9.636-17.414 16.315-28.3 39.562-28.3 65.426 0 6.178.63 12.214 1.827 18.047l-7.516 42.628C544.26 966.65 553.3 976 564.45 976c6.328 0 12.054-3.016 15.67-7.54l4.892-6.12c.405.313-57.267 59.617-57.267 59.617l-11.536-11.55c-1.5-1.505-3.904 1.503-3.904 3.608v23.434l-60.444 60.648c-5.014-18.074-45.032-28.098-83.21-28.098-40.52 0-84.037 11.457-84.037 31.958v138.084c0 18.984 36.802 30.213 74.898 31.77V1306H342.91c-2.12 0-1.515 3.967 0 5.493l16.603 16.484v21.827c-3.15 1.932-5.435 5.257-5.903 9.196H94.217c-3.608 0-6.615 1.202-8.72 3.607-2.406 2.104-3.608 5.41-3.608 8.717v382.352c0 3.306 1.2 6.613 3.607 8.717 2.105 2.104 5.112 3.607 8.72 3.607h547.565c3.307 0 6.314-1.503 8.72-3.607 2.105-2.104 3.608-5.41 3.608-8.717v-382.352c0-3.306-1.503-6.613-3.608-8.717-2.406-2.405-5.413-3.607-8.72-3.607H378.397c-.512-4.3-3.198-7.87-6.902-9.694v-18.077l19.598-19.737c1.515-1.526 2.12-5.493 0-5.493h-19.598v-34.018c39.94-.52 80.89-11.915 80.89-31.94v-125.629L518.84 1048h27.402c2.102 0 5.106-2.406 3.604-3.91l-13.532-13.55 60.495-60.456C609.484 977.04 624.023 981 639.48 981c20.563 0 39.47-6.925 54.56-18.546l4.8 6.006c3.918 4.524 9.643 7.54 15.97 7.54 11.15 0 20.19-9.35 20.19-20.206 0-1.508-7.92-45.753-7.92-45.753 1.263-5.985 1.928-12.187 1.928-18.54 0-49.555-39.957-89.5-89.528-89.5-14.715 0-28.6 3.563-40.836 9.88-2.268-2.386-5.414-3.88-8.796-3.88-.996 0-1.967.12-2.9.342l-47.682-47.747v-28.303c0-2.106-2.402-5.417-3.904-3.912l-14.066 14.22-59.86-59.942 5.606-5.703c3.31-3.31 3.31-9.028 0-12.34l-9.93-9.93c7.523-11.135 12.94-23.775 15.647-37.62h13.84c4.592 0 8.363-3.558 8.7-8.065h76.67l28.88 28.734c2.405 2.394 9.32 3.59 9.32 0V609h73.66c7.813 0 13.222-5.422 13.222-12.05v-297.9c0-6.628-5.41-12.05-12.32-12.05h-19.37c-2.69-3.696-6.653-6.4-11.252-7.482V22.324c0-3.306-1.503-6.613-3.608-8.717-2.406-2.104-5.413-3.607-8.72-3.607H94.217c-3.608 0-6.615 1.503-8.72 3.607-2.406 2.104-3.608 5.41-3.608 8.717v382.352c0 3.306 1.2 6.613 3.607 8.717 2.105 2.405 5.112 3.607 8.72 3.607h547.565c3.307 0 6.314-1.202 8.72-3.607 2.105-2.104 3.608-5.41 3.608-8.717v-87.194c4.13-.97 7.748-3.252 10.392-6.385h8.21zM456.38 891.5c0-49.555-39.89-89.5-89.38-89.5-49.187 0-89.378 39.945-89.378 89.5 0 7.037.82 13.89 2.37 20.47l-7.063 40.205c-.3 1.206-.3 2.11-.3 3.317 0 11.16 9.006 20.508 20.114 20.508 6.005 0 11.71-3.016 15.612-7.54l4.6-5.778C327.99 974.166 346.732 981 367.002 981c20.64 0 39.61-7 54.712-18.733l4.932 6.193c3.903 4.524 9.607 7.54 15.612 7.54 11.108 0 20.115-9.35 20.115-20.206 0-1.508 0-2.413-.3-3.62l-7.5-42.695c1.186-5.813 1.81-11.826 1.81-17.98zm-272.63 0c0-49.555-40.19-89.5-89.378-89.5-49.488 0-89.38 39.945-89.38 89.5 0 7.05.82 13.917 2.365 20.507L.3 952.175c-.3 1.206-.3 2.11-.3 3.317C0 966.652 9.007 976 20.115 976c6.005 0 11.71-3.016 15.612-7.54l4.553-5.717C55.28 974.19 74.014 981 94.372 981c20.55 0 39.528-7.024 54.662-18.795l4.98 6.255c3.904 4.524 9.608 7.54 15.613 7.54 11.108 0 20.115-9.35 20.115-20.206 0-1.508 0-2.413-.3-3.62l-7.507-42.728c1.19-5.8 1.815-11.804 1.815-17.946z" fill-opacity=".1" fill="#000"/><path d="M94.122 4h547.756C646.09 4 650 7.61 650 12.124v382.752c0 4.513-3.91 8.124-8.122 8.124H94.122C89.61 403 86 399.39 86 394.876V12.124C86 7.61 89.61 4 94.122 4z" fill="#BDC3C7"/><path d="M94.345 0h548.31c3.312 0 6.323 1.503 8.732 3.607C653.494 5.71 655 9.017 655 12.324v382.352c0 3.306-1.506 6.613-3.613 8.717-2.41 2.405-5.42 3.607-8.732 3.607H94.345c-3.613 0-6.624-1.202-8.732-3.607-2.41-2.104-3.613-5.41-3.613-8.717V12.324c0-3.306 1.204-6.613 3.613-8.717C87.72 1.503 90.733 0 94.345 0zm548.04 8H93.916c-1.204 0-2.108.6-2.71 1.202-.904.6-1.205 1.803-1.205 2.704v382.188c0 1.202.3 2.103 1.205 2.704.602.6 1.506 1.202 2.71 1.202h548.47c.904 0 1.808-.6 2.71-1.202.604-.6.905-1.502.905-2.704V11.906c0-.9-.3-2.103-.904-2.704-.903-.6-1.807-1.202-2.71-1.202z" fill="#7F8C8D"/><path d="M109.007 26h516.685c1.804 0 3.308 1.517 3.308 3.338v37.324c0 1.82-1.504 3.338-3.308 3.338H109.007c-1.804 0-3.007-1.517-3.007-3.338V29.338c0-1.82 1.203-3.338 3.007-3.338z" fill="#FFF"/><path d="M109.418 24h517.164c1.505 0 2.71.604 3.913 1.51.903.905 1.505 2.415 1.505 3.924v37.132c0 1.51-.602 3.02-1.505 3.925-1.204.906-2.408 1.51-3.913 1.51H109.418c-1.505 0-2.71-.604-3.612-1.51-1.204-.905-1.806-2.415-1.806-3.924V29.434c0-1.51.602-3.02 1.806-3.925.903-.906 2.107-1.51 3.612-1.51zm517.38 4H109.902c-.3 0-.602.305-.602.305-.3.306-.3.61-.3.916v37.56c0 .304 0 .61.3.915 0 0 .302.305.603.305h516.894c.3 0 .6-.305.902-.305 0-.306.3-.61.3-.916V29.22c0-.304-.3-.61-.3-.915-.302 0-.603-.305-.903-.305z" fill="#7F8C8D"/><path d="M109 26h45v44h-45c-1.8 0-3-1.517-3-3.338V29.338c0-1.82 1.2-3.338 3-3.338z" fill="#7F8C8D"/><path d="M109.45 24H157v48h-47.55c-1.513 0-2.724-.604-3.633-1.51-1.21-.905-1.817-2.415-1.817-3.924V29.434c0-1.51.606-3.02 1.817-3.925.91-.906 2.12-1.51 3.634-1.51zM153 28h-43.096c-.3 0-.603.305-.603.305-.3.306-.3.61-.3.916v37.56c0 .304 0 .61.3.915 0 0 .303.305.604.305H153V28z" fill="#7F8C8D"/><path d="M108.016 87h142.666c1.81 0 3.318 1.504 3.318 3.308v291.384c0 1.804-1.508 3.308-3.318 3.308H108.016c-1.81 0-3.016-1.504-3.016-3.308V90.308c0-1.804 1.206-3.308 3.016-3.308z" fill="#6C9AA1"/><path d="M626.688 87H272.312c-1.807 0-3.312 1.504-3.312 3.308v291.384c0 1.804 1.505 3.308 3.312 3.308h354.376c1.807 0 3.312-1.504 3.312-3.308V90.308c0-1.804-1.505-3.308-3.312-3.308z" fill="#ECF0F1"/><path d="M120 47.148l10.652-6.222L141 35v24l-10.348-5.926L120 47.148z" fill="#BDC3C7"/><path d="M94.5 792c49.255 0 89.5 39.945 89.5 89.5 0 49.255-40.245 89.5-89.5 89.5C44.945 971 5 930.755 5 881.5 5 831.945 44.945 792 94.5 792z" fill="#C0392B"/><path d="M177.975 875.524v-.302c-2.405-12.666-11.124-22.92-22.548-27.746v-11.762c0-1.508-1.202-2.714-2.705-2.714H118.15c-1.805 0-3.008 1.206-3.008 2.714v19.302l-.9.905H75.758l-.902-.904v-19.302c0-1.508-1.203-2.714-3.007-2.714H37.28c-1.503 0-2.705 1.206-2.705 2.714v11.762c-11.725 4.826-20.143 15.08-22.548 27.746v.302L.3 942.174c-.3 1.207-.3 2.112-.3 3.318C0 956.652 9.02 966 20.142 966c6.013 0 11.725-3.016 15.633-7.54l16.836-21.11c3.608 3.317 8.418 5.428 13.53 5.428 11.123 0 20.142-9.048 20.142-20.207 0-5.73-2.405-10.856-6.314-14.475h30.064c-3.91 3.62-6.314 8.746-6.314 14.476 0 11.16 9.02 20.208 20.143 20.208 5.112 0 9.922-2.11 13.53-5.43l16.835 21.112c3.908 4.524 9.62 7.54 15.633 7.54C180.98 966 190 956.65 190 945.794c0-1.508 0-2.413-.3-3.62l-11.725-66.65z" fill="#ECF0F1"/><path d="M57.566 890.566h8.717c4.81 0 8.717-3.907 8.717-8.416 0-4.81-3.908-8.716-8.717-8.716h-8.717v-8.717c0-4.81-3.907-8.717-8.416-8.717-4.81 0-8.716 3.908-8.716 8.717v8.717h-8.717c-4.81 0-8.717 3.907-8.717 8.716 0 4.51 3.908 8.416 8.717 8.416h8.717v8.717c0 4.81 3.907 8.717 8.716 8.717 4.51 0 8.416-3.908 8.416-8.717v-8.717zm120.41-15.042v-.302c-2.406-12.666-11.125-22.92-22.55-27.746v-11.762c0-1.508-1.2-2.714-2.704-2.714H118.15c-1.805 0-3.008 1.206-3.008 2.714v19.302l-.9.905H75.758l-.902-.904v-19.302c0-1.508-1.203-2.714-3.007-2.714H37.28c-1.503 0-2.705 1.206-2.705 2.714v11.762c-11.725 4.826-20.143 15.08-22.548 27.746v.302L.3 942.174c-.3 1.207-.3 2.112-.3 3.318C0 956.652 9.02 966 20.142 966c6.013 0 11.725-3.016 15.633-7.54l16.836-21.11c3.608 3.317 8.418 5.428 13.53 5.428 11.123 0 20.142-9.048 20.142-20.207 0-5.73-2.405-10.856-6.314-14.475h30.064c-3.91 3.62-6.314 8.746-6.314 14.476 0 11.16 9.02 20.208 20.143 20.208 5.112 0 9.922-2.11 13.53-5.43l16.835 21.112c3.908 4.524 9.62 7.54 15.633 7.54C180.98 966 190 956.65 190 945.794c0-1.508 0-2.413-.3-3.62l-11.725-66.65zM121 839h29v7.077c-2.72-.923-5.74-1.23-8.76-1.23-7.25 0-14.198 2.153-20.24 6.153v-12zm-12.296 23c-3.55 5.672-5.622 12.537-5.622 20 0 7.164 2.07 14.03 5.918 20H80c3.847-5.97 5.918-12.836 5.918-20 0-7.463-2.07-14.328-5.918-20h28.704zM40 839h29v12c-6.042-4-12.99-6.154-20.24-6.154-3.02 0-6.04.308-8.76 1.23V839zm-8.618 115.844C28.694 958.18 24.514 960 20.332 960 12.273 960 6 953.63 6 945.44v-2.426L14.36 896c5.376 12.74 17.32 22.445 31.953 23.355-.3.91-.3 2.124-.3 3.034 0 3.638 1.195 7.278 2.987 10.31l-17.618 22.144zM65.668 937c-7.763 0-14.332-6.646-14.332-14.5 0-1.51.3-3.323.896-4.833.3-.907.3-2.115-.298-2.72-.598-.905-1.493-1.207-2.39-1.207h-.895c-17.617 0-31.65-14.198-31.65-31.72C17 864.2 31.033 850 48.65 850 65.966 850 80 864.5 80 882.02c0 8.46-3.284 16.615-9.256 22.657-.896.604-1.194 1.51-.896 2.417.3.906.896 1.812 1.792 2.114C76.716 911.625 80 916.76 80 922.5c0 7.854-6.57 14.5-14.332 14.5zm57.664 0C115.27 937 109 930.354 109 922.5c0-5.74 3.284-10.875 8.36-13.292.896-.302 1.493-1.208 1.792-2.114 0-.907-.3-1.813-.896-2.417-5.972-6.042-9.256-14.198-9.256-22.656C109 864.2 123.033 850 140.35 850c17.318 0 31.65 14.198 31.65 32.02 0 17.522-14.332 31.72-31.948 31.72h-.597c-.896 0-1.79.302-2.39 1.208-.596.604-.596 1.812-.297 2.72.597 1.51.896 3.322.896 4.832 0 7.854-6.57 14.5-14.332 14.5zm46.335 23c-4.18 0-8.36-1.82-11.05-5.156L141 932.7c1.792-3.032 2.986-6.672 2.986-10.31 0-.91 0-2.125-.298-3.035 14.333-.91 26.576-10.616 31.95-23.355l8.063 47.014c.3.91.3 1.82.3 2.427 0 8.19-6.27 14.56-14.333 14.56zm-46.018-46c-4.773 0-8.65 3.81-8.65 8.5 0 4.69 3.877 8.5 8.65 8.5 4.77 0 8.35-3.81 8.35-8.5 0-4.69-3.58-8.5-8.35-8.5zm.508 12c-1.895 0-3.158-1.263-3.158-2.842 0-1.58 1.263-3.158 3.158-3.158 1.58 0 2.842 1.58 2.842 3.158 0 1.58-1.263 2.842-2.842 2.842zM65.5 914c-4.69 0-8.5 3.81-8.5 8.5 0 4.69 3.81 8.5 8.5 8.5 4.69 0 8.5-3.81 8.5-8.5 0-4.69-3.81-8.5-8.5-8.5zm.5 12c-1.5 0-3-1.263-3-2.842 0-1.58 1.5-3.158 3-3.158s3 1.58 3 3.158c0 1.58-1.5 2.842-3 2.842zm84-26.5c0-4.69-3.877-8.5-8.65-8.5-4.77 0-8.35 3.81-8.35 8.5 0 4.69 3.58 8.5 8.35 8.5 4.773 0 8.65-3.81 8.65-8.5zm-12 .342c0-1.58 1.263-2.842 2.842-2.842 1.895 0 3.158 1.263 3.158 2.842 0 1.58-1.263 3.158-3.158 3.158-1.58 0-2.842-1.58-2.842-3.158zm-6-18.193c0-4.773-3.58-8.65-8.35-8.65-4.773 0-8.65 3.877-8.65 8.65 0 4.473 3.877 8.35 8.65 8.35 4.77 0 8.35-3.877 8.35-8.35zm-11 .508c0-1.895 1.263-3.158 3.158-3.158 1.58 0 2.842 1.263 2.842 3.158 0 1.58-1.263 2.842-2.842 2.842-1.895 0-3.158-1.263-3.158-2.842zM158.5 890c4.69 0 8.5-3.877 8.5-8.35 0-4.773-3.81-8.65-8.5-8.65-4.69 0-8.5 3.877-8.5 8.65 0 4.473 3.81 8.35 8.5 8.35zm-.342-11c1.58 0 2.842 1.263 2.842 3.158 0 1.58-1.263 2.842-2.842 2.842-1.895 0-3.158-1.263-3.158-2.842 0-1.895 1.263-3.158 3.158-3.158zm-17.658-6c4.69 0 8.5-3.81 8.5-8.5 0-4.69-3.81-8.5-8.5-8.5-4.69 0-8.5 3.81-8.5 8.5 0 4.69 3.81 8.5 8.5 8.5zm.342-11c1.895 0 3.158 1.263 3.158 2.842 0 1.58-1.263 3.158-3.158 3.158-1.58 0-2.842-1.58-2.842-3.158 0-1.58 1.263-2.842 2.842-2.842zm-85.42 22.687c-1.822 0-3.037 1.492-3.037 2.985v11.343c0 1.492-1.215 2.985-2.733 2.985-1.822 0-3.037-1.493-3.037-2.985v-11.343c0-1.493-1.215-2.985-3.037-2.985h-11.54c-1.52 0-3.038-1.194-3.038-2.687 0-1.79 1.52-2.985 3.037-2.985h11.54c1.823 0 3.038-1.194 3.038-2.985v-11.343c0-1.493 1.215-2.687 3.037-2.687 1.518 0 2.733 1.194 2.733 2.687v11.343c0 1.79 1.215 2.985 3.037 2.985h11.54c1.52 0 3.038 1.194 3.038 2.985 0 1.493-1.52 2.687-3.037 2.687h-11.54z" fill="#E74C3C"/><path d="M367.5 792c49.555 0 89.5 39.945 89.5 89.5 0 49.255-39.945 89.5-89.5 89.5-49.255 0-89.5-40.245-89.5-89.5 0-49.555 40.245-89.5 89.5-89.5z" fill="#27AE60"/><path d="M450.975 875.524v-.302c-2.405-12.666-10.823-22.92-22.548-27.746v-11.762c0-1.508-1.202-2.714-2.705-2.714H391.15c-1.504 0-3.008 1.206-3.008 2.714v19.302l-.9.905h-38.483l-.902-.904v-19.302c0-1.508-1.203-2.714-3.007-2.714H310.28c-1.503 0-2.705 1.206-2.705 2.714v11.762c-11.424 4.826-20.143 15.08-22.548 27.746v.302l-11.724 66.65c-.3 1.207-.3 2.112-.3 3.318 0 11.16 9.02 20.508 20.142 20.508 6.013 0 11.725-3.016 15.633-7.54l16.836-21.11c3.608 3.317 8.418 5.428 13.53 5.428 11.123 0 20.142-9.048 20.142-20.207 0-5.73-2.405-10.856-6.013-14.475h29.762c-3.91 3.62-6.314 8.746-6.314 14.476 0 11.16 9.02 20.208 20.143 20.208 5.112 0 9.922-2.11 13.53-5.43l16.835 21.112c3.908 4.524 9.62 7.54 15.633 7.54C453.98 966 463 956.65 463 945.794c0-1.508 0-2.413-.3-3.62l-11.725-66.65z" fill="#FFF"/><path d="M330.767 890.566h8.466c4.837 0 8.767-3.907 8.767-8.416 0-4.81-3.93-8.716-8.767-8.716h-8.466v-8.717c0-4.81-3.93-8.717-8.767-8.717s-8.767 3.908-8.767 8.717v8.717h-8.768c-4.837 0-8.465 3.907-8.465 8.716 0 4.51 3.628 8.416 8.465 8.416h8.768v8.717c0 4.81 3.93 8.717 8.767 8.717s8.767-3.908 8.767-8.717v-8.717zm120.208-15.042v-.302c-2.405-12.666-10.823-22.92-22.548-27.746v-11.762c0-1.508-1.202-2.714-2.705-2.714H391.15c-1.504 0-3.008 1.206-3.008 2.714v19.302l-.9.905h-38.483l-.902-.904v-19.302c0-1.508-1.203-2.714-3.007-2.714H310.28c-1.503 0-2.705 1.206-2.705 2.714v11.762c-11.424 4.826-20.143 15.08-22.548 27.746v.302l-11.724 66.65c-.3 1.207-.3 2.112-.3 3.318 0 11.16 9.02 20.508 20.142 20.508 6.013 0 11.725-3.016 15.633-7.54l16.836-21.11c3.608 3.317 8.418 5.428 13.53 5.428 11.123 0 20.142-9.048 20.142-20.207 0-5.73-2.405-10.856-6.013-14.475h29.762c-3.91 3.62-6.314 8.746-6.314 14.476 0 11.16 9.02 20.208 20.143 20.208 5.112 0 9.922-2.11 13.53-5.43l16.835 21.112c3.908 4.524 9.62 7.54 15.633 7.54C453.98 966 463 956.65 463 945.794c0-1.508 0-2.413-.3-3.62l-11.725-66.65zM394 839h29v7.077c-2.72-.923-5.74-1.23-8.76-1.23-7.25 0-14.198 2.153-20.24 6.153v-12zm-12 23c-3.847 5.672-5.918 12.537-5.918 20 0 7.164 2.07 14.03 5.918 20h-29c3.847-5.97 5.918-12.836 5.918-20 0-7.463-2.07-14.328-5.622-20H382zm-69-23h29v12c-6.042-4-12.99-6.154-20.24-6.154-3.02 0-6.04.308-8.76 1.23V839zm-8.618 115.844c-2.688 3.336-6.57 5.156-11.05 5.156-8.06 0-14.332-6.37-14.332-14.56 0-.606 0-1.516.3-2.426L287.36 896c5.376 12.74 17.62 22.445 31.952 23.355-.298.91-.298 2.124-.298 3.034 0 3.638 1.194 7.278 2.986 10.31l-17.618 22.144zM338.668 937c-7.763 0-14.332-6.646-14.332-14.5 0-1.51.3-3.323.896-4.833.3-.907.3-2.115-.298-2.72-.598-.905-1.493-1.207-2.39-1.207h-.895c-17.318 0-31.65-14.198-31.65-31.72C290 864.2 304.332 850 321.65 850c17.317 0 31.35 14.5 31.35 32.02 0 8.46-3.284 16.615-9.256 22.657-.597.604-.896 1.51-.896 2.417.3.906.896 1.812 1.792 2.114 5.076 2.417 8.36 7.552 8.36 13.292 0 7.854-6.27 14.5-14.332 14.5zm57.664 0C388.57 937 382 930.354 382 922.5c0-5.74 3.284-10.875 8.66-13.292.596-.302 1.193-1.208 1.492-2.114.298-.907 0-1.813-.896-2.417-5.972-6.042-9.256-14.198-9.256-22.656C382 864.2 396.033 850 413.35 850c17.617 0 31.65 14.198 31.65 32.02 0 17.522-14.033 31.72-31.948 31.72h-.597c-.896 0-1.79.302-2.39 1.208-.596.604-.596 1.812-.297 2.72.597 1.51.896 3.322.896 4.832 0 7.854-6.57 14.5-14.332 14.5zm46.335 23c-4.18 0-8.36-1.82-11.05-5.156L414 932.7c1.792-3.032 2.986-6.672 2.986-10.31 0-.91 0-2.125-.298-3.035 14.63-.91 26.576-10.616 31.95-23.355L457 943.014v2.427c0 8.19-6.27 14.56-14.333 14.56zM396.5 914c-4.69 0-8.5 3.81-8.5 8.5 0 4.69 3.81 8.5 8.5 8.5 4.69 0 8.5-3.81 8.5-8.5 0-4.69-3.81-8.5-8.5-8.5zm.5 12c-1.5 0-3-1.263-3-2.842 0-1.58 1.5-3.158 3-3.158s3 1.58 3 3.158c0 1.58-1.5 2.842-3 2.842zm-57.65-12c-4.77 0-8.35 3.81-8.35 8.5 0 4.69 3.58 8.5 8.35 8.5 4.773 0 8.65-3.81 8.65-8.5 0-4.69-3.877-8.5-8.65-8.5zm-.508 12c-1.58 0-2.842-1.263-2.842-2.842 0-1.58 1.263-3.158 2.842-3.158 1.895 0 3.158 1.58 3.158 3.158 0 1.58-1.263 2.842-3.158 2.842zM423 899.5c0-4.69-3.877-8.5-8.65-8.5-4.473 0-8.35 3.81-8.35 8.5 0 4.69 3.877 8.5 8.35 8.5 4.773 0 8.65-3.81 8.65-8.5zm-12 .342c0-1.58 1.263-2.842 2.842-2.842 1.895 0 3.158 1.263 3.158 2.842 0 1.58-1.263 3.158-3.158 3.158-1.58 0-2.842-1.58-2.842-3.158zm-6-18.193c0-4.773-3.81-8.65-8.5-8.65-4.69 0-8.5 3.877-8.5 8.65 0 4.473 3.81 8.35 8.5 8.35 4.69 0 8.5-3.877 8.5-8.35zm-11 .508c0-1.895 1.5-3.158 3-3.158s3 1.263 3 3.158c0 1.58-1.5 2.842-3 2.842s-3-1.263-3-2.842zM431.5 890c4.69 0 8.5-3.877 8.5-8.35 0-4.773-3.81-8.65-8.5-8.65-4.69 0-8.5 3.877-8.5 8.65 0 4.473 3.81 8.35 8.5 8.35zm-.5-11c1.5 0 3 1.263 3 3.158 0 1.58-1.5 2.842-3 2.842s-3-1.263-3-2.842c0-1.895 1.5-3.158 3-3.158zm-16.65-6c4.773 0 8.65-3.81 8.65-8.5 0-4.69-3.877-8.5-8.65-8.5-4.473 0-8.35 3.81-8.35 8.5 0 4.69 3.877 8.5 8.35 8.5zm-.508-11c1.895 0 3.158 1.263 3.158 2.842 0 1.58-1.263 3.158-3.158 3.158-1.58 0-2.842-1.58-2.842-3.158 0-1.58 1.263-2.842 2.842-2.842zm-86.17 22.687c-1.493 0-2.985 1.492-2.985 2.985v11.343c0 1.492-1.194 2.985-2.687 2.985-1.493 0-2.985-1.493-2.985-2.985v-11.343c0-1.493-1.194-2.985-2.687-2.985h-11.64c-1.494 0-2.688-1.194-2.688-2.687 0-1.79 1.194-2.985 2.687-2.985h11.64c1.494 0 2.688-1.194 2.688-2.985v-11.343c0-1.493 1.492-2.687 2.985-2.687 1.493 0 2.687 1.194 2.687 2.687v11.343c0 1.79 1.492 2.985 2.985 2.985h11.343c1.79 0 2.985 1.194 2.985 2.985 0 1.493-1.194 2.687-2.985 2.687h-11.343z" fill="#2C3E50"/><path d="M640.35 792c49.638 0 89.65 39.945 89.65 89.5 0 49.255-40.012 89.5-89.65 89.5-49.338 0-89.35-40.245-89.35-89.5 0-49.555 40.012-89.5 89.35-89.5z" fill="#27AE60"/><path d="M723.63 875.524v-.302c-2.113-12.666-10.864-22.92-22.33-27.746v-11.762c0-1.508-1.51-2.714-3.017-2.714h-34.7c-1.51 0-3.017 1.206-3.017 2.714v19.302l-.906.905h-38.32c-.302-.3-.906-.603-1.207-.904v-19.302c0-1.508-1.207-2.714-2.716-2.714h-34.7c-1.81 0-3.017 1.206-3.017 2.714v11.762c-11.466 4.826-20.217 15.08-22.33 27.746l-.3.302-11.768 66.65c-.302 1.207-.302 2.112-.302 3.318 0 11.16 9.052 20.508 20.216 20.508 6.337 0 12.07-3.016 15.69-7.54l16.898-21.11c3.62 3.317 8.45 5.428 13.88 5.428 11.164 0 20.216-9.048 20.216-20.207 0-5.73-2.413-10.856-6.336-14.475h29.872c-3.923 3.62-6.336 8.746-6.336 14.476 0 11.16 9.052 20.208 20.216 20.208 5.43 0 9.957-2.11 13.578-5.43l16.897 21.112c3.924 4.524 9.657 7.54 15.994 7.54 11.164 0 20.216-9.35 20.216-20.206 0-1.508-.302-2.413-.302-3.62l-12.07-66.65z" fill="#FFF"/><path d="M602.767 890.566h8.768c4.535 0 8.465-3.907 8.465-8.416 0-4.81-3.93-8.716-8.465-8.716h-8.768v-8.717c0-4.81-3.93-8.717-8.767-8.717s-8.767 3.908-8.767 8.717v8.717h-8.466c-4.837 0-8.767 3.907-8.767 8.716 0 4.51 3.93 8.416 8.767 8.416h8.466v8.717c0 4.81 3.93 8.717 8.767 8.717s8.767-3.908 8.767-8.717v-8.717zm120.862-15.042v-.302c-2.113-12.666-10.864-22.92-22.33-27.746v-11.762c0-1.508-1.51-2.714-3.017-2.714h-34.7c-1.51 0-3.017 1.206-3.017 2.714v19.302l-.906.905h-38.32c-.302-.3-.906-.603-1.207-.904v-19.302c0-1.508-1.207-2.714-2.716-2.714h-34.7c-1.81 0-3.017 1.206-3.017 2.714v11.762c-11.466 4.826-20.217 15.08-22.33 27.746l-.3.302-11.768 66.65c-.302 1.207-.302 2.112-.302 3.318 0 11.16 9.052 20.508 20.216 20.508 6.337 0 12.07-3.016 15.69-7.54l16.898-21.11c3.62 3.317 8.45 5.428 13.88 5.428 11.164 0 20.216-9.048 20.216-20.207 0-5.73-2.413-10.856-6.336-14.475h29.872c-3.923 3.62-6.336 8.746-6.336 14.476 0 11.16 9.052 20.208 20.216 20.208 5.43 0 9.957-2.11 13.578-5.43l16.897 21.112c3.924 4.524 9.657 7.54 15.994 7.54 11.164 0 20.216-9.35 20.216-20.206 0-1.508-.302-2.413-.302-3.62l-12.07-66.65zM667 839h29v7.077c-2.747-.923-5.495-1.23-8.547-1.23C679.82 844.846 672.8 847 667 851v-12zm-12 23c-3.887 5.672-5.98 12.537-5.98 20 0 7.164 2.093 14.03 5.98 20h-29c3.588-5.97 5.98-12.836 5.98-20 0-7.463-2.392-14.328-5.98-20h29zm-70-23h29v12c-5.74-4-12.688-6.154-20.24-6.154-3.02 0-5.74.308-8.76 1.23V839zm-8.32 115.844c-2.986 3.336-6.867 5.156-11.347 5.156-7.764 0-14.333-6.37-14.333-14.56 0-.606 0-1.516.3-2.426L559.66 896c5.076 12.74 17.32 22.445 31.653 23.355 0 .91-.3 2.124-.3 3.034 0 3.638 1.195 7.278 2.987 10.31l-17.32 22.144zM611.9 937c-8.1 0-14.4-6.646-14.4-14.5 0-1.51.3-3.323.9-4.833.3-.907 0-2.115-.6-2.72-.3-.905-1.2-1.207-2.1-1.207h-1.2c-17.4 0-31.5-14.198-31.5-31.72C563 864.2 577.1 850 594.5 850s31.5 14.5 31.5 32.02c0 8.46-3.3 16.615-9.3 22.657-.6.604-.9 1.51-.9 2.417.3.906.9 1.812 1.8 2.114 5.1 2.417 8.4 7.552 8.4 13.292 0 7.854-6.3 14.5-14.1 14.5zm57.66 0c-7.887 0-14.56-6.646-14.56-14.5 0-5.74 3.336-10.875 8.796-13.292.91-.302 1.517-1.208 1.517-2.114.303-.907 0-1.813-.607-2.417-6.37-6.042-9.706-14.198-9.706-22.656C655 864.2 669.56 850 687.152 850S719 864.198 719 882.02c0 17.522-14.256 31.72-32.152 31.72h-.91c-.91 0-1.82.302-2.426 1.208-.303.604-.607 1.812-.303 2.72.605 1.51.908 3.322.908 4.832 0 7.854-6.37 14.5-14.56 14.5zm46.107 23c-4.48 0-8.66-1.82-11.348-5.156L687 932.7c1.792-3.032 2.688-6.672 2.688-10.31v-3.035c14.333-.91 26.576-10.616 31.652-23.355l8.36 47.014c0 .91.3 1.82.3 2.427 0 8.19-6.57 14.56-14.333 14.56zM670 914c-4.966 0-9 3.81-9 8.5 0 4.69 4.034 8.5 9 8.5s9-3.81 9-8.5c0-4.69-4.034-8.5-9-8.5zm-.158 12c-1.58 0-2.842-1.263-2.842-2.842 0-1.58 1.263-3.158 2.842-3.158 1.895 0 3.158 1.58 3.158 3.158 0 1.58-1.263 2.842-3.158 2.842zm-58.193-12c-4.773 0-8.65 3.81-8.65 8.5 0 4.69 3.877 8.5 8.65 8.5 4.473 0 8.35-3.81 8.35-8.5 0-4.69-3.877-8.5-8.35-8.5zm.508 12c-1.895 0-3.158-1.263-3.158-2.842 0-1.58 1.263-3.158 3.158-3.158 1.58 0 2.842 1.58 2.842 3.158 0 1.58-1.263 2.842-2.842 2.842zM695 899.5c0-4.69-3.58-8.5-8.35-8.5-4.773 0-8.65 3.81-8.65 8.5 0 4.69 3.877 8.5 8.65 8.5 4.77 0 8.35-3.81 8.35-8.5zm-11 .342c0-1.58 1.263-2.842 3.158-2.842 1.58 0 2.842 1.263 2.842 2.842 0 1.58-1.263 3.158-2.842 3.158-1.895 0-3.158-1.58-3.158-3.158zm-5-18.193c0-4.773-4.034-8.65-9-8.65s-9 3.877-9 8.65c0 4.473 4.034 8.35 9 8.35s9-3.877 9-8.35zm-12 .508c0-1.895 1.263-3.158 2.842-3.158 1.895 0 3.158 1.263 3.158 3.158 0 1.58-1.58 2.842-3.158 2.842-1.58 0-2.842-1.263-2.842-2.842zM704 890c4.966 0 9-3.877 9-8.35 0-4.773-4.034-8.65-9-8.65s-9 3.877-9 8.65c0 4.473 4.034 8.35 9 8.35zm-.158-11c1.895 0 3.158 1.263 3.158 3.158 0 1.58-1.263 2.842-3.158 2.842-1.58 0-2.842-1.263-2.842-2.842 0-1.895 1.263-3.158 2.842-3.158zm-17.193-6c4.77 0 8.35-3.81 8.35-8.5 0-4.69-3.58-8.5-8.35-8.5-4.773 0-8.65 3.81-8.65 8.5 0 4.69 3.877 8.5 8.65 8.5zm.508-11c1.58 0 2.842 1.263 2.842 2.842 0 1.58-1.263 3.158-2.842 3.158-1.895 0-3.158-1.58-3.158-3.158 0-1.58 1.263-2.842 3.158-2.842zm-87.486 22.687c-1.493 0-2.687 1.492-2.687 2.985v11.343c0 1.492-1.492 2.985-2.985 2.985-1.493 0-2.985-1.493-2.985-2.985v-11.343c0-1.493-1.194-2.985-2.687-2.985h-11.343c-1.79 0-2.985-1.194-2.985-2.687 0-1.79 1.194-2.985 2.985-2.985h11.343c1.493 0 2.687-1.194 2.687-2.985v-11.343c0-1.493 1.492-2.687 2.985-2.687 1.493 0 2.985 1.194 2.985 2.687v11.343c0 1.79 1.194 2.985 2.687 2.985h11.64c1.494 0 2.688 1.194 2.688 2.985 0 1.493-1.194 2.687-2.687 2.687h-11.64z" fill="#2C3E50"/><path d="M648.652 301.097c-6.62 0-12.036-5.422-12.036-12.048 0-6.628 5.416-12.05 12.036-12.05h37.01c6.922 0 12.338 5.422 12.338 12.05v297.9c0 6.628-5.416 12.05-12.337 12.05H410.036c-6.62 0-12.036-5.422-12.036-12.05 0-6.625 5.416-12.047 12.036-12.047h263.59V301.097h-24.974z" fill="#4F81BA"/><path d="M368 532c29.866 0 54 24.067 54 53.85 0 29.782-24.134 54.15-54 54.15s-54-24.368-54-54.15c0-29.783 24.134-53.85 54-53.85zM449.405 660L598 808.595 589.294 817 441 668.706l8.405-8.706z" fill="#4F81BA"/><path d="M356.496 459h25.008c4.82 0 8.738 3.912 8.738 8.727v14.145c13.56 2.71 26.214 8.126 37.663 15.348l9.943-9.63c3.315-3.61 8.738-3.61 12.354 0l17.475 17.455c3.315 3.31 3.315 9.028 0 12.34l-9.943 9.93c7.533 11.135 12.956 23.775 15.668 37.62h13.86c4.82 0 8.738 3.91 8.738 8.726v24.68c0 4.814-3.917 8.726-8.738 8.726h-13.86c-2.712 13.844-8.135 26.484-15.668 37.62l9.943 9.93c3.315 3.31 3.315 9.03 0 12.34l-17.475 17.755c-3.616 3.31-9.04 3.31-12.354 0l-9.943-9.93c-11.45 7.523-24.104 12.64-37.663 15.65v13.843c0 4.815-3.917 8.727-8.738 8.727h-25.008c-4.82 0-8.738-3.912-8.738-8.727V690.43c-13.56-3.01-26.214-8.127-37.663-15.65l-9.943 9.93c-3.315 3.31-8.738 3.31-12.354 0l-17.475-17.755c-3.315-3.31-3.315-9.028 0-12.34l9.943-9.93c-7.533-11.135-12.956-23.775-15.668-37.62h-13.86c-4.82 0-8.738-3.91-8.738-8.726v-24.68c0-4.814 3.917-8.726 8.738-8.726h13.86c2.712-13.844 8.135-26.484 15.668-37.62l-9.943-9.93c-3.315-3.31-3.315-9.03 0-12.34l17.475-17.454c3.616-3.61 9.04-3.61 12.354 0l9.943 9.63c11.45-7.222 24.104-12.64 37.663-15.348v-14.145c0-4.815 3.917-8.727 8.738-8.727zm12.655 57c38.403 0 69.85 30.922 69.85 69.35S407.553 655 369.15 655c-38.703 0-70.15-31.222-70.15-69.65 0-38.428 31.447-69.35 70.15-69.35z" fill="#405B75"/><path d="M356.517 455h24.966c3.31 0 6.618 1.506 9.024 3.614 2.106 2.41 3.61 5.722 3.61 9.034v10.842c6.016 1.204 11.73 3.312 17.146 5.42 5.414 2.41 10.83 5.12 15.943 8.13l7.52-7.527c2.406-2.41 5.715-3.614 9.024-3.614 3.31 0 6.617 1.203 9.024 3.613l17.446 17.767c2.708 2.41 3.91 5.722 3.91 9.035 0 3.01-1.202 6.324-3.91 9.034l-7.52 7.528c3.31 5.12 6.016 10.24 8.423 15.96 2.105 5.422 3.91 11.144 5.414 16.865h10.528c3.61 0 6.92 1.506 9.025 3.915 2.406 2.41 3.91 5.42 3.91 9.035v24.694c0 3.614-1.504 6.927-3.91 9.035-2.106 2.41-5.415 3.915-9.025 3.915h-10.528c-1.504 5.72-3.31 11.443-5.414 17.165-2.407 5.42-5.114 10.84-8.423 15.96l7.52 7.53c2.708 2.41 3.91 5.722 3.91 9.034 0 3.313-1.202 6.324-3.91 9.035l-17.446 17.467c-2.407 2.41-5.715 3.915-9.024 3.915-3.31 0-6.618-1.505-9.024-3.915l-7.52-7.528c-5.114 3.01-10.53 6.022-15.943 8.13-5.415 2.41-11.13 4.216-17.146 5.42v10.842c0 3.614-1.504 6.625-3.61 9.034-2.406 2.41-5.715 3.614-9.024 3.614h-24.966c-3.31 0-6.618-1.205-9.024-3.614-2.106-2.41-3.61-5.42-3.61-9.034V693.51c-6.016-1.204-11.73-3.01-17.146-5.42-5.414-2.108-10.83-5.12-15.943-8.13l-7.52 7.527c-2.406 2.41-5.715 3.915-9.024 3.915-3.31 0-6.617-1.505-9.024-3.915L267.78 670.02c-2.708-2.71-3.91-5.72-3.91-9.034 0-3.312 1.202-6.625 3.91-9.034l7.52-7.53c-3.31-5.12-6.016-10.54-8.423-15.96-2.105-5.722-3.91-11.444-5.414-17.165h-10.528c-3.61 0-6.92-1.506-9.025-3.915-2.406-2.108-3.91-5.42-3.91-9.035v-24.694c0-3.614 1.504-6.625 3.91-9.035 2.106-2.41 5.415-3.915 9.025-3.915h10.528c1.504-5.72 3.31-11.443 5.414-16.864 2.407-5.723 5.114-10.842 8.423-15.962l-7.52-7.53c-2.708-2.71-3.91-6.022-3.91-9.033 0-3.313 1.202-6.625 3.91-9.035l17.446-17.767c2.407-2.41 5.715-3.614 9.024-3.614 3.31 0 6.618 1.203 9.024 3.613l7.52 7.528c5.114-3.01 10.53-5.72 15.943-8.13 5.415-2.108 11.13-4.216 17.146-5.42v-10.842c0-3.312 1.504-6.625 3.61-9.034 2.406-2.108 5.715-3.614 9.024-3.614zm24.98 8h-24.993c-1.204 0-2.41.602-3.312 1.204-.903.904-1.204 2.108-1.204 3.313v17.463l-3.312.603c-6.625 1.204-12.948 3.312-18.97 5.72-6.022 2.41-11.743 5.72-17.163 9.335l-2.71 1.806-2.408-2.41-9.937-9.935c-.903-.904-2.107-1.205-3.312-1.205-1.204 0-2.41.3-3.312 1.204L273.4 507.863c-.903.903-1.505 2.108-1.505 3.312 0 1.205.602 2.41 1.505 3.312l9.635 9.636 2.41 2.408-1.807 2.71c-3.614 5.42-6.625 11.442-9.334 17.464-2.41 6.022-4.517 12.345-5.72 18.67l-.604 3.31h-17.162c-1.506 0-2.41.603-3.312 1.506-.904.903-1.506 2.108-1.506 3.312v24.69c0 1.506.602 2.71 1.506 3.313.903.903 1.806 1.505 3.312 1.505h17.162l.603 3.312c1.204 6.323 3.312 12.647 5.72 18.67 2.71 6.322 5.72 12.043 9.335 17.463l1.806 2.71-2.41 2.408-9.634 9.937c-.903.903-1.505 2.107-1.505 3.312 0 1.204.602 2.41 1.505 3.312l17.464 17.464c.903.903 2.108 1.505 3.312 1.505 1.205 0 2.41-.602 3.312-1.505l9.937-9.937 2.41-2.107 2.708 1.806c5.42 3.614 11.14 6.625 17.163 9.033 6.022 2.71 12.345 4.517 18.97 6.022l3.312.603v17.162c0 1.205.3 2.41 1.204 3.312.903.904 2.108 1.506 3.312 1.506h24.992c1.204 0 2.41-.602 3.312-1.506.903-.903 1.204-2.107 1.204-3.312V687.02l3.312-.603c6.625-1.505 12.948-3.312 18.97-6.022 6.022-2.408 11.743-5.42 17.163-9.033l3.01-1.806 2.108 2.107 9.937 9.937c.903.903 2.107 1.505 3.312 1.505 1.204 0 2.41-.602 3.312-1.505l17.464-17.464h.3c.904-.903 1.205-2.108 1.205-3.312 0-1.205-.3-2.41-1.204-3.312h-.3l-9.635-9.937-2.41-2.41 1.807-2.708c3.614-5.42 6.625-11.14 9.334-17.464 2.41-6.022 4.517-12.346 5.72-18.67l.604-3.31h17.162c1.506 0 2.41-.603 3.312-1.506.904-.602 1.506-1.807 1.506-3.312v-24.69c0-1.205-.602-2.41-1.506-3.313-.903-.903-1.806-1.505-3.312-1.505H470.02l-.603-3.312c-1.204-6.324-3.312-12.647-5.72-18.67-2.71-6.02-5.72-12.043-9.335-17.463l-1.806-2.71 2.41-2.408 9.634-9.636h.3c.904-.903 1.205-2.107 1.205-3.312 0-1.204-.3-2.41-1.204-3.312h-.3L447.136 490.1c-.903-.904-2.108-1.205-3.312-1.205-1.205 0-2.41.3-3.312 1.204l-9.937 9.935-2.107 2.41-3.01-1.807c-5.42-3.614-11.142-6.926-17.164-9.334-6.022-2.41-12.345-4.517-18.97-5.72l-3.312-.604v-17.462c0-1.206-.3-2.41-1.204-3.314-.903-.602-2.108-1.204-3.312-1.204zM368.5 512c20.1 0 38.4 8.457 51.9 21.747C433.6 547.037 442 565.763 442 586c0 20.54-8.4 38.963-21.6 52.253C406.9 651.845 388.6 660 368.5 660c-20.4 0-38.7-8.155-52.2-21.747C303.1 624.963 295 606.54 295 586c0-20.237 8.1-38.963 21.3-52.253C329.8 520.457 348.1 512 368.5 512zm46.315 27.23c-11.99-12.02-28.18-19.23-46.165-19.23-18.286 0-34.474 7.21-46.465 19.23C310.495 550.946 303 567.47 303 585.5c0 18.028 7.494 34.553 19.185 46.27 11.99 12.02 28.18 19.23 46.465 19.23 17.986 0 34.174-7.21 46.165-19.23C426.505 620.054 434 603.53 434 585.5c0-18.028-7.494-34.553-19.185-46.27z" fill="#34495E"/><path d="M590.65 798c6.627 0 12.35 5.723 12.35 12.65 0 6.627-5.723 12.35-12.35 12.35-6.927 0-12.65-5.723-12.65-12.35 0-6.927 5.723-12.65 12.65-12.65z" fill="#4F81BA"/><path d="M441 1099.595L589.294 951l8.706 8.706L449.405 1108l-8.405-8.405z" fill="#27AE60"/><path d="M285 1091.958c0-20.5 43.578-31.958 84.15-31.958 40.873 0 83.85 11.457 83.85 31.958v138.084c0 20.5-42.977 31.958-83.85 31.958-41.173 0-84.15-11.457-84.15-31.958v-138.084z" fill="#16A085"/><path d="M564.032 580.764l37.635-37.396c2.408-2.693 9.333-3.59 9.333 0v84.366c0 3.59-6.925 2.394-9.333 0l-37.635-37.396c-2.71-2.693-2.71-6.88 0-9.574z" fill="#4F81BA"/><path d="M513 1034.09v-30.075c0-2.105 2.406-5.113 3.91-3.61l33.684 33.685c1.504 1.504-1.504 3.91-3.61 3.91H516.91c-2.105 0-3.91-1.805-3.91-3.91z" fill="#27AE60"/><path d="M369.15 1124.23c-29.12 0-59.14-5.71-74.15-16.23v30.058c0 8.416 29.12 21.942 74.15 21.942 44.73 0 73.85-13.526 73.85-21.942V1108c-15.01 10.52-45.03 16.23-73.85 16.23zM285 1091.96c0-20.5 43.578-31.958 84.15-31.958 40.873 0 83.85 11.457 83.85 31.958v138.084c0 20.5-42.977 31.958-83.85 31.958-41.173 0-84.15-11.457-84.15-31.958v-138.084zM295 1153v30.89c0 9.39 28.52 22.11 74.15 22.11 46.23 0 73.85-12.72 73.85-22.11V1153c-15.01 10.6-45.03 16.354-73.85 16.354-29.12 0-59.14-5.754-74.15-16.354zm0 47v30.058c0 9.318 28.52 21.942 74.15 21.942 46.23 0 73.85-12.624 73.85-21.942V1200c-15.01 10.52-45.03 16.23-73.85 16.23-29.12 0-59.14-5.71-74.15-16.23zm74.15-130c-46.53 0-74.15 12.658-74.15 22s27.62 22 74.15 22c46.23 0 73.85-12.658 73.85-22s-27.62-22-73.85-22z" fill="#34495E"/><path d="M540 752.388v-30.096c0-2.106-2.406-5.417-3.91-3.912l-33.684 34.008c-1.504 1.505 1.504 3.612 3.61 3.612h30.074c2.105 0 3.91-1.505 3.91-3.612z" fill="#4F81BA"/><path d="M94.122 1353h547.756c4.212 0 8.122 3.61 8.122 8.124v382.752c0 4.513-3.91 8.124-8.122 8.124H94.122c-4.512 0-8.122-3.61-8.122-8.124v-382.752c0-4.513 3.61-8.124 8.122-8.124z" fill="#BDC3C7"/><path d="M94.345 1349h548.31c3.312 0 6.323 1.202 8.732 3.607 2.107 2.104 3.613 5.41 3.613 8.717v382.352c0 3.306-1.506 6.613-3.613 8.717-2.41 2.104-5.42 3.607-8.732 3.607H94.345c-3.613 0-6.624-1.503-8.732-3.607-2.41-2.104-3.613-5.41-3.613-8.717v-382.352c0-3.306 1.204-6.613 3.613-8.717 2.108-2.405 5.12-3.607 8.732-3.607zm548.04 8H93.916c-1.204 0-2.108.6-2.71 1.202-.904.6-1.205 1.502-1.205 2.704v382.188c0 .9.3 2.103 1.205 2.704.602.6 1.506 1.202 2.71 1.202h548.47c.904 0 1.808-.6 2.71-1.202.604-.6.905-1.803.905-2.704v-382.188c0-1.202-.3-2.103-.904-2.704-.903-.6-1.807-1.202-2.71-1.202z" fill="#7F8C8D"/><path d="M109.007 1375h516.685c1.804 0 3.308 1.517 3.308 3.338v37.324c0 1.82-1.504 3.338-3.308 3.338H109.007c-1.804 0-3.007-1.517-3.007-3.338v-37.324c0-1.82 1.203-3.338 3.007-3.338z" fill="#FFF"/><path d="M109.418 1372h517.164c1.505 0 2.71.604 3.913 1.51.903.905 1.505 2.415 1.505 3.924v37.132c0 1.51-.602 3.02-1.505 3.925-1.204.906-2.408 1.51-3.913 1.51H109.418c-1.505 0-2.71-.604-3.612-1.51-1.204-.905-1.806-2.415-1.806-3.924v-37.132c0-1.51.602-3.02 1.806-3.925.903-.906 2.107-1.51 3.612-1.51zm517.38 4H109.902c-.3 0-.602 0-.602.305-.3.306-.3.61-.3.916v37.56c0 .304 0 .61.3.915 0 0 .302.305.603.305h516.894c.3 0 .6-.305.902-.305 0-.306.3-.61.3-.916v-37.56c0-.304-.3-.61-.3-.915-.302-.305-.603-.305-.903-.305z" fill="#7F8C8D"/><path d="M109 1375h45v44h-45c-1.8 0-3-1.517-3-3.338v-37.324c0-1.82 1.2-3.338 3-3.338z" fill="#7F8C8D"/><path d="M109.45 1372H157v48h-47.55c-1.513 0-2.724-.604-3.633-1.51-1.21-.905-1.817-2.415-1.817-3.924v-37.132c0-1.51.606-3.02 1.817-3.925.91-.906 2.12-1.51 3.634-1.51zm43.55 4h-43.096c-.3 0-.603 0-.603.305-.3.306-.3.61-.3.916v37.56c0 .304 0 .61.3.915 0 0 .303.305.604.305H153v-40z" fill="#7F8C8D"/><path d="M108.016 1436h142.666c1.81 0 3.318 1.504 3.318 3.308v291.384c0 1.804-1.508 3.308-3.318 3.308H108.016c-1.81 0-3.016-1.504-3.016-3.308v-291.384c0-1.804 1.206-3.308 3.016-3.308z" fill="#6C9AA1"/><path d="M626.688 1436H272.312c-1.807 0-3.312 1.504-3.312 3.308v291.384c0 1.804 1.505 3.308 3.312 3.308h354.376c1.807 0 3.312-1.504 3.312-3.308v-291.384c0-1.804-1.505-3.308-3.312-3.308z" fill="#ECF0F1"/><path d="M120 1396l10.652-6 10.348-6v24l-10.348-6-10.652-6z" fill="#BDC3C7"/><path d="M366 1256v98"/><path d="M372 1256v98h-12v-98h12z" fill="#34495E"/><path d="M366.35 1338c6.927 0 12.65 5.488 12.65 12.5s-5.723 12.5-12.65 12.5c-6.627 0-12.35-5.488-12.35-12.5s5.723-12.5 12.35-12.5zM364.92 1322.856l-21.545-21.363c-1.517-1.526-2.124-5.493 0-5.493h48.25c2.124 0 1.517 3.967 0 5.493l-21.242 21.363c-1.517 1.525-3.945 1.525-5.462 0z" fill="#34495E"/><path d="M650.5 269c10.8 0 19.5 8.7 19.5 19.5s-8.7 19.5-19.5 19.5-19.5-8.7-19.5-19.5 8.7-19.5 19.5-19.5z" fill="#4F81BA"/><path d="M284 105h331v30H284v-30z" fill="#FFF"/><path d="M292 114h251v12H292v-12z" fill="#C0C0C0"/><path d="M284 194h331v67H284v-67z" fill="#FFF"/><path d="M292 203h312v12H292v-12z" fill="#C0C0C0"/><path d="M299 151c8.265 0 15 6.577 15 14.35 0 8.073-6.735 14.65-15 14.65s-15-6.577-15-14.65c0-7.773 6.735-14.35 15-14.35z" fill="#FFF"/><path d="M299 160c3.3 0 6 2.634 6 5.854 0 3.512-2.7 6.146-6 6.146s-6-2.634-6-6.146c0-3.22 2.7-5.854 6-5.854zM323 159h57v12h-57v-12z" fill="#C0C0C0"/><path d="M283 273h158v28H283v-28z" fill="#2980B9"/><path d="M356.652 258c8.194 0 15.78 3.284 21.547 8.657 5.462 5.67 8.8 13.134 8.8 21.492 0 8.06-3.338 15.82-8.8 21.193-5.767 5.373-13.354 8.657-21.548 8.657-8.498 0-16.085-3.284-21.85-8.657C329.337 303.97 326 296.21 326 288.15c0-8.36 3.338-15.822 8.8-21.493 5.767-5.373 13.354-8.657 21.852-8.657zm20.086 11.115c-4.896-4.81-11.935-8.115-19.585-8.115-7.956 0-14.69 3.306-19.89 8.115-4.897 5.11-8.263 11.72-8.263 19.535 0 7.514 3.366 14.427 8.262 19.235 5.202 5.11 11.935 8.115 19.89 8.115 7.65 0 14.69-3.005 19.586-8.115 5.202-4.808 8.262-11.72 8.262-19.235 0-7.814-3.06-14.426-8.262-19.535z" fill="#34495E"/><path d="M356.15 270c4.76 0 9.52 2.083 12.792 5.355 3.273 3.273 5.058 7.736 5.058 12.794 0 4.76-1.785 9.52-5.058 12.792h-.297c-3.273 3.273-7.736 5.058-12.496 5.058-5.06 0-9.522-1.785-12.795-5.058-3.272-3.273-5.355-8.033-5.355-12.793 0-5.06 2.083-9.522 5.355-12.795 3.273-3.272 7.736-5.355 12.794-5.355zm9.236 9.614c-2.11-2.41-5.422-3.614-8.735-3.614-3.614 0-6.927 1.205-9.036 3.614-2.41 2.41-3.614 5.422-3.614 9.037 0 3.314 1.205 6.627 3.614 8.736 2.11 2.41 5.422 3.614 9.037 3.614 3.314 0 6.627-1.205 8.736-3.614 2.41-2.11 3.614-5.422 3.614-8.735 0-3.614-1.205-6.626-3.614-9.036z" fill="#34495E"/><path d="M349.528 298.57v26.284l-5.71-3.286c-3.305-1.493-6.61-1.194-9.015 1.195-1.202 1.195-1.803 2.688-1.803 4.48 0 1.792.6 3.584 1.803 4.78l15.026 16.127.9.896v12.245c0 .6.602 1.196 1.203 1.793 14.725 8.662 29.45.3 30.05 0 .602-.597.903-1.194.903-1.792v-12.244c5.11-4.182 8.114-10.752 8.114-17.92V320.97c0-3.882-3.005-6.868-6.61-6.868-1.203 0-2.105.298-3.007.896-.6-2.987-3.305-5.078-6.31-5.078-1.503 0-2.705.3-3.607.896-1.202-1.792-3.305-2.987-5.71-2.987-1.202 0-2.103 0-2.704.298v-9.557c0-3.583-3.005-6.57-6.612-6.57-3.906 0-6.912 2.987-6.912 6.57z" fill-opacity=".1" fill="#000"/><path d="M349.528 288.57v26.284l-5.71-3.286c-3.305-1.493-6.61-1.194-9.015 1.195-1.202 1.195-1.803 2.688-1.803 4.48 0 1.792.6 3.584 1.803 4.78l15.026 16.127.9.896v12.245c0 .6.602 1.196 1.203 1.793 14.725 8.662 29.45.3 30.05 0 .602-.597.903-1.194.903-1.792v-12.244c5.11-4.182 8.114-10.752 8.114-17.92V310.97c0-3.882-3.005-6.868-6.61-6.868-1.203 0-2.105.298-3.007.896-.6-2.987-3.305-5.078-6.31-5.078-1.503 0-2.705.3-3.607.896-1.202-1.792-3.305-2.987-5.71-2.987-1.202 0-2.103 0-2.704.298v-9.557c0-3.583-3.005-6.57-6.612-6.57-3.906 0-6.912 2.987-6.912 6.57z" fill="#FFF"/><path d="M358.68 349.385c.3.307.905.615 1.207.615.604 0 1.207-.308 1.51-.615.3-.308.603-.923.603-1.54 0-.614-.302-.922-.604-1.537-.302-.308-.905-.308-1.51-.308-.3 0-.905 0-1.207.308-.906.923-.906 2.154 0 3.077zm-9.152-60.814v26.284l-5.71-3.286c-3.305-1.493-6.61-1.194-9.015 1.195-1.202 1.195-1.803 2.688-1.803 4.48 0 1.792.6 3.584 1.803 4.78l15.026 16.127.9.896v12.245c0 .6.602 1.196 1.203 1.793 14.725 8.662 29.45.3 30.05 0 .602-.597.903-1.194.903-1.792v-12.244c5.11-4.182 8.114-10.752 8.114-17.92V310.97c0-3.882-3.005-6.868-6.61-6.868-1.203 0-2.105.298-3.007.896-.6-2.987-3.305-5.078-6.31-5.078-1.503 0-2.705.3-3.607.896-1.202-1.792-3.305-2.987-5.71-2.987-1.202 0-2.103 0-2.704.298v-9.557c0-3.583-3.005-6.57-6.612-6.57-3.906 0-6.912 2.987-6.912 6.57zM379 342.293v7.884c-3.3 1.46-13.5 5.55-24 0V342c3.6 2.044 7.8 3.212 12 3.212s8.4-1.168 12-2.92zm-20.144-53.616v24.08c0 1.19.898 2.082 2.096 2.082s2.096-.892 2.096-2.08v-8.326c0-1.486 1.198-2.675 2.695-2.675 1.497 0 2.694 1.19 2.694 2.675v9.514c0 .892.898 1.784 1.797 1.784 1.197 0 2.095-.892 2.095-1.784v-7.432c0-1.487 1.197-2.676 2.694-2.676 1.497 0 2.695 1.19 2.695 2.676v8.324c0 1.19.897 2.08 1.795 2.08 1.198 0 2.096-.89 2.096-2.08v-3.865c0-1.487 1.198-2.676 2.695-2.676 1.497 0 2.695 1.19 2.695 2.676v10.108c0 6.244-2.994 11.596-7.186 15.46h-.3c-3.292 2.676-7.783 4.46-12.574 4.46-5.39 0-10.48-2.08-14.072-5.65l-14.97-16.053c-1.197-1.19-1.197-2.973 0-3.865 1.497-1.486 3.294-.594 4.192-.297l7.485 4.162v2.973c0 .892.898 1.784 2.096 1.784s2.096-.892 2.096-1.784v-33.594c0-1.487 1.198-2.676 2.695-2.676 1.2 0 2.396 1.19 2.396 2.676z" fill="#2C3E50"/><path d="M338 1581.58V1571l-15.3 15.72-8.7-8.767v10.582l8.7 8.465 15.3-15.42zM326.35 1562c12.382 0 22.65 9.966 22.65 22.35 0 12.684-10.268 22.65-22.65 22.65-12.384 0-22.35-9.966-22.35-22.65 0-12.384 9.966-22.35 22.35-22.35zM366 1571h229v12H366v-12zM366 1588h111v12H366v-12z" fill="#C0C0C0"/><path d="M169.547 1386.727h2.11v6.42c.5-.63.948-1.077 1.347-1.334.68-.446 1.527-.668 2.543-.668 1.82 0 3.055.636 3.703 1.91.352.695.527 1.66.527 2.894v8.05h-2.168v-7.91c0-.922-.118-1.598-.352-2.027-.383-.688-1.102-1.032-2.156-1.032-.875 0-1.668.302-2.38.904-.71.6-1.066 1.738-1.066 3.41V1404h-2.11v-17.273zm13.77 1.218h2.132v3.504h2.003v1.722h-2.004v8.19c0 .44.148.732.445.88.164.086.437.13.82.13.1 0 .21-.003.328-.007.117-.004.254-.013.41-.03V1404c-.242.07-.494.12-.756.152-.26.032-.545.047-.85.047-.984 0-1.652-.253-2.003-.757-.352-.504-.528-1.158-.528-1.963v-8.308h-1.7v-1.723h1.7v-3.505zm6.667 0h2.133v3.504h2.004v1.722h-2.003v8.19c0 .44.15.732.446.88.164.086.437.13.82.13.1 0 .21-.003.328-.007.118-.004.255-.013.41-.03V1404c-.24.07-.493.12-.755.152-.26.032-.545.047-.85.047-.984 0-1.652-.253-2.003-.757-.352-.504-.528-1.158-.528-1.963v-8.308h-1.7v-1.723h1.7v-3.505zm6.082 3.563h2.05v1.664c.423-.57.884-1.012 1.384-1.324.71-.47 1.547-.703 2.508-.703 1.422 0 2.63.544 3.62 1.634.993 1.09 1.49 2.646 1.49 4.67 0 2.734-.716 4.687-2.145 5.86-.907.74-1.96 1.112-3.164 1.112-.947 0-1.74-.207-2.38-.62-.375-.236-.793-.638-1.254-1.208v6.41h-2.11v-17.496zm7.916 9.838c.653-.825.98-2.057.98-3.698 0-1-.146-1.86-.435-2.578-.547-1.383-1.547-2.074-3-2.074-1.46 0-2.46.73-3 2.19-.29.783-.433 1.775-.433 2.978 0 .97.144 1.793.433 2.473.547 1.297 1.547 1.945 3 1.945.985 0 1.803-.412 2.455-1.236zm6.71-9.733h2.45v2.555h-2.45v-2.555zm0 9.832h2.45V1404h-2.45v-2.555zm9.468-14.66h1.78L216.48 1404h-1.78l5.46-17.215zm6.668 0h1.78L223.15 1404h-1.78l5.46-17.215zm10.57 5.01c.836.418 1.473.96 1.91 1.623.422.633.704 1.37.844 2.215.125.578.188 1.5.188 2.765h-9.2c.04 1.274.34 2.295.903 3.065.562.77 1.434 1.154 2.613 1.154 1.102 0 1.98-.363 2.637-1.09.375-.422.64-.91.797-1.465h2.074c-.055.46-.236.975-.545 1.542-.31.566-.655 1.03-1.038 1.388-.64.625-1.434 1.047-2.38 1.266-.507.125-1.08.187-1.722.187-1.562 0-2.886-.568-3.972-1.705-1.086-1.136-1.63-2.728-1.63-4.775 0-2.016.548-3.652 1.642-4.91 1.093-1.258 2.523-1.887 4.29-1.887.89 0 1.752.21 2.588.627zm.774 4.928c-.086-.914-.285-1.645-.598-2.192-.578-1.014-1.543-1.522-2.894-1.522-.97 0-1.782.35-2.438 1.05-.656.698-1.004 1.587-1.043 2.665h6.972zm3.562-5.274h2.73l2.884 4.417 2.918-4.418 2.566.058-4.23 6.058 4.418 6.434h-2.696l-3.117-4.71-3.023 4.71h-2.672l4.418-6.434-4.196-6.117zm19.922 4.945c.485-.063.81-.266.973-.61.093-.187.14-.457.14-.808 0-.72-.256-1.24-.768-1.565-.512-.324-1.244-.486-2.197-.486-1.102 0-1.883.297-2.344.89-.257.33-.425.817-.503 1.465h-1.97c.04-1.546.542-2.622 1.507-3.227.965-.606 2.084-.908 3.358-.908 1.476 0 2.675.28 3.597.843.913.563 1.37 1.438 1.37 2.625v7.23c0 .22.045.395.135.528.09.134.28.2.568.2.094 0 .2-.006.317-.017.117-.012.242-.03.375-.053v1.56c-.328.092-.578.15-.75.174-.172.024-.406.036-.703.036-.727 0-1.254-.258-1.582-.774-.172-.273-.293-.66-.364-1.16-.43.562-1.046 1.05-1.85 1.465-.806.415-1.693.622-2.66.622-1.165 0-2.117-.354-2.855-1.06-.737-.708-1.106-1.592-1.106-2.655 0-1.164.363-2.066 1.09-2.707.726-.64 1.68-1.035 2.86-1.184l3.362-.42zm-4.44 5.707c.444.35.97.527 1.58.527.743 0 1.462-.173 2.157-.517 1.172-.57 1.758-1.504 1.758-2.8v-1.7c-.257.164-.59.3-.995.41-.406.11-.805.188-1.195.235l-1.278.164c-.765.1-1.34.262-1.722.48-.65.368-.973.953-.973 1.758 0 .61.223 1.09.668 1.442zm11.06-10.653h2.087v1.78c.5-.617.953-1.066 1.36-1.347.695-.477 1.484-.715 2.367-.715 1 0 1.805.246 2.414.738.344.282.656.696.937 1.242.47-.67 1.02-1.17 1.654-1.494.633-.324 1.343-.486 2.133-.486 1.687 0 2.835.61 3.445 1.828.328.656.492 1.54.492 2.65V1404h-2.19v-8.72c0-.835-.21-1.41-.628-1.72-.418-.314-.928-.47-1.53-.47-.828 0-1.54.277-2.138.832-.598.555-.897 1.48-.897 2.777v7.3h-2.143v-8.19c0-.853-.102-1.474-.305-1.865-.32-.586-.918-.88-1.793-.88-.798 0-1.522.31-2.175.927-.652.617-.978 1.735-.978 3.352V1404h-2.11v-12.55zm19.83.058h2.05v1.664c.422-.57.883-1.012 1.383-1.324.71-.47 1.546-.703 2.507-.703 1.422 0 2.63.544 3.62 1.634.993 1.09 1.49 2.646 1.49 4.67 0 2.734-.716 4.687-2.145 5.86-.907.74-1.96 1.112-3.164 1.112-.946 0-1.74-.207-2.38-.62-.374-.236-.792-.638-1.253-1.208v6.41h-2.11v-17.496zm7.915 9.838c.654-.825.98-2.057.98-3.698 0-1-.145-1.86-.434-2.578-.546-1.383-1.546-2.074-3-2.074-1.46 0-2.46.73-3 2.19-.29.783-.433 1.775-.433 2.978 0 .97.144 1.793.433 2.473.547 1.297 1.547 1.945 3 1.945.985 0 1.803-.412 2.455-1.236zm5.656-14.56h2.11V1404h-2.11v-17.215zm13.09 5.01c.836.417 1.472.958 1.91 1.622.422.633.703 1.37.844 2.215.125.578.187 1.5.187 2.765h-9.2c.04 1.274.34 2.295.903 3.065s1.434 1.154 2.613 1.154c1.102 0 1.98-.363 2.637-1.09.375-.422.64-.91.797-1.465h2.074c-.053.46-.235.975-.544 1.542-.308.566-.654 1.03-1.037 1.388-.64.625-1.434 1.047-2.38 1.266-.508.125-1.082.187-1.722.187-1.563 0-2.887-.568-3.973-1.705-1.086-1.136-1.63-2.728-1.63-4.775 0-2.016.548-3.652 1.642-4.91 1.093-1.258 2.523-1.887 4.29-1.887.89 0 1.753.21 2.59.627zm.773 4.927c-.087-.914-.286-1.645-.6-2.192-.577-1.014-1.542-1.522-2.893-1.522-.97 0-1.78.35-2.438 1.05-.657.698-1.005 1.587-1.044 2.665h6.973zm5.26 4.722h2.45V1404h-2.45v-2.555zm14.456-9.328c.887.688 1.42 1.87 1.6 3.55h-2.05c-.126-.772-.41-1.415-.857-1.927-.446-.51-1.16-.767-2.145-.767-1.344 0-2.305.656-2.883 1.968-.375.853-.563 1.904-.563 3.154 0 1.258.265 2.316.796 3.176.532.86 1.367 1.29 2.508 1.29.875 0 1.568-.27 2.08-.804.512-.535.865-1.268 1.06-2.197h2.05c-.233 1.663-.82 2.88-1.756 3.65-.938.77-2.137 1.153-3.598 1.153-1.64 0-2.95-.6-3.926-1.8-.976-1.198-1.465-2.696-1.465-4.493 0-2.203.535-3.918 1.605-5.144 1.07-1.227 2.433-1.84 4.09-1.84 1.414 0 2.564.344 3.45 1.03zm12.873.586c1.116 1.078 1.675 2.664 1.675 4.758 0 2.024-.492 3.696-1.477 5.017-.984 1.32-2.512 1.98-4.582 1.98-1.726 0-3.098-.584-4.113-1.752-1.016-1.168-1.524-2.736-1.524-4.705 0-2.11.535-3.79 1.605-5.04 1.07-1.25 2.508-1.874 4.312-1.874 1.618 0 2.985.54 4.102 1.617zm-1.308 8.35c.52-1.06.78-2.237.78-3.533 0-1.172-.188-2.125-.563-2.86-.595-1.156-1.618-1.734-3.07-1.734-1.29 0-2.228.492-2.814 1.476-.586.985-.88 2.172-.88 3.563 0 1.336.294 2.45.88 3.34.586.89 1.516 1.336 2.79 1.336 1.398 0 2.357-.53 2.876-1.587zm5.49-9.604h2.086v1.78c.5-.617.954-1.066 1.36-1.347.695-.477 1.484-.715 2.367-.715 1 0 1.805.246 2.414.738.343.282.655.696.937 1.242.468-.67 1.02-1.17 1.652-1.494.632-.324 1.343-.486 2.132-.486 1.687 0 2.836.61 3.445 1.828.328.656.492 1.54.492 2.65V1404h-2.192v-8.72c0-.835-.21-1.41-.627-1.72-.417-.314-.927-.47-1.528-.47-.83 0-1.54.277-2.14.832-.597.555-.896 1.48-.896 2.777v7.3h-2.144v-8.19c0-.853-.102-1.474-.305-1.865-.32-.586-.918-.88-1.793-.88-.797 0-1.52.31-2.174.927-.652.617-.978 1.735-.978 3.352V1404h-2.11v-12.55zM169.547 37.727h2.11v6.42c.5-.63.948-1.077 1.347-1.334.68-.446 1.527-.668 2.543-.668 1.82 0 3.055.636 3.703 1.91.352.695.527 1.66.527 2.894V55h-2.168v-7.91c0-.922-.118-1.598-.352-2.028-.383-.687-1.102-1.03-2.156-1.03-.875 0-1.668.3-2.38.902-.71.6-1.066 1.738-1.066 3.41V55h-2.11V37.727zm13.77 1.218h2.132v3.504h2.003v1.722h-2.004v8.19c0 .44.148.732.445.88.164.086.437.13.82.13.1 0 .21-.003.328-.007.117-.004.254-.013.41-.03V55c-.242.07-.494.12-.756.152-.26.032-.545.047-.85.047-.984 0-1.652-.253-2.003-.757-.352-.504-.528-1.158-.528-1.963v-8.308h-1.7V42.45h1.7v-3.505zm6.667 0h2.133v3.504h2.004v1.722h-2.003v8.19c0 .44.15.732.446.88.164.086.437.13.82.13.1 0 .21-.003.328-.007.118-.004.255-.013.41-.03V55c-.24.07-.493.12-.755.152-.26.032-.545.047-.85.047-.984 0-1.652-.253-2.003-.757-.352-.504-.528-1.158-.528-1.963v-8.308h-1.7V42.45h1.7v-3.505zm6.082 3.563h2.05v1.664c.423-.57.884-1.012 1.384-1.324.71-.47 1.547-.703 2.508-.703 1.422 0 2.63.544 3.62 1.634.993 1.09 1.49 2.646 1.49 4.67 0 2.734-.716 4.687-2.145 5.86-.907.74-1.96 1.112-3.164 1.112-.947 0-1.74-.207-2.38-.62-.375-.236-.793-.638-1.254-1.208v6.41h-2.11V42.508zm7.916 9.838c.653-.825.98-2.057.98-3.698 0-1-.146-1.86-.435-2.578-.547-1.383-1.547-2.074-3-2.074-1.46 0-2.46.73-3 2.19-.29.783-.433 1.775-.433 2.978 0 .97.144 1.793.433 2.473.547 1.297 1.547 1.945 3 1.945.985 0 1.803-.412 2.455-1.236zm6.71-9.733h2.45v2.555h-2.45v-2.555zm0 9.832h2.45V55h-2.45v-2.555zm9.468-14.66h1.78L216.48 55h-1.78l5.46-17.215zm6.668 0h1.78L223.15 55h-1.78l5.46-17.215zm10.57 5.01c.836.418 1.473.96 1.91 1.623.422.633.704 1.37.844 2.215.125.578.188 1.5.188 2.765h-9.2c.04 1.274.34 2.295.903 3.065.562.77 1.434 1.154 2.613 1.154 1.102 0 1.98-.363 2.637-1.09.375-.422.64-.91.797-1.465h2.074c-.055.46-.236.975-.545 1.542-.31.566-.655 1.03-1.038 1.388-.64.625-1.434 1.047-2.38 1.266-.507.125-1.08.187-1.722.187-1.562 0-2.886-.568-3.972-1.705-1.086-1.136-1.63-2.728-1.63-4.775 0-2.016.548-3.652 1.642-4.91 1.093-1.258 2.523-1.887 4.29-1.887.89 0 1.752.21 2.588.627zm.774 4.928c-.086-.914-.285-1.645-.598-2.192-.578-1.014-1.543-1.522-2.894-1.522-.97 0-1.782.35-2.438 1.05-.656.698-1.004 1.587-1.043 2.665h6.972zm3.562-5.274h2.73l2.884 4.417 2.918-4.418 2.566.058-4.23 6.058L253.02 55h-2.696l-3.117-4.71-3.023 4.71h-2.672l4.418-6.434-4.196-6.117zm19.922 4.945c.485-.063.81-.266.973-.61.093-.187.14-.457.14-.808 0-.72-.256-1.24-.768-1.565-.512-.324-1.244-.486-2.197-.486-1.102 0-1.883.297-2.344.89-.257.33-.425.817-.503 1.465h-1.97c.04-1.546.542-2.622 1.507-3.227.965-.606 2.084-.908 3.358-.908 1.476 0 2.675.28 3.597.843.913.563 1.37 1.438 1.37 2.625v7.23c0 .22.045.395.135.528.09.134.28.2.568.2.094 0 .2-.006.317-.017.117-.012.242-.03.375-.053v1.56c-.328.092-.578.15-.75.174-.172.024-.406.036-.703.036-.727 0-1.254-.258-1.582-.774-.172-.273-.293-.66-.364-1.16-.43.562-1.046 1.05-1.85 1.465-.806.415-1.693.622-2.66.622-1.165 0-2.117-.354-2.855-1.06-.737-.708-1.106-1.592-1.106-2.655 0-1.164.363-2.066 1.09-2.707.726-.64 1.68-1.035 2.86-1.184l3.362-.42zm-4.44 5.707c.444.35.97.527 1.58.527.743 0 1.462-.173 2.157-.517 1.172-.57 1.758-1.504 1.758-2.8v-1.7c-.257.164-.59.3-.995.41-.406.11-.805.188-1.195.235l-1.278.164c-.765.1-1.34.262-1.722.48-.65.368-.973.953-.973 1.758 0 .61.223 1.09.668 1.442zm11.06-10.653h2.087v1.78c.5-.617.953-1.066 1.36-1.347.695-.477 1.484-.715 2.367-.715 1 0 1.805.246 2.414.738.344.282.656.696.937 1.242.47-.67 1.02-1.17 1.654-1.494.633-.324 1.343-.486 2.133-.486 1.687 0 2.835.61 3.445 1.828.328.656.492 1.54.492 2.65V55h-2.19v-8.72c0-.835-.21-1.41-.628-1.72-.418-.314-.928-.47-1.53-.47-.828 0-1.54.277-2.138.832-.598.555-.897 1.48-.897 2.777V55h-2.143v-8.19c0-.853-.102-1.474-.305-1.865-.32-.586-.918-.88-1.793-.88-.798 0-1.522.31-2.175.927-.652.617-.978 1.735-.978 3.352V55h-2.11V42.45zm19.83.058h2.05v1.664c.422-.57.883-1.012 1.383-1.324.71-.47 1.546-.703 2.507-.703 1.422 0 2.63.544 3.62 1.634.993 1.09 1.49 2.646 1.49 4.67 0 2.734-.716 4.687-2.145 5.86-.907.74-1.96 1.112-3.164 1.112-.946 0-1.74-.207-2.38-.62-.374-.236-.792-.638-1.253-1.208v6.41h-2.11V42.508zm7.915 9.838c.654-.825.98-2.057.98-3.698 0-1-.145-1.86-.434-2.578-.546-1.383-1.546-2.074-3-2.074-1.46 0-2.46.73-3 2.19-.29.783-.433 1.775-.433 2.978 0 .97.144 1.793.433 2.473.547 1.297 1.547 1.945 3 1.945.985 0 1.803-.412 2.455-1.236zm5.656-14.56h2.11V55h-2.11V37.785zm13.09 5.01c.836.417 1.472.958 1.91 1.622.422.633.703 1.37.844 2.215.125.578.187 1.5.187 2.765h-9.2c.04 1.274.34 2.295.903 3.065s1.434 1.154 2.613 1.154c1.102 0 1.98-.363 2.637-1.09.375-.422.64-.91.797-1.465h2.074c-.053.46-.235.975-.544 1.542-.308.566-.654 1.03-1.037 1.388-.64.625-1.434 1.047-2.38 1.266-.508.125-1.082.187-1.722.187-1.563 0-2.887-.568-3.973-1.705-1.086-1.136-1.63-2.728-1.63-4.775 0-2.016.548-3.652 1.642-4.91 1.093-1.258 2.523-1.887 4.29-1.887.89 0 1.753.21 2.59.627zm.773 4.927c-.087-.914-.286-1.645-.6-2.192-.577-1.014-1.542-1.522-2.893-1.522-.97 0-1.78.35-2.438 1.05-.657.698-1.005 1.587-1.044 2.665h6.973zm5.26 4.722h2.45V55h-2.45v-2.555zm14.456-9.328c.887.688 1.42 1.87 1.6 3.55h-2.05c-.126-.772-.41-1.415-.857-1.927-.446-.51-1.16-.767-2.145-.767-1.344 0-2.305.656-2.883 1.968-.375.853-.563 1.904-.563 3.154 0 1.258.265 2.316.796 3.176.532.86 1.367 1.29 2.508 1.29.875 0 1.568-.27 2.08-.804.512-.535.865-1.268 1.06-2.197h2.05c-.233 1.663-.82 2.88-1.756 3.65-.938.77-2.137 1.153-3.598 1.153-1.64 0-2.95-.6-3.926-1.8-.976-1.198-1.465-2.696-1.465-4.493 0-2.203.535-3.918 1.605-5.144 1.07-1.227 2.433-1.84 4.09-1.84 1.414 0 2.564.344 3.45 1.03zm12.873.586c1.116 1.078 1.675 2.664 1.675 4.758 0 2.024-.492 3.696-1.477 5.017-.984 1.32-2.512 1.98-4.582 1.98-1.726 0-3.098-.584-4.113-1.752-1.016-1.168-1.524-2.736-1.524-4.705 0-2.11.535-3.79 1.605-5.04 1.07-1.25 2.508-1.874 4.312-1.874 1.618 0 2.985.54 4.102 1.617zm-1.308 8.35c.52-1.06.78-2.237.78-3.533 0-1.172-.188-2.125-.563-2.86-.595-1.156-1.618-1.734-3.07-1.734-1.29 0-2.228.492-2.814 1.476-.586.985-.88 2.172-.88 3.563 0 1.336.294 2.45.88 3.34.586.89 1.516 1.336 2.79 1.336 1.398 0 2.357-.53 2.876-1.587zm5.49-9.604h2.086v1.78c.5-.617.954-1.066 1.36-1.347.695-.477 1.484-.715 2.367-.715 1 0 1.805.246 2.414.738.343.282.655.696.937 1.242.468-.67 1.02-1.17 1.652-1.494.632-.324 1.343-.486 2.132-.486 1.687 0 2.836.61 3.445 1.828.328.656.492 1.54.492 2.65V55h-2.192v-8.72c0-.835-.21-1.41-.627-1.72-.417-.314-.927-.47-1.528-.47-.83 0-1.54.277-2.14.832-.597.555-.896 1.48-.896 2.777V55h-2.144v-8.19c0-.853-.102-1.474-.305-1.865-.32-.586-.918-.88-1.793-.88-.797 0-1.52.31-2.174.927-.652.617-.978 1.735-.978 3.352V55h-2.11V42.45z" fill="#7F8C8D"/><path d="M827.994 503c-2.758 0-4.994 2.24-4.994 4.998v154.004c0 2.76 2.246 4.998 4.994 4.998h655.012c2.758 0 4.994-2.24 4.994-4.998V507.998c0-2.76-2.246-4.998-4.994-4.998H827.994zM823 557v56.292l-21-28.146L823 557zM827.994 999c-2.758 0-4.994 2.238-4.994 4.993v128.014c0 2.758 2.246 4.993 4.994 4.993h655.012c2.758 0 4.994-2.238 4.994-4.993v-128.014c0-2.758-2.246-4.993-4.994-4.993H827.994zM823 1040v56.292l-21-28.146L823 1040zM827.994 220c-2.758 0-4.994 2.238-4.994 4.993v128.014c0 2.758 2.246 4.993 4.994 4.993h655.012c2.758 0 4.994-2.238 4.994-4.993V224.993c0-2.758-2.246-4.993-4.994-4.993H827.994zM823 261v56.292l-21-28.146L823 261zM827.994 1517c-2.758 0-4.994 2.238-4.994 4.993v128.014c0 2.758 2.246 4.993 4.994 4.993h655.012c2.758 0 4.994-2.238 4.994-4.993v-128.014c0-2.758-2.246-4.993-4.994-4.993H827.994zM823 1558v56.292l-21-28.146L823 1558z" fill="#C3ECFF"/><text fill="#34495E" font-family="Helvetica" font-size="32"><tspan x="868" y="282">User performs an action (clicks a button) </tspan> <tspan x="868" y="320">which is sent to the controller manager.</tspan></text><text fill="#34495E" font-family="Helvetica" font-size="32"><tspan x="868" y="559">Controller manager receives the action </tspan> <tspan x="868" y="597">and routes it to the appropriate </tspan> <tspan x="868" y="635">controller.</tspan></text><text fill="#34495E" font-family="Helvetica" font-size="32"><tspan x="868" y="1061">Controller reacts to the command and </tspan> <tspan x="868" y="1099">updates the application state.</tspan></text><text fill="#34495E" font-family="Helvetica" font-size="32"><tspan x="868" y="1579">Application state changes are </tspan> <tspan x="868" y="1617">propagated to the DOM.</tspan></text></g></svg>