<?xml version="1.0" encoding="UTF-8" standalone="no"?>
<svg width="1802px" height="900px" viewBox="0 0 1802 900" version="1.1" xmlns="http://www.w3.org/2000/svg" xmlns:xlink="http://www.w3.org/1999/xlink" xmlns:sketch="http://www.bohemiancoding.com/sketch/ns">
    <title>controller_manager</title>
    <description>Created with Sketch (http://www.bohemiancoding.com/sketch)</description>
    <defs></defs>
    <g id="Page-1" stroke="none" stroke-width="1" fill="none" fill-rule="evenodd" sketch:type="MSPage">
        <path d="M1154,791.5 C1154,741.944631 1113.75503,702 1064.5,702 C1014.94463,702 975,741.944631 975,791.5 C975,798.550813 975.818532,805.416995 977.366615,812.006923 L970.300633,852.174603 C970,853.380952 970,854.285714 970,855.492063 C970,866.650794 979.018987,876 990.142405,876 C996.155063,876 1001.86709,872.984127 1005.77532,868.460317 L1010.33445,862.743312 C1025.35554,874.18966 1044.1146,881 1064.5,881 C1085.07723,881 1104.08193,873.976004 1119.23664,862.205464 L1124.22468,868.460317 C1128.13291,872.984127 1133.84494,876 1139.85759,876 C1150.98101,876 1160,866.650794 1160,855.793651 C1160,854.285714 1160,853.380952 1159.69937,852.174603 L1152.18294,809.446321 C1153.37412,803.64472 1154,797.642421 1154,791.5 Z M1154,581.5 C1154,531.944631 1113.75503,492 1064.5,492 C1014.94463,492 975,531.944631 975,581.5 C975,588.550813 975.818532,595.416995 977.366615,602.006923 L970.300633,642.174603 C970,643.380952 970,644.285714 970,645.492063 C970,656.650794 979.018987,666 990.142405,666 C996.155063,666 1001.86709,662.984127 1005.77532,658.460317 L1010.33445,652.743312 C1025.35554,664.18966 1044.1146,671 1064.5,671 C1085.07723,671 1104.08193,663.976004 1119.23664,652.205464 L1124.22468,658.460317 C1128.13291,662.984127 1133.84494,666 1139.85759,666 C1150.98101,666 1160,656.650794 1160,645.793651 C1160,644.285714 1160,643.380952 1159.69937,642.174603 L1152.18294,599.446321 C1153.37412,593.64472 1154,587.642421 1154,581.5 Z M184,581.5 C184,531.944631 143.755034,492 94.5,492 C44.9446309,492 5,531.944631 5,581.5 C5,588.550813 5.8185319,595.416995 7.36661538,602.006923 L0.300632911,642.174603 C0,643.380952 0,644.285714 0,645.492063 C0,656.650794 9.01898734,666 20.1424051,666 C26.1550633,666 31.8670886,662.984127 35.7753165,658.460317 L40.3344475,652.743312 C55.3555408,664.18966 74.1145954,671 94.5,671 C115.077232,671 134.081928,663.976004 149.236636,652.205464 L154.224684,658.460317 C158.132911,662.984127 163.844937,666 169.857595,666 C180.981013,666 190,656.650794 190,645.793651 C190,644.285714 190,643.380952 189.699367,642.174603 L182.182944,599.446321 C183.374122,593.64472 184,587.642421 184,581.5 Z M185,791.5 C185,741.944631 144.988235,702 95.6504202,702 C46.0117647,702 6,741.944631 6,791.5 C6,797.8526 6.66556357,804.055326 7.93150383,810.041165 L0.301737757,852.174603 C0.301737757,853.380952 0,854.285714 0,855.492063 C0,866.650794 9.0521327,876 20.2164297,876 C26.5529226,876 32.28594,872.984127 36.2085308,868.460317 L41.0158403,862.454177 C56.1249235,874.074882 75.0594023,881 95.6504202,881 C116.184243,881 135.102675,874.02906 150.19361,862.338876 L155.093207,868.460317 C158.71406,872.984127 164.447077,876 170.78357,876 C181.947867,876 191,866.650794 191,855.793651 C191,854.285714 191,853.380952 190.698262,852.174603 L183.172057,809.547374 C184.370501,803.714429 185,797.678091 185,791.5 Z M689.654756,39 C693.267998,39 696.279033,40.5029542 698.386758,42.6070901 C700.795586,44.711226 702,48.0177253 702,51.3242245 L702,433.675775 C702,436.982275 700.795586,440.288774 698.386758,442.39291 C696.279033,444.797637 693.267998,446 689.654756,446 L141.345244,446 C138.033106,446 135.02207,444.797637 132.613242,442.39291 C130.505518,440.288774 129,436.982275 129,433.675775 L129,51.3242245 C129,48.0177253 130.505518,44.711226 132.613242,42.6070901 C135.02207,40.5029542 138.033106,39 141.345244,39 L689.654756,39 Z M232,535.993229 L232,626.006771 C232,628.764455 234.232614,631 237.006818,631 L826.993182,631 C829.758371,631 832,628.77115 832,626.006771 L832,535.993229 C832,533.235545 829.767386,531 826.993182,531 L237.006818,531 C234.241629,531 232,533.22885 232,535.993229 Z M232,609 L209,581 L232,553 L232,609 Z M232,746.993229 L232,837.006771 C232,839.764455 234.232614,842 237.006818,842 L826.993182,842 C829.758371,842 832,839.77115 832,837.006771 L832,746.993229 C832,744.235545 829.767386,742 826.993182,742 L237.006818,742 C234.241629,742 232,744.22885 232,746.993229 Z M232,820 L209,792 L232,764 L232,820 Z M1659.65476,39 C1663.268,39 1666.27903,40.5029542 1668.38676,42.6070901 C1670.79559,44.711226 1672,48.0177253 1672,51.3242245 L1672,433.675775 C1672,436.982275 1670.79559,440.288774 1668.38676,442.39291 C1666.27903,444.797637 1663.268,446 1659.65476,446 L1111.34524,446 C1108.03311,446 1105.02207,444.797637 1102.61324,442.39291 C1100.50552,440.288774 1099,436.982275 1099,433.675775 L1099,51.3242245 C1099,48.0177253 1100.50552,44.711226 1102.61324,42.6070901 C1105.02207,40.5029542 1108.03311,39 1111.34524,39 L1659.65476,39 Z M1202,535.993229 L1202,626.006771 C1202,628.764455 1204.23261,631 1207.00682,631 L1796.99318,631 C1799.75837,631 1802,628.77115 1802,626.006771 L1802,535.993229 C1802,533.235545 1799.76739,531 1796.99318,531 L1207.00682,531 C1204.24163,531 1202,533.22885 1202,535.993229 Z M1202,609 L1179,581 L1202,553 L1202,609 Z M1202,746.993229 L1202,837.006771 C1202,839.764455 1204.23261,842 1207.00682,842 L1796.99318,842 C1799.75837,842 1802,839.77115 1802,837.006771 L1802,746.993229 C1802,744.235545 1799.76739,742 1796.99318,742 L1207.00682,742 C1204.24163,742 1202,744.22885 1202,746.993229 Z M1202,820 L1179,792 L1202,764 L1202,820 Z" id="Path" fill-opacity="0.1" fill="#000000" sketch:type="MSShapeGroup"></path>
        <g id="Group" sketch:type="MSLayerGroup" transform="translate(0.000000, 29.000000)">
            <path d="M141.1216,4 L688.8784,4 C693.3904,4 697,7.61085973 697,12.1244344 L697,394.875566 C697,399.38914 693.3904,403 688.8784,403 L141.1216,403 C136.9104,403 133,399.38914 133,394.875566 L133,12.1244344 C133,7.61085973 136.9104,4 141.1216,4 L141.1216,4 Z" id="Shape" fill="#BDC3C7" sketch:type="MSShapeGroup"></path>
            <path d="M141.345244,0 L689.654756,0 C693.267998,0 696.279033,1.50295421 698.386758,3.6070901 L698.386758,3.6070901 C700.795586,5.711226 702,9.01772526 702,12.3242245 L702,394.675775 C702,397.982275 700.795586,401.288774 698.386758,403.39291 L698.386758,403.39291 C696.279033,405.797637 693.267998,407 689.654756,407 L141.345244,407 C138.033106,407 135.02207,405.797637 132.613242,403.39291 C130.505518,401.288774 129,397.982275 129,394.675775 L129,12.3242245 C129,9.01772526 130.505518,5.711226 132.613242,3.6070901 L132.613242,3.6070901 C135.02207,1.50295421 138.033106,0 141.345244,0 L141.345244,0 Z M690.084507,8 L141.614301,8 C140.710726,8 139.807151,8.6009245 138.903575,9.201849 L138.903575,9.201849 C138.301192,9.8027735 138,11.0046225 138,11.9060092 L138,394.093991 C138,395.29584 138.301192,396.197227 138.903575,396.798151 C139.807151,397.399076 140.710726,398 141.614301,398 L690.084507,398 C691.289274,398 692.192849,397.399076 692.795233,396.798151 L692.795233,396.798151 C693.698808,396.197227 694,395.29584 694,394.093991 L694,11.9060092 C694,11.0046225 693.698808,9.8027735 692.795233,9.201849 L692.795233,9.201849 C692.192849,8.6009245 691.289274,8 690.084507,8 L690.084507,8 Z" id="Shape" fill="#7F8C8D" sketch:type="MSShapeGroup"></path>
            <path d="M673.992524,26 C675.79701,26 677,27.5172414 677,29.337931 L677,66.662069 C677,68.4827586 675.79701,70 673.992524,70 L157.308223,70 C155.503738,70 154,68.4827586 154,66.662069 L154,29.337931 C154,27.5172414 155.503738,26 157.308223,26 L673.992524,26 Z" id="Shape" fill="#FFFFFF" sketch:type="MSShapeGroup"></path>
            <path d="M157.418472,24 L674.581528,24 C676.086659,24 677.290764,24.6037736 678.193843,25.509434 L678.193843,25.509434 C679.397948,26.4150943 680,27.9245283 680,29.4339623 L680,66.5660377 C680,68.0754717 679.397948,69.5849057 678.193843,70.490566 C677.290764,71.3962264 676.086659,72 674.581528,72 L157.418472,72 C155.913341,72 154.709236,71.3962264 153.505131,70.490566 C152.602052,69.5849057 152,68.0754717 152,66.5660377 L152,29.4339623 C152,27.9245283 152.602052,26.4150943 153.505131,25.509434 C154.709236,24.6037736 155.913341,24 157.418472,24 L157.418472,24 Z M674.097391,28 L157.203478,28 C156.902609,28 156.601739,28.3053435 156.30087,28.3053435 C156.30087,28.610687 156,28.9160305 156,29.221374 L156,66.778626 C156,67.0839695 156.30087,67.389313 156.30087,67.6946565 C156.601739,67.6946565 156.902609,68 157.203478,68 L674.097391,68 C674.398261,68 674.69913,67.6946565 674.69913,67.6946565 C675,67.389313 675,67.0839695 675,66.778626 L675,29.221374 C675,28.9160305 675,28.610687 674.69913,28.3053435 L674.69913,28.3053435 C674.69913,28.3053435 674.398261,28 674.097391,28 L674.097391,28 Z" id="Shape" fill="#7F8C8D" sketch:type="MSShapeGroup"></path>
            <path d="M157.279503,26 L202,26 L202,70 L157.279503,70 C155.490683,70 154,68.4827586 154,66.662069 L154,29.337931 C154,27.5172414 155.490683,26 157.279503,26 L157.279503,26 Z" id="Shape" fill="#7F8C8D" sketch:type="MSShapeGroup"></path>
            <path d="M157.451429,24 L202.88,24 L205,24 L205,26.1132075 L205,69.8867925 L205,72 L202.88,72 L157.451429,72 C155.937143,72 154.725714,71.3962264 153.514286,70.490566 C152.605714,69.5849057 152,68.0754717 152,66.5660377 L152,29.4339623 C152,27.9245283 152.605714,26.4150943 153.514286,25.509434 C154.725714,24.6037736 155.937143,24 157.451429,24 L157.451429,24 Z M200,28 L157.205479,28 C156.90411,28 156.60274,28.3053435 156.30137,28.3053435 C156.30137,28.610687 156,28.9160305 156,29.221374 L156,66.778626 C156,67.0839695 156.30137,67.389313 156.30137,67.6946565 C156.60274,67.6946565 156.90411,68 157.205479,68 L200,68 L200,28 L200,28 Z" id="Shape" fill="#7F8C8D" sketch:type="MSShapeGroup"></path>
            <path d="M168,47.1481481 L178.347826,40.9259259 L189,35 L189,47.1481481 L189,59 L178.347826,53.0740741 L168,47.1481481 Z" id="Shape" fill="#BDC3C7" sketch:type="MSShapeGroup"></path>
            <text id="http://example.com/" fill="#9B9B9B" sketch:type="MSTextLayer" font-family="Helvetica" font-size="22" font-weight="normal">
                <tspan x="216" y="55" fill="#000000">http://example.com/</tspan>
            </text>
            <text id="starred" fill="#4A4A4A" sketch:type="MSTextLayer" font-family="Helvetica" font-size="22" font-weight="bold">
                <tspan x="408" y="55" fill="#000000">starred</tspan>
            </text>
            <rect id="Rectangle-3" fill="#D8D8D8" sketch:type="MSShapeGroup" x="151" y="87" width="530" height="295"></rect>
            <rect id="Rectangle-4" fill="#FFFFFF" sketch:type="MSShapeGroup" x="163" y="101" width="506" height="38"></rect>
            <rect id="Rectangle-4" fill="#FFFFFF" sketch:type="MSShapeGroup" x="163" y="149" width="506" height="38"></rect>
            <rect id="Rectangle-4" fill="#FFFFFF" sketch:type="MSShapeGroup" x="163" y="197" width="506" height="38"></rect>
            <text id="Note-#1" fill="#888888" sketch:type="MSTextLayer" font-family="Helvetica" font-size="22" font-weight="normal">
                <tspan x="170" y="128" fill="#000000">Note </tspan>
                <tspan x="222.583008" y="128" font-weight="bold" fill="#000000">#1</tspan>
            </text>
            <text id="Note-#2" fill="#888888" sketch:type="MSTextLayer" font-family="Helvetica" font-size="22" font-weight="normal">
                <tspan x="170" y="176" fill="#000000">Note </tspan>
                <tspan x="222.583008" y="176" font-weight="bold" fill="#000000">#2</tspan>
            </text>
            <text id="Note-#3" fill="#888888" sketch:type="MSTextLayer" font-family="Helvetica" font-size="22" font-weight="normal">
                <tspan x="170" y="223" fill="#000000">Note </tspan>
                <tspan x="222.583008" y="223" font-weight="bold" fill="#000000">#3</tspan>
            </text>
            <g id="Shape-+-Shape-+-Shape" transform="translate(0.000000, 663.000000)" sketch:type="MSShapeGroup">
                <path d="M95.6504202,0 C144.988235,0 185,39.9446309 185,89.5 C185,138.755034 144.988235,179 95.6504202,179 C46.0117647,179 6,138.755034 6,89.5 C6,39.9446309 46.0117647,0 95.6504202,0 L95.6504202,0 Z" id="Shape" fill="#C0392B"></path>
                <path d="M178.93049,83.5238095 C178.93049,83.5238095 178.93049,83.2222222 178.628752,83.2222222 C176.516588,70.5555556 167.766193,60.3015873 156.300158,55.4761905 L156.300158,43.7142857 C156.300158,42.2063492 155.093207,41 153.28278,41 L118.582938,41 C117.07425,41 115.867299,42.2063492 115.867299,43.7142857 L115.867299,63.015873 C115.565561,63.3174603 114.962085,63.6190476 114.660348,63.9206349 L76.3396524,63.9206349 L75.4344392,63.015873 L75.4344392,43.7142857 C75.4344392,42.2063492 73.9257504,41 72.4170616,41 L37.7172196,41 C36.2085308,41 34.699842,42.2063492 34.699842,43.7142857 L34.699842,55.4761905 C23.2338073,60.3015873 14.4834123,70.5555556 12.371248,83.2222222 L12.371248,83.5238095 L0.301737757,150.174603 C0.301737757,151.380952 0,152.285714 0,153.492063 C0,164.650794 9.0521327,174 20.2164297,174 C26.5529226,174 32.28594,170.984127 36.2085308,166.460317 L53.1058452,145.349206 C56.7266983,148.666667 61.2527646,150.777778 66.6840442,150.777778 C77.8483412,150.777778 86.9004739,141.730159 86.9004739,130.571429 C86.9004739,124.84127 84.4865719,119.714286 80.563981,116.095238 L110.436019,116.095238 C106.513428,119.714286 104.099526,124.84127 104.099526,130.571429 C104.099526,141.730159 113.151659,150.777778 124.315956,150.777778 C129.747235,150.777778 134.575039,148.666667 138.195893,145.349206 L155.093207,166.460317 C158.71406,170.984127 164.447077,174 170.78357,174 C181.947867,174 191,164.650794 191,153.793651 C191,152.285714 191,151.380952 190.698262,150.174603 L178.93049,83.5238095 L178.93049,83.5238095 Z" id="Shape" fill="#ECF0F1"></path>
                <path d="M57.566474,98.566474 L66.283237,98.566474 C71.0924855,98.566474 75,94.6589595 75,90.150289 C75,85.3410405 71.0924855,81.433526 66.283237,81.433526 L57.566474,81.433526 L57.566474,72.716763 C57.566474,67.9075145 53.6589595,64 48.849711,64 C44.0404624,64 40.433526,67.9075145 40.433526,72.716763 L40.433526,81.433526 L31.716763,81.433526 C26.9075145,81.433526 23,85.3410405 23,90.150289 C23,94.6589595 26.9075145,98.566474 31.716763,98.566474 L40.433526,98.566474 L40.433526,107.283237 C40.433526,112.092486 44.0404624,116 48.849711,116 C53.6589595,116 57.566474,112.092486 57.566474,107.283237 L57.566474,98.566474 L57.566474,98.566474 Z M178.93049,83.5238095 C178.93049,83.5238095 178.93049,83.2222222 178.628752,83.2222222 C176.516588,70.5555556 167.766193,60.3015873 156.300158,55.4761905 L156.300158,43.7142857 C156.300158,42.2063492 155.093207,41 153.28278,41 L118.582938,41 C117.07425,41 115.867299,42.2063492 115.867299,43.7142857 L115.867299,63.015873 C115.565561,63.3174603 114.962085,63.6190476 114.660348,63.9206349 L76.3396524,63.9206349 L75.4344392,63.015873 L75.4344392,43.7142857 C75.4344392,42.2063492 73.9257504,41 72.4170616,41 L37.7172196,41 C36.2085308,41 34.699842,42.2063492 34.699842,43.7142857 L34.699842,55.4761905 C23.2338073,60.3015873 14.4834123,70.5555556 12.371248,83.2222222 L12.371248,83.5238095 L0.301737757,150.174603 C0.301737757,151.380952 0,152.285714 0,153.492063 C0,164.650794 9.0521327,174 20.2164297,174 C26.5529226,174 32.28594,170.984127 36.2085308,166.460317 L53.1058452,145.349206 C56.7266983,148.666667 61.2527646,150.777778 66.6840442,150.777778 C77.8483412,150.777778 86.9004739,141.730159 86.9004739,130.571429 C86.9004739,124.84127 84.4865719,119.714286 80.563981,116.095238 L110.436019,116.095238 C106.513428,119.714286 104.099526,124.84127 104.099526,130.571429 C104.099526,141.730159 113.151659,150.777778 124.315956,150.777778 C129.747235,150.777778 134.575039,148.666667 138.195893,145.349206 L155.093207,166.460317 C158.71406,170.984127 164.447077,174 170.78357,174 C181.947867,174 191,164.650794 191,153.793651 C191,152.285714 191,151.380952 190.698262,150.174603 L178.93049,83.5238095 L178.93049,83.5238095 Z M122,47 L151,47 L151,54.0769231 C147.979167,53.1538462 145.260417,52.8461538 142.239583,52.8461538 C134.6875,52.8461538 127.739583,55 122,59 L122,47 L122,47 Z M110,70 C106.412371,75.6716418 104.020619,82.5373134 104.020619,90 C104.020619,97.1641791 106.412371,104.029851 110,110 L81,110 C84.8865979,104.029851 86.9793814,97.1641791 86.9793814,90 C86.9793814,82.5373134 84.8865979,75.6716418 81,70 L110,70 L110,70 Z M41,47 L70,47 L70,59 C64.2,55 57.1789474,52.8461538 49.5473684,52.8461538 C46.4947368,52.8461538 43.7473684,53.1538462 41,54.0769231 L41,47 L41,47 Z M31.5594406,162.843602 C28.8531469,166.180095 24.6433566,168 20.1328671,168 C12.3146853,168 6,161.630332 6,153.440758 L6,151.014218 L14.4195804,104 C19.5314685,116.739336 31.8601399,126.445498 46.2937063,127.35545 L46.2937063,130.388626 C46.2937063,134.028436 47.1958042,137.668246 49,140.701422 L31.5594406,162.843602 L31.5594406,162.843602 Z M67.4407583,145 C59.2511848,145 52.8815166,138.354167 52.8815166,130.5 C52.8815166,128.989583 53.1848341,127.177083 53.7914692,125.666667 C54.0947867,124.760417 53.7914692,123.552083 53.4881517,122.947917 C52.8815166,122.041667 51.971564,121.739583 51.0616114,121.739583 L51.0616114,121.739583 L49.8483412,121.739583 C32.2559242,121.739583 18,107.541667 18,90.0208333 C18,72.1979167 32.2559242,58 49.8483412,58 C67.4407583,58 82,72.5 82,90.0208333 C82,98.4791667 78.6635071,106.635417 72.2938389,112.677083 C71.6872038,113.28125 71.3838863,114.1875 71.6872038,115.09375 C71.6872038,116 72.2938389,116.90625 73.2037915,117.208333 C78.6635071,119.625 82,124.760417 82,130.5 C82,138.354167 75.3270142,145 67.4407583,145 L67.4407583,145 Z M124.1,145 C116.3,145 110,138.354167 110,130.5 C110,124.760417 113.3,119.625 118.4,117.208333 C119.3,116.90625 119.9,116 120.2,115.09375 C120.2,114.1875 119.9,113.28125 119.3,112.677083 C113.3,106.635417 110,98.4791667 110,90.0208333 C110,72.1979167 124.1,58 141.5,58 C158.9,58 173,72.1979167 173,90.0208333 C173,107.541667 158.9,121.739583 141.2,121.739583 L140.6,121.739583 C139.7,121.739583 138.8,122.041667 138.2,122.947917 C137.6,123.552083 137.3,124.760417 137.6,125.666667 C138.2,127.177083 138.5,128.989583 138.5,130.5 C138.5,138.354167 132.2,145 124.1,145 L124.1,145 Z M170.666667,168 C166.1875,168 162.305556,166.180095 159.319444,162.843602 L142,140.701422 C143.791667,137.668246 144.986111,134.028436 144.986111,130.388626 C144.986111,129.478673 144.6875,128.265403 144.6875,127.35545 C159.020833,126.445498 171.263889,116.739336 176.340278,104 L184.701389,151.014218 C185,151.924171 185,152.834123 185,153.440758 C185,161.630332 178.430556,168 170.666667,168 L170.666667,168 Z M124.350877,122 C119.877193,122 116,125.810345 116,130.5 C116,135.189655 119.877193,139 124.350877,139 C129.122807,139 133,135.189655 133,130.5 C133,125.810345 129.122807,122 124.350877,122 L124.350877,122 Z M124.842105,134 C123.263158,134 122,132.736842 122,131.157895 C122,129.578947 123.263158,128 124.842105,128 C126.736842,128 128,129.578947 128,131.157895 C128,132.736842 126.736842,134 124.842105,134 L124.842105,134 Z M67,122 C62.0344828,122 58,125.810345 58,130.5 C58,135.189655 62.0344828,139 67,139 C71.9655172,139 76,135.189655 76,130.5 C76,125.810345 71.9655172,122 67,122 L67,122 Z M67.1578947,134 C65.2631579,134 64,132.736842 64,131.157895 C64,129.578947 65.5789474,128 67.1578947,128 C68.7368421,128 70,129.578947 70,131.157895 C70,132.736842 68.7368421,134 67.1578947,134 L67.1578947,134 Z M151,107.5 C151,102.810345 146.965517,99 142,99 C137.034483,99 133,102.810345 133,107.5 C133,112.189655 137.034483,116 142,116 C146.965517,116 151,112.189655 151,107.5 L151,107.5 Z M139,107.842105 C139,106.263158 140.5,105 142,105 C143.5,105 145,106.263158 145,107.842105 C145,109.421053 143.5,111 142,111 C140.5,111 139,109.421053 139,107.842105 L139,107.842105 Z M133,89.6491228 C133,84.877193 129.122807,81 124.350877,81 C119.877193,81 116,84.877193 116,89.6491228 C116,94.122807 119.877193,98 124.350877,98 C129.122807,98 133,94.122807 133,89.6491228 L133,89.6491228 Z M122,90.1578947 C122,88.2631579 123.263158,87 124.842105,87 C126.736842,87 128,88.2631579 128,90.1578947 C128,91.7368421 126.736842,93 124.842105,93 C123.263158,93 122,91.7368421 122,90.1578947 L122,90.1578947 Z M159.350877,98 C164.122807,98 168,94.122807 168,89.6491228 C168,84.877193 164.122807,81 159.350877,81 C154.877193,81 151,84.877193 151,89.6491228 C151,94.122807 154.877193,98 159.350877,98 L159.350877,98 Z M158.842105,87 C160.736842,87 162,88.2631579 162,90.1578947 C162,91.7368421 160.736842,93 158.842105,93 C157.263158,93 156,91.7368421 156,90.1578947 C156,88.2631579 157.263158,87 158.842105,87 L158.842105,87 Z M142,81 C146.965517,81 151,77.1896552 151,72.5 C151,67.8103448 146.965517,64 142,64 C137.034483,64 133,67.8103448 133,72.5 C133,77.1896552 137.034483,81 142,81 L142,81 Z M142,70 C143.5,70 145,71.2631579 145,72.8421053 C145,74.4210526 143.5,76 142,76 C140.5,76 139,74.4210526 139,72.8421053 C139,71.2631579 140.5,70 142,70 L142,70 Z M54.6716418,92.6865672 C53.1791045,92.6865672 51.9850746,94.1791045 51.9850746,95.6716418 L51.9850746,107.014925 C51.9850746,108.507463 50.7910448,110 49,110 C47.5074627,110 46.3134328,108.507463 46.3134328,107.014925 L46.3134328,95.6716418 C46.3134328,94.1791045 44.8208955,92.6865672 43.3283582,92.6865672 L31.9850746,92.6865672 C30.1940299,92.6865672 29,91.4925373 29,90 C29,88.2089552 30.1940299,87.0149254 31.9850746,87.0149254 L43.3283582,87.0149254 C44.8208955,87.0149254 46.3134328,85.8208955 46.3134328,84.0298507 L46.3134328,72.6865672 C46.3134328,71.1940299 47.5074627,70 49,70 C50.7910448,70 51.9850746,71.1940299 51.9850746,72.6865672 L51.9850746,84.0298507 C51.9850746,85.8208955 53.1791045,87.0149254 54.6716418,87.0149254 L66.3134328,87.0149254 C67.8059701,87.0149254 69,88.2089552 69,90 C69,91.4925373 67.8059701,92.6865672 66.3134328,92.6865672 L54.6716418,92.6865672 L54.6716418,92.6865672 Z" id="Shape" fill="#E74C3C"></path>
            </g>
            <g id="Shape-+-Shape-+-Shape" transform="translate(0.000000, 453.000000)" sketch:type="MSShapeGroup">
                <path d="M94.5,0 C143.755034,0 184,39.9446309 184,89.5 C184,138.755034 143.755034,179 94.5,179 C44.9446309,179 5,138.755034 5,89.5 C5,39.9446309 44.9446309,0 94.5,0 L94.5,0 Z" id="Shape" fill="#27AE60"></path>
                <path d="M177.974684,83.5238095 L177.974684,83.2222222 C175.56962,70.5555556 166.851266,60.3015873 155.427215,55.4761905 L155.427215,43.7142857 C155.427215,42.2063492 154.224684,41 152.721519,41 L118.148734,41 C116.344937,41 115.142405,42.2063492 115.142405,43.7142857 L115.142405,63.015873 L114.240506,63.9206349 L75.7594937,63.9206349 L74.8575949,63.015873 L74.8575949,43.7142857 C74.8575949,42.2063492 73.3544304,41 71.8512658,41 L37.278481,41 C35.7753165,41 34.5727848,42.2063492 34.5727848,43.7142857 L34.5727848,55.4761905 C22.8481013,60.3015873 14.4303797,70.5555556 12.0253165,83.2222222 L12.0253165,83.5238095 L0.300632911,150.174603 C0,151.380952 0,152.285714 0,153.492063 C0,164.650794 9.01898734,174 20.1424051,174 C26.1550633,174 31.8670886,170.984127 35.7753165,166.460317 L52.6107595,145.349206 C56.2183544,148.666667 61.028481,150.777778 66.1392405,150.777778 C77.2626582,150.777778 86.2816456,141.730159 86.2816456,130.571429 C86.2816456,124.84127 83.8765823,119.714286 79.9683544,116.095238 L109.731013,116.095238 C106.123418,119.714286 103.718354,124.84127 103.718354,130.571429 C103.718354,141.730159 112.737342,150.777778 123.860759,150.777778 C128.971519,150.777778 133.781646,148.666667 137.389241,145.349206 L154.224684,166.460317 C158.132911,170.984127 163.844937,174 169.857595,174 C180.981013,174 190,164.650794 190,153.793651 C190,152.285714 190,151.380952 189.699367,150.174603 L177.974684,83.5238095 L177.974684,83.5238095 Z" id="Shape" fill="#FFFFFF"></path>
                <path d="M57.566474,98.566474 L66.283237,98.566474 C71.0924855,98.566474 75,94.6589595 75,90.150289 C75,85.3410405 71.0924855,81.433526 66.283237,81.433526 L57.566474,81.433526 L57.566474,72.716763 C57.566474,67.9075145 53.6589595,64 49.150289,64 C44.3410405,64 40.433526,67.9075145 40.433526,72.716763 L40.433526,81.433526 L31.716763,81.433526 C26.9075145,81.433526 23,85.3410405 23,90.150289 C23,94.6589595 26.9075145,98.566474 31.716763,98.566474 L40.433526,98.566474 L40.433526,107.283237 C40.433526,112.092486 44.3410405,116 49.150289,116 C53.6589595,116 57.566474,112.092486 57.566474,107.283237 L57.566474,98.566474 L57.566474,98.566474 Z M177.974684,83.5238095 L177.974684,83.2222222 C175.56962,70.5555556 166.851266,60.3015873 155.427215,55.4761905 L155.427215,43.7142857 C155.427215,42.2063492 154.224684,41 152.721519,41 L118.148734,41 C116.344937,41 115.142405,42.2063492 115.142405,43.7142857 L115.142405,63.015873 L114.240506,63.9206349 L75.7594937,63.9206349 L74.8575949,63.015873 L74.8575949,43.7142857 C74.8575949,42.2063492 73.3544304,41 71.8512658,41 L37.278481,41 C35.7753165,41 34.5727848,42.2063492 34.5727848,43.7142857 L34.5727848,55.4761905 C22.8481013,60.3015873 14.4303797,70.5555556 12.0253165,83.2222222 L12.0253165,83.5238095 L0.300632911,150.174603 C0,151.380952 0,152.285714 0,153.492063 C0,164.650794 9.01898734,174 20.1424051,174 C26.1550633,174 31.8670886,170.984127 35.7753165,166.460317 L52.6107595,145.349206 C56.2183544,148.666667 61.028481,150.777778 66.1392405,150.777778 C77.2626582,150.777778 86.2816456,141.730159 86.2816456,130.571429 C86.2816456,124.84127 83.8765823,119.714286 79.9683544,116.095238 L109.731013,116.095238 C106.123418,119.714286 103.718354,124.84127 103.718354,130.571429 C103.718354,141.730159 112.737342,150.777778 123.860759,150.777778 C128.971519,150.777778 133.781646,148.666667 137.389241,145.349206 L154.224684,166.460317 C158.132911,170.984127 163.844937,174 169.857595,174 C180.981013,174 190,164.650794 190,153.793651 C190,152.285714 190,151.380952 189.699367,150.174603 L177.974684,83.5238095 L177.974684,83.5238095 Z M121,47 L150,47 L150,54.0769231 C147.28125,53.1538462 144.260417,52.8461538 141.239583,52.8461538 C133.989583,52.8461538 127.041667,55 121,59 L121,47 L121,47 Z M108.704082,70 C105.153061,75.6716418 103.081633,82.5373134 103.081633,90 C103.081633,97.1641791 105.153061,104.029851 109,110 L80,110 C83.8469388,104.029851 85.9183673,97.1641791 85.9183673,90 C85.9183673,82.5373134 83.8469388,75.6716418 80,70 L108.704082,70 L108.704082,70 Z M40,47 L69,47 L69,59 C62.9583333,55 56.0104167,52.8461538 48.7604167,52.8461538 C45.7395833,52.8461538 42.71875,53.1538462 40,54.0769231 L40,47 L40,47 Z M31.3819444,162.843602 C28.6944444,166.180095 24.5138889,168 20.3333333,168 C12.2708333,168 6,161.630332 6,153.440758 L6,151.014218 L14.3611111,104 C19.7361111,116.739336 31.6805556,126.445498 46.3125,127.35545 C46.0138889,128.265403 46.0138889,129.478673 46.0138889,130.388626 C46.0138889,134.028436 47.2083333,137.668246 49,140.701422 L31.3819444,162.843602 L31.3819444,162.843602 Z M65.6682464,145 C57.9052133,145 51.3364929,138.354167 51.3364929,130.5 C51.3364929,128.989583 51.6350711,127.177083 52.2322275,125.666667 C52.5308057,124.760417 52.5308057,123.552083 51.9336493,122.947917 C51.3364929,122.041667 50.4407583,121.739583 49.5450237,121.739583 L49.5450237,121.739583 L48.6492891,121.739583 C31.0331754,121.739583 17,107.541667 17,90.0208333 C17,72.1979167 31.0331754,58 48.6492891,58 C65.9668246,58 80,72.5 80,90.0208333 C80,98.4791667 76.7156398,106.635417 70.7440758,112.677083 C69.8483412,113.28125 69.549763,114.1875 69.8483412,115.09375 C70.1469194,116 70.7440758,116.90625 71.3412322,117.208333 C76.7156398,119.625 80,124.760417 80,130.5 C80,138.354167 73.4312796,145 65.6682464,145 L65.6682464,145 Z M123.331754,145 C115.270142,145 109,138.354167 109,130.5 C109,124.760417 112.28436,119.625 117.36019,117.208333 C118.255924,116.90625 118.853081,116 119.151659,115.09375 C119.151659,114.1875 118.853081,113.28125 118.255924,112.677083 C112.28436,106.635417 109,98.4791667 109,90.0208333 C109,72.1979167 123.033175,58 140.350711,58 C157.668246,58 172,72.1979167 172,90.0208333 C172,107.541667 157.668246,121.739583 140.052133,121.739583 L139.454976,121.739583 C138.559242,121.739583 137.663507,122.041667 137.066351,122.947917 C136.469194,123.552083 136.469194,124.760417 136.767773,125.666667 C137.364929,127.177083 137.663507,128.989583 137.663507,130.5 C137.663507,138.354167 131.094787,145 123.331754,145 L123.331754,145 Z M169.666667,168 C165.1875,168 161.305556,166.180095 158.618056,162.843602 L141,140.701422 C142.791667,137.668246 143.986111,134.028436 143.986111,130.388626 C143.986111,129.478673 143.986111,128.265403 143.6875,127.35545 C158.020833,126.445498 170.263889,116.739336 175.638889,104 L183.701389,151.014218 C184,151.924171 184,152.834123 184,153.440758 C184,161.630332 177.729167,168 169.666667,168 L169.666667,168 Z M123.649123,122 C118.877193,122 115,125.810345 115,130.5 C115,135.189655 118.877193,139 123.649123,139 C128.421053,139 132,135.189655 132,130.5 C132,125.810345 128.421053,122 123.649123,122 L123.649123,122 Z M124.157895,134 C122.263158,134 121,132.736842 121,131.157895 C121,129.578947 122.263158,128 124.157895,128 C125.736842,128 127,129.578947 127,131.157895 C127,132.736842 125.736842,134 124.157895,134 L124.157895,134 Z M65.5,122 C60.8103448,122 57,125.810345 57,130.5 C57,135.189655 60.8103448,139 65.5,139 C70.1896552,139 74,135.189655 74,130.5 C74,125.810345 70.1896552,122 65.5,122 L65.5,122 Z M66,134 C64.5,134 63,132.736842 63,131.157895 C63,129.578947 64.5,128 66,128 C67.5,128 69,129.578947 69,131.157895 C69,132.736842 67.5,134 66,134 L66,134 Z M149,107.5 C149,102.810345 145.189655,99 140.5,99 C135.810345,99 132,102.810345 132,107.5 C132,112.189655 135.810345,116 140.5,116 C145.189655,116 149,112.189655 149,107.5 L149,107.5 Z M138,107.842105 C138,106.263158 139.263158,105 140.842105,105 C142.736842,105 144,106.263158 144,107.842105 C144,109.421053 142.736842,111 140.842105,111 C139.263158,111 138,109.421053 138,107.842105 L138,107.842105 Z M132,89.6491228 C132,84.877193 128.421053,81 123.649123,81 C118.877193,81 115,84.877193 115,89.6491228 C115,94.122807 118.877193,98 123.649123,98 C128.421053,98 132,94.122807 132,89.6491228 L132,89.6491228 Z M121,90.1578947 C121,88.2631579 122.263158,87 124.157895,87 C125.736842,87 127,88.2631579 127,90.1578947 C127,91.7368421 125.736842,93 124.157895,93 C122.263158,93 121,91.7368421 121,90.1578947 L121,90.1578947 Z M158.649123,98 C163.421053,98 167,94.122807 167,89.6491228 C167,84.877193 163.421053,81 158.649123,81 C153.877193,81 150,84.877193 150,89.6491228 C150,94.122807 153.877193,98 158.649123,98 L158.649123,98 Z M158.157895,87 C159.736842,87 161,88.2631579 161,90.1578947 C161,91.7368421 159.736842,93 158.157895,93 C156.263158,93 155,91.7368421 155,90.1578947 C155,88.2631579 156.263158,87 158.157895,87 L158.157895,87 Z M140.5,81 C145.189655,81 149,77.1896552 149,72.5 C149,67.8103448 145.189655,64 140.5,64 C135.810345,64 132,67.8103448 132,72.5 C132,77.1896552 135.810345,81 140.5,81 L140.5,81 Z M140.842105,70 C142.736842,70 144,71.2631579 144,72.8421053 C144,74.4210526 142.736842,76 140.842105,76 C139.263158,76 138,74.4210526 138,72.8421053 C138,71.2631579 139.263158,70 140.842105,70 L140.842105,70 Z M55.4222222,92.6865672 C53.6,92.6865672 52.3851852,94.1791045 52.3851852,95.6716418 L52.3851852,107.014925 C52.3851852,108.507463 51.1703704,110 49.6518519,110 C47.8296296,110 46.6148148,108.507463 46.6148148,107.014925 L46.6148148,95.6716418 C46.6148148,94.1791045 45.4,92.6865672 43.5777778,92.6865672 L32.037037,92.6865672 C30.5185185,92.6865672 29,91.4925373 29,90 C29,88.2089552 30.5185185,87.0149254 32.037037,87.0149254 L43.5777778,87.0149254 C45.4,87.0149254 46.6148148,85.8208955 46.6148148,84.0298507 L46.6148148,72.6865672 C46.6148148,71.1940299 47.8296296,70 49.6518519,70 C51.1703704,70 52.3851852,71.1940299 52.3851852,72.6865672 L52.3851852,84.0298507 C52.3851852,85.8208955 53.6,87.0149254 55.4222222,87.0149254 L66.962963,87.0149254 C68.4814815,87.0149254 70,88.2089552 70,90 C70,91.4925373 68.4814815,92.6865672 66.962963,92.6865672 L55.4222222,92.6865672 L55.4222222,92.6865672 Z" id="Shape" fill="#2C3E50"></path>
            </g>
            <path d="M237.006818,492 C234.241629,492 232,494.22885 232,496.993229 L232,587.006771 C232,589.764455 234.232614,592 237.006818,592 L826.993182,592 C829.758371,592 832,589.77115 832,587.006771 L832,496.993229 C832,494.235545 829.767386,492 826.993182,492 L237.006818,492 Z M232,514 L232,570 L209,542 L232,514 Z" id="Rectangle-2" fill="#C3ECFF" sketch:type="MSShapeGroup"></path>
            <text id="Note-List-controller" fill="#34495E" sketch:type="MSTextLayer" font-family="Helvetica" font-size="32" font-weight="normal">
                <tspan x="260" y="554" fill="#000000">Note List controller is running</tspan>
            </text>
            <path d="M237.006818,703 C234.241629,703 232,705.22885 232,707.993229 L232,798.006771 C232,800.764455 234.232614,803 237.006818,803 L826.993182,803 C829.758371,803 832,800.77115 832,798.006771 L832,707.993229 C832,705.235545 829.767386,703 826.993182,703 L237.006818,703 Z M232,725 L232,781 L209,753 L232,725 Z" id="Rectangle-2" fill="#C3ECFF" sketch:type="MSShapeGroup"></path>
            <text id="Note-Details-control" fill="#34495E" sketch:type="MSTextLayer" font-family="Helvetica" font-size="32" font-weight="normal">
                <tspan x="260" y="764" fill="#000000">Note Details controller is not running</tspan>
            </text>
        </g>
        <rect id="Rectangle-13" fill="#EEEEEE" sketch:type="MSShapeGroup" x="899" y="0" width="10" height="900"></rect>
        <g id="Group" sketch:type="MSLayerGroup" transform="translate(970.000000, 29.000000)">
            <path d="M141.1216,4 L688.8784,4 C693.3904,4 697,7.61085973 697,12.1244344 L697,394.875566 C697,399.38914 693.3904,403 688.8784,403 L141.1216,403 C136.9104,403 133,399.38914 133,394.875566 L133,12.1244344 C133,7.61085973 136.9104,4 141.1216,4 L141.1216,4 Z" id="Shape" fill="#BDC3C7" sketch:type="MSShapeGroup"></path>
            <path d="M141.345244,0 L689.654756,0 C693.267998,0 696.279033,1.50295421 698.386758,3.6070901 L698.386758,3.6070901 C700.795586,5.711226 702,9.01772526 702,12.3242245 L702,394.675775 C702,397.982275 700.795586,401.288774 698.386758,403.39291 L698.386758,403.39291 C696.279033,405.797637 693.267998,407 689.654756,407 L141.345244,407 C138.033106,407 135.02207,405.797637 132.613242,403.39291 C130.505518,401.288774 129,397.982275 129,394.675775 L129,12.3242245 C129,9.01772526 130.505518,5.711226 132.613242,3.6070901 L132.613242,3.6070901 C135.02207,1.50295421 138.033106,0 141.345244,0 L141.345244,0 Z M690.084507,8 L141.614301,8 C140.710726,8 139.807151,8.6009245 138.903575,9.201849 L138.903575,9.201849 C138.301192,9.8027735 138,11.0046225 138,11.9060092 L138,394.093991 C138,395.29584 138.301192,396.197227 138.903575,396.798151 C139.807151,397.399076 140.710726,398 141.614301,398 L690.084507,398 C691.289274,398 692.192849,397.399076 692.795233,396.798151 L692.795233,396.798151 C693.698808,396.197227 694,395.29584 694,394.093991 L694,11.9060092 C694,11.0046225 693.698808,9.8027735 692.795233,9.201849 L692.795233,9.201849 C692.192849,8.6009245 691.289274,8 690.084507,8 L690.084507,8 Z" id="Shape" fill="#7F8C8D" sketch:type="MSShapeGroup"></path>
            <path d="M673.992524,26 C675.79701,26 677,27.5172414 677,29.337931 L677,66.662069 C677,68.4827586 675.79701,70 673.992524,70 L157.308223,70 C155.503738,70 154,68.4827586 154,66.662069 L154,29.337931 C154,27.5172414 155.503738,26 157.308223,26 L673.992524,26 Z" id="Shape" fill="#FFFFFF" sketch:type="MSShapeGroup"></path>
            <path d="M157.418472,24 L674.581528,24 C676.086659,24 677.290764,24.6037736 678.193843,25.509434 L678.193843,25.509434 C679.397948,26.4150943 680,27.9245283 680,29.4339623 L680,66.5660377 C680,68.0754717 679.397948,69.5849057 678.193843,70.490566 C677.290764,71.3962264 676.086659,72 674.581528,72 L157.418472,72 C155.913341,72 154.709236,71.3962264 153.505131,70.490566 C152.602052,69.5849057 152,68.0754717 152,66.5660377 L152,29.4339623 C152,27.9245283 152.602052,26.4150943 153.505131,25.509434 C154.709236,24.6037736 155.913341,24 157.418472,24 L157.418472,24 Z M674.097391,28 L157.203478,28 C156.902609,28 156.601739,28.3053435 156.30087,28.3053435 C156.30087,28.610687 156,28.9160305 156,29.221374 L156,66.778626 C156,67.0839695 156.30087,67.389313 156.30087,67.6946565 C156.601739,67.6946565 156.902609,68 157.203478,68 L674.097391,68 C674.398261,68 674.69913,67.6946565 674.69913,67.6946565 C675,67.389313 675,67.0839695 675,66.778626 L675,29.221374 C675,28.9160305 675,28.610687 674.69913,28.3053435 L674.69913,28.3053435 C674.69913,28.3053435 674.398261,28 674.097391,28 L674.097391,28 Z" id="Shape" fill="#7F8C8D" sketch:type="MSShapeGroup"></path>
            <path d="M157.279503,26 L202,26 L202,70 L157.279503,70 C155.490683,70 154,68.4827586 154,66.662069 L154,29.337931 C154,27.5172414 155.490683,26 157.279503,26 L157.279503,26 Z" id="Shape" fill="#7F8C8D" sketch:type="MSShapeGroup"></path>
            <path d="M157.451429,24 L202.88,24 L205,24 L205,26.1132075 L205,69.8867925 L205,72 L202.88,72 L157.451429,72 C155.937143,72 154.725714,71.3962264 153.514286,70.490566 C152.605714,69.5849057 152,68.0754717 152,66.5660377 L152,29.4339623 C152,27.9245283 152.605714,26.4150943 153.514286,25.509434 C154.725714,24.6037736 155.937143,24 157.451429,24 L157.451429,24 Z M200,28 L157.205479,28 C156.90411,28 156.60274,28.3053435 156.30137,28.3053435 C156.30137,28.610687 156,28.9160305 156,29.221374 L156,66.778626 C156,67.0839695 156.30137,67.389313 156.30137,67.6946565 C156.60274,67.6946565 156.90411,68 157.205479,68 L200,68 L200,28 L200,28 Z" id="Shape" fill="#7F8C8D" sketch:type="MSShapeGroup"></path>
            <path d="M168,47.1481481 L178.347826,40.9259259 L189,35 L189,47.1481481 L189,59 L178.347826,53.0740741 L168,47.1481481 Z" id="Shape" fill="#BDC3C7" sketch:type="MSShapeGroup"></path>
            <rect id="Rectangle-3" fill="#D8D8D8" sketch:type="MSShapeGroup" x="151" y="87" width="530" height="295"></rect>
            <rect id="Rectangle-4" fill="#FFFFFF" sketch:type="MSShapeGroup" x="163" y="101" width="198" height="38"></rect>
            <rect id="Rectangle-4" fill="#FFFFFF" sketch:type="MSShapeGroup" x="375" y="101" width="294" height="267"></rect>
            <rect id="Rectangle-4" fill="#FFFFFF" sketch:type="MSShapeGroup" x="163" y="149" width="198" height="38"></rect>
            <rect id="Rectangle-4" fill="#FFFFFF" sketch:type="MSShapeGroup" x="163" y="197" width="198" height="38"></rect>
            <text id="Note-#1" fill="#888888" sketch:type="MSTextLayer" font-family="Helvetica" font-size="22" font-weight="normal">
                <tspan x="170" y="128" fill="#000000">Note </tspan>
                <tspan x="222.583008" y="128" font-weight="bold" fill="#000000">#1</tspan>
            </text>
            <text id="Note-#1" fill="#888888" sketch:type="MSTextLayer" font-family="Helvetica" font-size="22" font-weight="normal">
                <tspan x="388" y="133" fill="#000000">Note </tspan>
                <tspan x="440.583008" y="133" font-weight="bold" fill="#000000">#1</tspan>
            </text>
            <text id="Note-#2" fill="#888888" sketch:type="MSTextLayer" font-family="Helvetica" font-size="22" font-weight="normal">
                <tspan x="170" y="176" fill="#000000">Note </tspan>
                <tspan x="222.583008" y="176" font-weight="bold" fill="#000000">#2</tspan>
            </text>
            <text id="Note-#3" fill="#888888" sketch:type="MSTextLayer" font-family="Helvetica" font-size="22" font-weight="normal">
                <tspan x="170" y="223" fill="#000000">Note </tspan>
                <tspan x="222.583008" y="223" font-weight="bold" fill="#000000">#3</tspan>
            </text>
            <path d="M94.5,453 C143.755034,453 184,492.944631 184,542.5 C184,591.755034 143.755034,632 94.5,632 C44.9446309,632 5,591.755034 5,542.5 C5,492.944631 44.9446309,453 94.5,453 L94.5,453 Z" id="Shape" fill="#27AE60" sketch:type="MSShapeGroup"></path>
            <path d="M177.974684,536.52381 L177.974684,536.222222 C175.56962,523.555556 166.851266,513.301587 155.427215,508.47619 L155.427215,496.714286 C155.427215,495.206349 154.224684,494 152.721519,494 L118.148734,494 C116.344937,494 115.142405,495.206349 115.142405,496.714286 L115.142405,516.015873 L114.240506,516.920635 L75.7594937,516.920635 L74.8575949,516.015873 L74.8575949,496.714286 C74.8575949,495.206349 73.3544304,494 71.8512658,494 L37.278481,494 C35.7753165,494 34.5727848,495.206349 34.5727848,496.714286 L34.5727848,508.47619 C22.8481013,513.301587 14.4303797,523.555556 12.0253165,536.222222 L12.0253165,536.52381 L0.300632911,603.174603 C0,604.380952 0,605.285714 0,606.492063 C0,617.650794 9.01898734,627 20.1424051,627 C26.1550633,627 31.8670886,623.984127 35.7753165,619.460317 L52.6107595,598.349206 C56.2183544,601.666667 61.028481,603.777778 66.1392405,603.777778 C77.2626582,603.777778 86.2816456,594.730159 86.2816456,583.571429 C86.2816456,577.84127 83.8765823,572.714286 79.9683544,569.095238 L109.731013,569.095238 C106.123418,572.714286 103.718354,577.84127 103.718354,583.571429 C103.718354,594.730159 112.737342,603.777778 123.860759,603.777778 C128.971519,603.777778 133.781646,601.666667 137.389241,598.349206 L154.224684,619.460317 C158.132911,623.984127 163.844937,627 169.857595,627 C180.981013,627 190,617.650794 190,606.793651 C190,605.285714 190,604.380952 189.699367,603.174603 L177.974684,536.52381 L177.974684,536.52381 Z" id="Shape" fill="#FFFFFF" sketch:type="MSShapeGroup"></path>
            <path d="M57.566474,551.566474 L66.283237,551.566474 C71.0924855,551.566474 75,547.65896 75,543.150289 C75,538.34104 71.0924855,534.433526 66.283237,534.433526 L57.566474,534.433526 L57.566474,525.716763 C57.566474,520.907514 53.6589595,517 49.150289,517 C44.3410405,517 40.433526,520.907514 40.433526,525.716763 L40.433526,534.433526 L31.716763,534.433526 C26.9075145,534.433526 23,538.34104 23,543.150289 C23,547.65896 26.9075145,551.566474 31.716763,551.566474 L40.433526,551.566474 L40.433526,560.283237 C40.433526,565.092486 44.3410405,569 49.150289,569 C53.6589595,569 57.566474,565.092486 57.566474,560.283237 L57.566474,551.566474 L57.566474,551.566474 Z M177.974684,536.52381 L177.974684,536.222222 C175.56962,523.555556 166.851266,513.301587 155.427215,508.47619 L155.427215,496.714286 C155.427215,495.206349 154.224684,494 152.721519,494 L118.148734,494 C116.344937,494 115.142405,495.206349 115.142405,496.714286 L115.142405,516.015873 L114.240506,516.920635 L75.7594937,516.920635 L74.8575949,516.015873 L74.8575949,496.714286 C74.8575949,495.206349 73.3544304,494 71.8512658,494 L37.278481,494 C35.7753165,494 34.5727848,495.206349 34.5727848,496.714286 L34.5727848,508.47619 C22.8481013,513.301587 14.4303797,523.555556 12.0253165,536.222222 L12.0253165,536.52381 L0.300632911,603.174603 C0,604.380952 0,605.285714 0,606.492063 C0,617.650794 9.01898734,627 20.1424051,627 C26.1550633,627 31.8670886,623.984127 35.7753165,619.460317 L52.6107595,598.349206 C56.2183544,601.666667 61.028481,603.777778 66.1392405,603.777778 C77.2626582,603.777778 86.2816456,594.730159 86.2816456,583.571429 C86.2816456,577.84127 83.8765823,572.714286 79.9683544,569.095238 L109.731013,569.095238 C106.123418,572.714286 103.718354,577.84127 103.718354,583.571429 C103.718354,594.730159 112.737342,603.777778 123.860759,603.777778 C128.971519,603.777778 133.781646,601.666667 137.389241,598.349206 L154.224684,619.460317 C158.132911,623.984127 163.844937,627 169.857595,627 C180.981013,627 190,617.650794 190,606.793651 C190,605.285714 190,604.380952 189.699367,603.174603 L177.974684,536.52381 L177.974684,536.52381 Z M121,500 L150,500 L150,507.076923 C147.28125,506.153846 144.260417,505.846154 141.239583,505.846154 C133.989583,505.846154 127.041667,508 121,512 L121,500 L121,500 Z M108.704082,523 C105.153061,528.671642 103.081633,535.537313 103.081633,543 C103.081633,550.164179 105.153061,557.029851 109,563 L80,563 C83.8469388,557.029851 85.9183673,550.164179 85.9183673,543 C85.9183673,535.537313 83.8469388,528.671642 80,523 L108.704082,523 L108.704082,523 Z M40,500 L69,500 L69,512 C62.9583333,508 56.0104167,505.846154 48.7604167,505.846154 C45.7395833,505.846154 42.71875,506.153846 40,507.076923 L40,500 L40,500 Z M31.3819444,615.843602 C28.6944444,619.180095 24.5138889,621 20.3333333,621 C12.2708333,621 6,614.630332 6,606.440758 L6,604.014218 L14.3611111,557 C19.7361111,569.739336 31.6805556,579.445498 46.3125,580.35545 C46.0138889,581.265403 46.0138889,582.478673 46.0138889,583.388626 C46.0138889,587.028436 47.2083333,590.668246 49,593.701422 L31.3819444,615.843602 L31.3819444,615.843602 Z M65.6682464,598 C57.9052133,598 51.3364929,591.354167 51.3364929,583.5 C51.3364929,581.989583 51.6350711,580.177083 52.2322275,578.666667 C52.5308057,577.760417 52.5308057,576.552083 51.9336493,575.947917 C51.3364929,575.041667 50.4407583,574.739583 49.5450237,574.739583 L49.5450237,574.739583 L48.6492891,574.739583 C31.0331754,574.739583 17,560.541667 17,543.020833 C17,525.197917 31.0331754,511 48.6492891,511 C65.9668246,511 80,525.5 80,543.020833 C80,551.479167 76.7156398,559.635417 70.7440758,565.677083 C69.8483412,566.28125 69.549763,567.1875 69.8483412,568.09375 C70.1469194,569 70.7440758,569.90625 71.3412322,570.208333 C76.7156398,572.625 80,577.760417 80,583.5 C80,591.354167 73.4312796,598 65.6682464,598 L65.6682464,598 Z M123.331754,598 C115.270142,598 109,591.354167 109,583.5 C109,577.760417 112.28436,572.625 117.36019,570.208333 C118.255924,569.90625 118.853081,569 119.151659,568.09375 C119.151659,567.1875 118.853081,566.28125 118.255924,565.677083 C112.28436,559.635417 109,551.479167 109,543.020833 C109,525.197917 123.033175,511 140.350711,511 C157.668246,511 172,525.197917 172,543.020833 C172,560.541667 157.668246,574.739583 140.052133,574.739583 L139.454976,574.739583 C138.559242,574.739583 137.663507,575.041667 137.066351,575.947917 C136.469194,576.552083 136.469194,577.760417 136.767773,578.666667 C137.364929,580.177083 137.663507,581.989583 137.663507,583.5 C137.663507,591.354167 131.094787,598 123.331754,598 L123.331754,598 Z M169.666667,621 C165.1875,621 161.305556,619.180095 158.618056,615.843602 L141,593.701422 C142.791667,590.668246 143.986111,587.028436 143.986111,583.388626 C143.986111,582.478673 143.986111,581.265403 143.6875,580.35545 C158.020833,579.445498 170.263889,569.739336 175.638889,557 L183.701389,604.014218 C184,604.924171 184,605.834123 184,606.440758 C184,614.630332 177.729167,621 169.666667,621 L169.666667,621 Z M123.649123,575 C118.877193,575 115,578.810345 115,583.5 C115,588.189655 118.877193,592 123.649123,592 C128.421053,592 132,588.189655 132,583.5 C132,578.810345 128.421053,575 123.649123,575 L123.649123,575 Z M124.157895,587 C122.263158,587 121,585.736842 121,584.157895 C121,582.578947 122.263158,581 124.157895,581 C125.736842,581 127,582.578947 127,584.157895 C127,585.736842 125.736842,587 124.157895,587 L124.157895,587 Z M65.5,575 C60.8103448,575 57,578.810345 57,583.5 C57,588.189655 60.8103448,592 65.5,592 C70.1896552,592 74,588.189655 74,583.5 C74,578.810345 70.1896552,575 65.5,575 L65.5,575 Z M66,587 C64.5,587 63,585.736842 63,584.157895 C63,582.578947 64.5,581 66,581 C67.5,581 69,582.578947 69,584.157895 C69,585.736842 67.5,587 66,587 L66,587 Z M149,560.5 C149,555.810345 145.189655,552 140.5,552 C135.810345,552 132,555.810345 132,560.5 C132,565.189655 135.810345,569 140.5,569 C145.189655,569 149,565.189655 149,560.5 L149,560.5 Z M138,560.842105 C138,559.263158 139.263158,558 140.842105,558 C142.736842,558 144,559.263158 144,560.842105 C144,562.421053 142.736842,564 140.842105,564 C139.263158,564 138,562.421053 138,560.842105 L138,560.842105 Z M132,542.649123 C132,537.877193 128.421053,534 123.649123,534 C118.877193,534 115,537.877193 115,542.649123 C115,547.122807 118.877193,551 123.649123,551 C128.421053,551 132,547.122807 132,542.649123 L132,542.649123 Z M121,543.157895 C121,541.263158 122.263158,540 124.157895,540 C125.736842,540 127,541.263158 127,543.157895 C127,544.736842 125.736842,546 124.157895,546 C122.263158,546 121,544.736842 121,543.157895 L121,543.157895 Z M158.649123,551 C163.421053,551 167,547.122807 167,542.649123 C167,537.877193 163.421053,534 158.649123,534 C153.877193,534 150,537.877193 150,542.649123 C150,547.122807 153.877193,551 158.649123,551 L158.649123,551 Z M158.157895,540 C159.736842,540 161,541.263158 161,543.157895 C161,544.736842 159.736842,546 158.157895,546 C156.263158,546 155,544.736842 155,543.157895 C155,541.263158 156.263158,540 158.157895,540 L158.157895,540 Z M140.5,534 C145.189655,534 149,530.189655 149,525.5 C149,520.810345 145.189655,517 140.5,517 C135.810345,517 132,520.810345 132,525.5 C132,530.189655 135.810345,534 140.5,534 L140.5,534 Z M140.842105,523 C142.736842,523 144,524.263158 144,525.842105 C144,527.421053 142.736842,529 140.842105,529 C139.263158,529 138,527.421053 138,525.842105 C138,524.263158 139.263158,523 140.842105,523 L140.842105,523 Z M55.4222222,545.686567 C53.6,545.686567 52.3851852,547.179104 52.3851852,548.671642 L52.3851852,560.014925 C52.3851852,561.507463 51.1703704,563 49.6518519,563 C47.8296296,563 46.6148148,561.507463 46.6148148,560.014925 L46.6148148,548.671642 C46.6148148,547.179104 45.4,545.686567 43.5777778,545.686567 L32.037037,545.686567 C30.5185185,545.686567 29,544.492537 29,543 C29,541.208955 30.5185185,540.014925 32.037037,540.014925 L43.5777778,540.014925 C45.4,540.014925 46.6148148,538.820896 46.6148148,537.029851 L46.6148148,525.686567 C46.6148148,524.19403 47.8296296,523 49.6518519,523 C51.1703704,523 52.3851852,524.19403 52.3851852,525.686567 L52.3851852,537.029851 C52.3851852,538.820896 53.6,540.014925 55.4222222,540.014925 L66.962963,540.014925 C68.4814815,540.014925 70,541.208955 70,543 C70,544.492537 68.4814815,545.686567 66.962963,545.686567 L55.4222222,545.686567 L55.4222222,545.686567 Z" id="Shape" fill="#2C3E50" sketch:type="MSShapeGroup"></path>
            <path d="M94.5,663 C143.755034,663 184,702.944631 184,752.5 C184,801.755034 143.755034,842 94.5,842 C44.9446309,842 5,801.755034 5,752.5 C5,702.944631 44.9446309,663 94.5,663 L94.5,663 Z" id="Shape" fill="#27AE60" sketch:type="MSShapeGroup"></path>
            <path d="M177.974684,746.52381 L177.974684,746.222222 C175.56962,733.555556 166.851266,723.301587 155.427215,718.47619 L155.427215,706.714286 C155.427215,705.206349 154.224684,704 152.721519,704 L118.148734,704 C116.344937,704 115.142405,705.206349 115.142405,706.714286 L115.142405,726.015873 L114.240506,726.920635 L75.7594937,726.920635 L74.8575949,726.015873 L74.8575949,706.714286 C74.8575949,705.206349 73.3544304,704 71.8512658,704 L37.278481,704 C35.7753165,704 34.5727848,705.206349 34.5727848,706.714286 L34.5727848,718.47619 C22.8481013,723.301587 14.4303797,733.555556 12.0253165,746.222222 L12.0253165,746.52381 L0.300632911,813.174603 C0,814.380952 0,815.285714 0,816.492063 C0,827.650794 9.01898734,837 20.1424051,837 C26.1550633,837 31.8670886,833.984127 35.7753165,829.460317 L52.6107595,808.349206 C56.2183544,811.666667 61.028481,813.777778 66.1392405,813.777778 C77.2626582,813.777778 86.2816456,804.730159 86.2816456,793.571429 C86.2816456,787.84127 83.8765823,782.714286 79.9683544,779.095238 L109.731013,779.095238 C106.123418,782.714286 103.718354,787.84127 103.718354,793.571429 C103.718354,804.730159 112.737342,813.777778 123.860759,813.777778 C128.971519,813.777778 133.781646,811.666667 137.389241,808.349206 L154.224684,829.460317 C158.132911,833.984127 163.844937,837 169.857595,837 C180.981013,837 190,827.650794 190,816.793651 C190,815.285714 190,814.380952 189.699367,813.174603 L177.974684,746.52381 L177.974684,746.52381 Z" id="Shape" fill="#FFFFFF" sketch:type="MSShapeGroup"></path>
            <path d="M57.566474,761.566474 L66.283237,761.566474 C71.0924855,761.566474 75,757.65896 75,753.150289 C75,748.34104 71.0924855,744.433526 66.283237,744.433526 L57.566474,744.433526 L57.566474,735.716763 C57.566474,730.907514 53.6589595,727 49.150289,727 C44.3410405,727 40.433526,730.907514 40.433526,735.716763 L40.433526,744.433526 L31.716763,744.433526 C26.9075145,744.433526 23,748.34104 23,753.150289 C23,757.65896 26.9075145,761.566474 31.716763,761.566474 L40.433526,761.566474 L40.433526,770.283237 C40.433526,775.092486 44.3410405,779 49.150289,779 C53.6589595,779 57.566474,775.092486 57.566474,770.283237 L57.566474,761.566474 L57.566474,761.566474 Z M177.974684,746.52381 L177.974684,746.222222 C175.56962,733.555556 166.851266,723.301587 155.427215,718.47619 L155.427215,706.714286 C155.427215,705.206349 154.224684,704 152.721519,704 L118.148734,704 C116.344937,704 115.142405,705.206349 115.142405,706.714286 L115.142405,726.015873 L114.240506,726.920635 L75.7594937,726.920635 L74.8575949,726.015873 L74.8575949,706.714286 C74.8575949,705.206349 73.3544304,704 71.8512658,704 L37.278481,704 C35.7753165,704 34.5727848,705.206349 34.5727848,706.714286 L34.5727848,718.47619 C22.8481013,723.301587 14.4303797,733.555556 12.0253165,746.222222 L12.0253165,746.52381 L0.300632911,813.174603 C0,814.380952 0,815.285714 0,816.492063 C0,827.650794 9.01898734,837 20.1424051,837 C26.1550633,837 31.8670886,833.984127 35.7753165,829.460317 L52.6107595,808.349206 C56.2183544,811.666667 61.028481,813.777778 66.1392405,813.777778 C77.2626582,813.777778 86.2816456,804.730159 86.2816456,793.571429 C86.2816456,787.84127 83.8765823,782.714286 79.9683544,779.095238 L109.731013,779.095238 C106.123418,782.714286 103.718354,787.84127 103.718354,793.571429 C103.718354,804.730159 112.737342,813.777778 123.860759,813.777778 C128.971519,813.777778 133.781646,811.666667 137.389241,808.349206 L154.224684,829.460317 C158.132911,833.984127 163.844937,837 169.857595,837 C180.981013,837 190,827.650794 190,816.793651 C190,815.285714 190,814.380952 189.699367,813.174603 L177.974684,746.52381 L177.974684,746.52381 Z M121,710 L150,710 L150,717.076923 C147.28125,716.153846 144.260417,715.846154 141.239583,715.846154 C133.989583,715.846154 127.041667,718 121,722 L121,710 L121,710 Z M108.704082,733 C105.153061,738.671642 103.081633,745.537313 103.081633,753 C103.081633,760.164179 105.153061,767.029851 109,773 L80,773 C83.8469388,767.029851 85.9183673,760.164179 85.9183673,753 C85.9183673,745.537313 83.8469388,738.671642 80,733 L108.704082,733 L108.704082,733 Z M40,710 L69,710 L69,722 C62.9583333,718 56.0104167,715.846154 48.7604167,715.846154 C45.7395833,715.846154 42.71875,716.153846 40,717.076923 L40,710 L40,710 Z M31.3819444,825.843602 C28.6944444,829.180095 24.5138889,831 20.3333333,831 C12.2708333,831 6,824.630332 6,816.440758 L6,814.014218 L14.3611111,767 C19.7361111,779.739336 31.6805556,789.445498 46.3125,790.35545 C46.0138889,791.265403 46.0138889,792.478673 46.0138889,793.388626 C46.0138889,797.028436 47.2083333,800.668246 49,803.701422 L31.3819444,825.843602 L31.3819444,825.843602 Z M65.6682464,808 C57.9052133,808 51.3364929,801.354167 51.3364929,793.5 C51.3364929,791.989583 51.6350711,790.177083 52.2322275,788.666667 C52.5308057,787.760417 52.5308057,786.552083 51.9336493,785.947917 C51.3364929,785.041667 50.4407583,784.739583 49.5450237,784.739583 L49.5450237,784.739583 L48.6492891,784.739583 C31.0331754,784.739583 17,770.541667 17,753.020833 C17,735.197917 31.0331754,721 48.6492891,721 C65.9668246,721 80,735.5 80,753.020833 C80,761.479167 76.7156398,769.635417 70.7440758,775.677083 C69.8483412,776.28125 69.549763,777.1875 69.8483412,778.09375 C70.1469194,779 70.7440758,779.90625 71.3412322,780.208333 C76.7156398,782.625 80,787.760417 80,793.5 C80,801.354167 73.4312796,808 65.6682464,808 L65.6682464,808 Z M123.331754,808 C115.270142,808 109,801.354167 109,793.5 C109,787.760417 112.28436,782.625 117.36019,780.208333 C118.255924,779.90625 118.853081,779 119.151659,778.09375 C119.151659,777.1875 118.853081,776.28125 118.255924,775.677083 C112.28436,769.635417 109,761.479167 109,753.020833 C109,735.197917 123.033175,721 140.350711,721 C157.668246,721 172,735.197917 172,753.020833 C172,770.541667 157.668246,784.739583 140.052133,784.739583 L139.454976,784.739583 C138.559242,784.739583 137.663507,785.041667 137.066351,785.947917 C136.469194,786.552083 136.469194,787.760417 136.767773,788.666667 C137.364929,790.177083 137.663507,791.989583 137.663507,793.5 C137.663507,801.354167 131.094787,808 123.331754,808 L123.331754,808 Z M169.666667,831 C165.1875,831 161.305556,829.180095 158.618056,825.843602 L141,803.701422 C142.791667,800.668246 143.986111,797.028436 143.986111,793.388626 C143.986111,792.478673 143.986111,791.265403 143.6875,790.35545 C158.020833,789.445498 170.263889,779.739336 175.638889,767 L183.701389,814.014218 C184,814.924171 184,815.834123 184,816.440758 C184,824.630332 177.729167,831 169.666667,831 L169.666667,831 Z M123.649123,785 C118.877193,785 115,788.810345 115,793.5 C115,798.189655 118.877193,802 123.649123,802 C128.421053,802 132,798.189655 132,793.5 C132,788.810345 128.421053,785 123.649123,785 L123.649123,785 Z M124.157895,797 C122.263158,797 121,795.736842 121,794.157895 C121,792.578947 122.263158,791 124.157895,791 C125.736842,791 127,792.578947 127,794.157895 C127,795.736842 125.736842,797 124.157895,797 L124.157895,797 Z M65.5,785 C60.8103448,785 57,788.810345 57,793.5 C57,798.189655 60.8103448,802 65.5,802 C70.1896552,802 74,798.189655 74,793.5 C74,788.810345 70.1896552,785 65.5,785 L65.5,785 Z M66,797 C64.5,797 63,795.736842 63,794.157895 C63,792.578947 64.5,791 66,791 C67.5,791 69,792.578947 69,794.157895 C69,795.736842 67.5,797 66,797 L66,797 Z M149,770.5 C149,765.810345 145.189655,762 140.5,762 C135.810345,762 132,765.810345 132,770.5 C132,775.189655 135.810345,779 140.5,779 C145.189655,779 149,775.189655 149,770.5 L149,770.5 Z M138,770.842105 C138,769.263158 139.263158,768 140.842105,768 C142.736842,768 144,769.263158 144,770.842105 C144,772.421053 142.736842,774 140.842105,774 C139.263158,774 138,772.421053 138,770.842105 L138,770.842105 Z M132,752.649123 C132,747.877193 128.421053,744 123.649123,744 C118.877193,744 115,747.877193 115,752.649123 C115,757.122807 118.877193,761 123.649123,761 C128.421053,761 132,757.122807 132,752.649123 L132,752.649123 Z M121,753.157895 C121,751.263158 122.263158,750 124.157895,750 C125.736842,750 127,751.263158 127,753.157895 C127,754.736842 125.736842,756 124.157895,756 C122.263158,756 121,754.736842 121,753.157895 L121,753.157895 Z M158.649123,761 C163.421053,761 167,757.122807 167,752.649123 C167,747.877193 163.421053,744 158.649123,744 C153.877193,744 150,747.877193 150,752.649123 C150,757.122807 153.877193,761 158.649123,761 L158.649123,761 Z M158.157895,750 C159.736842,750 161,751.263158 161,753.157895 C161,754.736842 159.736842,756 158.157895,756 C156.263158,756 155,754.736842 155,753.157895 C155,751.263158 156.263158,750 158.157895,750 L158.157895,750 Z M140.5,744 C145.189655,744 149,740.189655 149,735.5 C149,730.810345 145.189655,727 140.5,727 C135.810345,727 132,730.810345 132,735.5 C132,740.189655 135.810345,744 140.5,744 L140.5,744 Z M140.842105,733 C142.736842,733 144,734.263158 144,735.842105 C144,737.421053 142.736842,739 140.842105,739 C139.263158,739 138,737.421053 138,735.842105 C138,734.263158 139.263158,733 140.842105,733 L140.842105,733 Z M55.4222222,755.686567 C53.6,755.686567 52.3851852,757.179104 52.3851852,758.671642 L52.3851852,770.014925 C52.3851852,771.507463 51.1703704,773 49.6518519,773 C47.8296296,773 46.6148148,771.507463 46.6148148,770.014925 L46.6148148,758.671642 C46.6148148,757.179104 45.4,755.686567 43.5777778,755.686567 L32.037037,755.686567 C30.5185185,755.686567 29,754.492537 29,753 C29,751.208955 30.5185185,750.014925 32.037037,750.014925 L43.5777778,750.014925 C45.4,750.014925 46.6148148,748.820896 46.6148148,747.029851 L46.6148148,735.686567 C46.6148148,734.19403 47.8296296,733 49.6518519,733 C51.1703704,733 52.3851852,734.19403 52.3851852,735.686567 L52.3851852,747.029851 C52.3851852,748.820896 53.6,750.014925 55.4222222,750.014925 L66.962963,750.014925 C68.4814815,750.014925 70,751.208955 70,753 C70,754.492537 68.4814815,755.686567 66.962963,755.686567 L55.4222222,755.686567 L55.4222222,755.686567 Z" id="Shape" fill="#2C3E50" sketch:type="MSShapeGroup"></path>
            <path d="M237.006818,492 C234.241629,492 232,494.22885 232,496.993229 L232,587.006771 C232,589.764455 234.232614,592 237.006818,592 L826.993182,592 C829.758371,592 832,589.77115 832,587.006771 L832,496.993229 C832,494.235545 829.767386,492 826.993182,492 L237.006818,492 Z M232,514 L232,570 L209,542 L232,514 Z" id="Rectangle-2" fill="#C3ECFF" sketch:type="MSShapeGroup"></path>
            <text id="Note-List-controller" fill="#34495E" sketch:type="MSTextLayer" font-family="Helvetica" font-size="32" font-weight="normal">
                <tspan x="260" y="554" fill="#000000">Note List controller is running</tspan>
            </text>
            <path d="M237.006818,703 C234.241629,703 232,705.22885 232,707.993229 L232,798.006771 C232,800.764455 234.232614,803 237.006818,803 L826.993182,803 C829.758371,803 832,800.77115 832,798.006771 L832,707.993229 C832,705.235545 829.767386,703 826.993182,703 L237.006818,703 Z M232,725 L232,781 L209,753 L232,725 Z" id="Rectangle-2" fill="#C3ECFF" sketch:type="MSShapeGroup"></path>
            <text id="Note-Details-control" fill="#34495E" sketch:type="MSTextLayer" font-family="Helvetica" font-size="32" font-weight="normal">
                <tspan x="260" y="764" fill="#000000">Note Details controller is running</tspan>
            </text>
            <rect id="Rectangle-15" fill="#9B9B9B" sketch:type="MSShapeGroup" x="388" y="146" width="270" height="9"></rect>
            <rect id="Rectangle-15" fill="#9B9B9B" sketch:type="MSShapeGroup" x="388" y="162" width="270" height="9"></rect>
            <rect id="Rectangle-15" fill="#9B9B9B" sketch:type="MSShapeGroup" x="388" y="178" width="270" height="9"></rect>
            <rect id="Rectangle-15" fill="#9B9B9B" sketch:type="MSShapeGroup" x="388" y="194" width="179" height="9"></rect>
            <text id="http://example.com/" fill="#9B9B9B" sketch:type="MSTextLayer" font-family="Helvetica" font-size="22" font-weight="normal">
                <tspan x="216" y="55" fill="#000000">http://example.com/</tspan>
            </text>
            <text id="starred/1" fill="#4A4A4A" sketch:type="MSTextLayer" font-family="Helvetica" font-size="22" font-weight="bold">
                <tspan x="408" y="55" fill="#000000">starred/1</tspan>
            </text>
        </g>
    </g>
</svg>