<svg width="1802" height="900" viewBox="0 0 1802 900" xmlns="http://www.w3.org/2000/svg"><g fill="none" fill-rule="evenodd"><path d="M1154 791.5c0-49.555-40.245-89.5-89.5-89.5-49.555 0-89.5 39.945-89.5 89.5 0 7.05.82 13.917 2.367 20.507l-7.066 40.168c-.3 1.206-.3 2.11-.3 3.317 0 11.16 9.02 20.508 20.142 20.508 6.013 0 11.725-3.016 15.633-7.54l4.56-5.717c15.02 11.447 33.78 18.257 54.165 18.257 20.577 0 39.582-7.024 54.737-18.795l4.988 6.255c3.908 4.524 9.62 7.54 15.633 7.54 11.123 0 20.142-9.35 20.142-20.206 0-1.508 0-2.413-.3-3.62l-7.517-42.728c1.19-5.8 1.817-11.804 1.817-17.946zm0-210c0-49.555-40.245-89.5-89.5-89.5-49.555 0-89.5 39.945-89.5 89.5 0 7.05.82 13.917 2.367 20.507l-7.066 40.168c-.3 1.206-.3 2.11-.3 3.317 0 11.16 9.02 20.508 20.142 20.508 6.013 0 11.725-3.016 15.633-7.54l4.56-5.717c15.02 11.447 33.78 18.257 54.165 18.257 20.577 0 39.582-7.024 54.737-18.795l4.988 6.255c3.908 4.524 9.62 7.54 15.633 7.54 11.123 0 20.142-9.35 20.142-20.206 0-1.508 0-2.413-.3-3.62l-7.517-42.728c1.19-5.8 1.817-11.804 1.817-17.946zm-970 0c0-49.555-40.245-89.5-89.5-89.5C44.945 492 5 531.945 5 581.5c0 7.05.82 13.917 2.367 20.507L.3 642.175c-.3 1.206-.3 2.11-.3 3.317C0 656.652 9.02 666 20.142 666c6.013 0 11.725-3.016 15.633-7.54l4.56-5.717C55.354 664.19 74.114 671 94.5 671c20.577 0 39.582-7.024 54.737-18.795l4.988 6.255c3.908 4.524 9.62 7.54 15.633 7.54C180.98 666 190 656.65 190 645.794c0-1.508 0-2.413-.3-3.62l-7.517-42.728c1.19-5.8 1.817-11.804 1.817-17.946zm1 210c0-49.555-40.012-89.5-89.35-89.5C46.012 702 6 741.945 6 791.5c0 6.353.666 12.555 1.932 18.54l-7.63 42.135c0 1.206-.302 2.11-.302 3.317C0 866.652 9.052 876 20.216 876c6.337 0 12.07-3.016 15.993-7.54l4.806-6.006C56.126 874.074 75.06 881 95.65 881c20.534 0 39.453-6.97 54.544-18.66l4.9 6.12c3.62 4.524 9.353 7.54 15.69 7.54 11.164 0 20.216-9.35 20.216-20.206 0-1.508 0-2.413-.302-3.62l-7.526-42.627c1.2-5.833 1.828-11.87 1.828-18.047zM689.655 39c3.613 0 6.624 1.503 8.732 3.607 2.41 2.104 3.613 5.41 3.613 8.717v382.352c0 3.306-1.204 6.613-3.613 8.717-2.108 2.405-5.12 3.607-8.732 3.607h-548.31c-3.312 0-6.323-1.202-8.732-3.607-2.107-2.104-3.613-5.41-3.613-8.717V51.324c0-3.306 1.506-6.613 3.613-8.717 2.41-2.104 5.42-3.607 8.732-3.607h548.31zM232 535.993v90.014c0 2.757 2.233 4.993 5.007 4.993h589.986c2.765 0 5.007-2.23 5.007-4.993v-90.014c0-2.757-2.233-4.993-5.007-4.993H237.007c-2.765 0-5.007 2.23-5.007 4.993zM232 609l-23-28 23-28v56zm0 137.993v90.014c0 2.757 2.233 4.993 5.007 4.993h589.986c2.765 0 5.007-2.23 5.007-4.993v-90.014c0-2.757-2.233-4.993-5.007-4.993H237.007c-2.765 0-5.007 2.23-5.007 4.993zM232 820l-23-28 23-28v56zM1659.655 39c3.613 0 6.624 1.503 8.732 3.607 2.41 2.104 3.613 5.41 3.613 8.717v382.352c0 3.306-1.204 6.613-3.613 8.717-2.108 2.405-5.12 3.607-8.732 3.607h-548.31c-3.312 0-6.323-1.202-8.732-3.607-2.107-2.104-3.613-5.41-3.613-8.717V51.324c0-3.306 1.506-6.613 3.613-8.717 2.41-2.104 5.42-3.607 8.732-3.607h548.31zM1202 535.993v90.014c0 2.757 2.233 4.993 5.007 4.993h589.986c2.765 0 5.007-2.23 5.007-4.993v-90.014c0-2.757-2.233-4.993-5.007-4.993h-589.986c-2.765 0-5.007 2.23-5.007 4.993zm0 73.007l-23-28 23-28v56zm0 137.993v90.014c0 2.757 2.233 4.993 5.007 4.993h589.986c2.765 0 5.007-2.23 5.007-4.993v-90.014c0-2.757-2.233-4.993-5.007-4.993h-589.986c-2.765 0-5.007 2.23-5.007 4.993zm0 73.007l-23-28 23-28v56z" fill-opacity=".1" fill="#000"/><path d="M141.122 33h547.756c4.512 0 8.122 3.61 8.122 8.124v382.752c0 4.513-3.61 8.124-8.122 8.124H141.122c-4.212 0-8.122-3.61-8.122-8.124V41.124c0-4.513 3.91-8.124 8.122-8.124z" fill="#BDC3C7"/><path d="M141.345 29h548.31c3.613 0 6.624 1.503 8.732 3.607 2.41 2.104 3.613 5.41 3.613 8.717v382.352c0 3.306-1.204 6.613-3.613 8.717-2.108 2.405-5.12 3.607-8.732 3.607h-548.31c-3.312 0-6.323-1.202-8.732-3.607-2.107-2.104-3.613-5.41-3.613-8.717V41.324c0-3.306 1.506-6.613 3.613-8.717 2.41-2.104 5.42-3.607 8.732-3.607zm548.74 8h-548.47c-.904 0-1.808.6-2.71 1.202-.604.6-.905 1.803-.905 2.704v382.188c0 1.202.3 2.103.904 2.704.903.6 1.807 1.202 2.71 1.202h548.47c1.205 0 2.11-.6 2.71-1.202.905-.6 1.206-1.502 1.206-2.704V40.906c0-.9-.3-2.103-1.205-2.704-.602-.6-1.506-1.202-2.71-1.202z" fill="#7F8C8D"/><path d="M673.993 55c1.804 0 3.007 1.517 3.007 3.338v37.324c0 1.82-1.203 3.338-3.007 3.338H157.308c-1.804 0-3.308-1.517-3.308-3.338V58.338c0-1.82 1.504-3.338 3.308-3.338h516.685z" fill="#FFF"/><path d="M157.418 53h517.164c1.505 0 2.71.604 3.612 1.51 1.204.905 1.806 2.415 1.806 3.924v37.132c0 1.51-.602 3.02-1.806 3.925-.903.906-2.107 1.51-3.612 1.51H157.418c-1.505 0-2.71-.604-3.913-1.51-.903-.905-1.505-2.415-1.505-3.924V58.434c0-1.51.602-3.02 1.505-3.925 1.204-.906 2.408-1.51 3.913-1.51zm516.68 4H157.202c-.3 0-.6.305-.902.305 0 .306-.3.61-.3.916v37.56c0 .304.3.61.3.915.302 0 .603.305.903.305h516.894c.3 0 .602-.305.602-.305.3-.306.3-.61.3-.916V58.22c0-.304 0-.61-.3-.915 0 0-.302-.305-.603-.305z" fill="#7F8C8D"/><path d="M157.28 55H202v44h-44.72c-1.79 0-3.28-1.517-3.28-3.338V58.338c0-1.82 1.49-3.338 3.28-3.338z" fill="#7F8C8D"/><path d="M157.45 53H205v48h-47.55c-1.513 0-2.724-.604-3.936-1.51-.908-.905-1.514-2.415-1.514-3.924V58.434c0-1.51.606-3.02 1.514-3.925 1.212-.906 2.423-1.51 3.937-1.51zM200 57h-42.795c-.3 0-.602.305-.904.305 0 .306-.3.61-.3.916v37.56c0 .304.3.61.3.915.303 0 .604.305.905.305H200V57z" fill="#7F8C8D"/><path d="M168 76.148l10.348-6.222L189 64v24l-10.652-5.926L168 76.148z" fill="#BDC3C7"/><text fill="#9B9B9B" font-family="Helvetica" font-size="22" transform="translate(0 29)"><tspan x="216" y="55" fill="#000">http://example.com/</tspan></text><text fill="#4A4A4A" font-family="Helvetica" font-size="22" font-weight="bold" transform="translate(0 29)"><tspan x="408" y="55" fill="#000">starred</tspan></text><path fill="#D8D8D8" d="M151 116h530v295H151z"/><path fill="#FFF" d="M163 130h506v38H163zM163 178h506v38H163zM163 226h506v38H163z"/><text fill="#888" font-family="Helvetica" font-size="22" transform="translate(0 29)"><tspan x="170" y="128" fill="#000">Note </tspan> <tspan x="222.583" y="128" font-weight="bold" fill="#000">#1</tspan></text><text fill="#888" font-family="Helvetica" font-size="22" transform="translate(0 29)"><tspan x="170" y="176" fill="#000">Note </tspan> <tspan x="222.583" y="176" font-weight="bold" fill="#000">#2</tspan></text><text fill="#888" font-family="Helvetica" font-size="22" transform="translate(0 29)"><tspan x="170" y="223" fill="#000">Note </tspan> <tspan x="222.583" y="223" font-weight="bold" fill="#000">#3</tspan></text><path d="M95.65 692c49.338 0 89.35 39.945 89.35 89.5 0 49.255-40.012 89.5-89.35 89.5C46.012 871 6 830.755 6 781.5 6 731.945 46.012 692 95.65 692z" fill="#C0392B"/><path d="M178.93 775.524s0-.302-.3-.302c-2.113-12.666-10.864-22.92-22.33-27.746v-11.762c0-1.508-1.207-2.714-3.017-2.714h-34.7c-1.51 0-2.716 1.206-2.716 2.714v19.302c-.3.3-.905.603-1.207.905H76.34l-.906-.904v-19.302c0-1.508-1.508-2.714-3.017-2.714h-34.7c-1.508 0-3.017 1.206-3.017 2.714v11.762c-11.466 4.826-20.217 15.08-22.33 27.746v.302L.303 842.174c0 1.207-.302 2.112-.302 3.318C0 856.652 9.052 866 20.216 866c6.337 0 12.07-3.016 15.993-7.54l16.896-21.11c3.62 3.317 8.147 5.428 13.578 5.428 11.164 0 20.216-9.048 20.216-20.207 0-5.73-2.413-10.856-6.336-14.475h29.872c-3.923 3.62-6.336 8.746-6.336 14.476 0 11.16 9.052 20.208 20.216 20.208 5.43 0 10.26-2.11 13.88-5.43l16.897 21.112c3.62 4.524 9.354 7.54 15.69 7.54C181.95 866 191 856.65 191 845.794c0-1.508 0-2.413-.302-3.62l-11.768-66.65z" fill="#ECF0F1"/><path d="M57.566 790.566h8.717c4.81 0 8.717-3.907 8.717-8.416 0-4.81-3.908-8.716-8.717-8.716h-8.717v-8.717c0-4.81-3.907-8.717-8.716-8.717-4.81 0-8.416 3.908-8.416 8.717v8.717h-8.717c-4.81 0-8.717 3.907-8.717 8.716 0 4.51 3.908 8.416 8.717 8.416h8.717v8.717c0 4.81 3.606 8.717 8.416 8.717 4.81 0 8.716-3.908 8.716-8.717v-8.717zm121.364-15.042s0-.302-.3-.302c-2.113-12.666-10.864-22.92-22.33-27.746v-11.762c0-1.508-1.207-2.714-3.017-2.714h-34.7c-1.51 0-2.716 1.206-2.716 2.714v19.302c-.3.3-.905.603-1.207.905H76.34l-.906-.904v-19.302c0-1.508-1.508-2.714-3.017-2.714h-34.7c-1.508 0-3.017 1.206-3.017 2.714v11.762c-11.466 4.826-20.217 15.08-22.33 27.746v.302L.303 842.174c0 1.207-.302 2.112-.302 3.318C0 856.652 9.052 866 20.216 866c6.337 0 12.07-3.016 15.993-7.54l16.896-21.11c3.62 3.317 8.147 5.428 13.578 5.428 11.164 0 20.216-9.048 20.216-20.207 0-5.73-2.413-10.856-6.336-14.475h29.872c-3.923 3.62-6.336 8.746-6.336 14.476 0 11.16 9.052 20.208 20.216 20.208 5.43 0 10.26-2.11 13.88-5.43l16.897 21.112c3.62 4.524 9.354 7.54 15.69 7.54C181.95 866 191 856.65 191 845.794c0-1.508 0-2.413-.302-3.62l-11.768-66.65zM122 739h29v7.077c-3.02-.923-5.74-1.23-8.76-1.23-7.553 0-14.5 2.153-20.24 6.153v-12zm-12 23c-3.588 5.672-5.98 12.537-5.98 20 0 7.164 2.392 14.03 5.98 20H81c3.887-5.97 5.98-12.836 5.98-20 0-7.463-2.093-14.328-5.98-20h29zm-69-23h29v12c-5.8-4-12.82-6.154-20.453-6.154-3.052 0-5.8.308-8.547 1.23V739zm-9.44 115.844C28.852 858.18 24.642 860 20.132 860 12.315 860 6 853.63 6 845.44v-2.426L14.42 796c5.11 12.74 17.44 22.445 31.874 23.355v3.034c0 3.638.902 7.278 2.706 10.31l-17.44 22.144zM67.44 837c-8.19 0-14.558-6.646-14.558-14.5 0-1.51.303-3.323.91-4.833.303-.907 0-2.115-.304-2.72-.606-.905-1.516-1.207-2.426-1.207h-1.214C32.256 813.74 18 799.542 18 782.02 18 764.2 32.256 750 49.848 750 67.44 750 82 764.5 82 782.02c0 8.46-3.336 16.615-9.706 22.657-.607.604-.91 1.51-.607 2.417 0 .906.607 1.812 1.517 2.114C78.664 811.625 82 816.76 82 822.5c0 7.854-6.673 14.5-14.56 14.5zm56.66 0c-7.8 0-14.1-6.646-14.1-14.5 0-5.74 3.3-10.875 8.4-13.292.9-.302 1.5-1.208 1.8-2.114 0-.907-.3-1.813-.9-2.417-6-6.042-9.3-14.198-9.3-22.656C110 764.2 124.1 750 141.5 750s31.5 14.198 31.5 32.02c0 17.522-14.1 31.72-31.8 31.72h-.6c-.9 0-1.8.302-2.4 1.208-.6.604-.9 1.812-.6 2.72.6 1.51.9 3.322.9 4.832 0 7.854-6.3 14.5-14.4 14.5zm46.567 23c-4.48 0-8.36-1.82-11.348-5.156L142 832.7c1.792-3.032 2.986-6.672 2.986-10.31 0-.91-.298-2.125-.298-3.035 14.333-.91 26.576-10.616 31.652-23.355l8.36 47.014c.3.91.3 1.82.3 2.427 0 8.19-6.57 14.56-14.333 14.56zm-46.316-46c-4.473 0-8.35 3.81-8.35 8.5 0 4.69 3.877 8.5 8.35 8.5 4.773 0 8.65-3.81 8.65-8.5 0-4.69-3.877-8.5-8.65-8.5zm.492 12c-1.58 0-2.842-1.263-2.842-2.842 0-1.58 1.263-3.158 2.842-3.158 1.895 0 3.158 1.58 3.158 3.158 0 1.58-1.263 2.842-3.158 2.842zM67 814c-4.966 0-9 3.81-9 8.5 0 4.69 4.034 8.5 9 8.5s9-3.81 9-8.5c0-4.69-4.034-8.5-9-8.5zm.158 12c-1.895 0-3.158-1.263-3.158-2.842 0-1.58 1.58-3.158 3.158-3.158 1.58 0 2.842 1.58 2.842 3.158 0 1.58-1.263 2.842-2.842 2.842zM151 799.5c0-4.69-4.034-8.5-9-8.5s-9 3.81-9 8.5c0 4.69 4.034 8.5 9 8.5s9-3.81 9-8.5zm-12 .342c0-1.58 1.5-2.842 3-2.842s3 1.263 3 2.842c0 1.58-1.5 3.158-3 3.158s-3-1.58-3-3.158zm-6-18.193c0-4.773-3.877-8.65-8.65-8.65-4.473 0-8.35 3.877-8.35 8.65 0 4.473 3.877 8.35 8.35 8.35 4.773 0 8.65-3.877 8.65-8.35zm-11 .508c0-1.895 1.263-3.158 2.842-3.158 1.895 0 3.158 1.263 3.158 3.158 0 1.58-1.263 2.842-3.158 2.842-1.58 0-2.842-1.263-2.842-2.842zM159.35 790c4.773 0 8.65-3.877 8.65-8.35 0-4.773-3.877-8.65-8.65-8.65-4.473 0-8.35 3.877-8.35 8.65 0 4.473 3.877 8.35 8.35 8.35zm-.508-11c1.895 0 3.158 1.263 3.158 3.158 0 1.58-1.263 2.842-3.158 2.842-1.58 0-2.842-1.263-2.842-2.842 0-1.895 1.263-3.158 2.842-3.158zM142 773c4.966 0 9-3.81 9-8.5 0-4.69-4.034-8.5-9-8.5s-9 3.81-9 8.5c0 4.69 4.034 8.5 9 8.5zm0-11c1.5 0 3 1.263 3 2.842 0 1.58-1.5 3.158-3 3.158s-3-1.58-3-3.158c0-1.58 1.5-2.842 3-2.842zm-87.328 22.687c-1.493 0-2.687 1.492-2.687 2.985v11.343c0 1.492-1.194 2.985-2.985 2.985-1.493 0-2.687-1.493-2.687-2.985v-11.343c0-1.493-1.492-2.985-2.985-2.985H31.985c-1.79 0-2.985-1.194-2.985-2.687 0-1.79 1.194-2.985 2.985-2.985h11.343c1.493 0 2.985-1.194 2.985-2.985v-11.343c0-1.493 1.194-2.687 2.687-2.687 1.79 0 2.985 1.194 2.985 2.687v11.343c0 1.79 1.194 2.985 2.687 2.985h11.64c1.494 0 2.688 1.194 2.688 2.985 0 1.493-1.194 2.687-2.687 2.687h-11.64z" fill="#E74C3C"/><path d="M94.5 482c49.255 0 89.5 39.945 89.5 89.5 0 49.255-40.245 89.5-89.5 89.5C44.945 661 5 620.755 5 571.5 5 521.945 44.945 482 94.5 482z" fill="#27AE60"/><path d="M177.975 565.524v-.302c-2.405-12.666-11.124-22.92-22.548-27.746v-11.762c0-1.508-1.202-2.714-2.705-2.714H118.15c-1.805 0-3.008 1.206-3.008 2.714v19.302l-.9.905H75.758l-.902-.904v-19.302c0-1.508-1.504-2.714-3.007-2.714H37.28c-1.503 0-2.705 1.206-2.705 2.714v11.762c-11.725 4.826-20.143 15.08-22.548 27.746v.302L.3 632.174c-.3 1.207-.3 2.112-.3 3.318C0 646.652 9.02 656 20.142 656c6.013 0 11.725-3.016 15.633-7.54l16.836-21.11c3.608 3.317 8.418 5.428 13.53 5.428 11.123 0 20.142-9.048 20.142-20.207 0-5.73-2.405-10.856-6.314-14.475h29.763c-3.607 3.62-6.012 8.746-6.012 14.476 0 11.16 9.02 20.208 20.143 20.208 5.112 0 9.922-2.11 13.53-5.43l16.835 21.112c3.908 4.524 9.62 7.54 15.633 7.54C180.98 656 190 646.65 190 635.794c0-1.508 0-2.413-.3-3.62l-11.725-66.65z" fill="#FFF"/><path d="M57.566 580.566h8.717c4.81 0 8.717-3.907 8.717-8.416 0-4.81-3.908-8.716-8.717-8.716h-8.717v-8.717c0-4.81-3.907-8.717-8.416-8.717-4.81 0-8.716 3.908-8.716 8.717v8.717h-8.717c-4.81 0-8.717 3.907-8.717 8.716 0 4.51 3.908 8.416 8.717 8.416h8.717v8.717c0 4.81 3.907 8.717 8.716 8.717 4.51 0 8.416-3.908 8.416-8.717v-8.717zm120.41-15.042v-.302c-2.406-12.666-11.125-22.92-22.55-27.746v-11.762c0-1.508-1.2-2.714-2.704-2.714H118.15c-1.805 0-3.008 1.206-3.008 2.714v19.302l-.9.905H75.758l-.902-.904v-19.302c0-1.508-1.504-2.714-3.007-2.714H37.28c-1.503 0-2.705 1.206-2.705 2.714v11.762c-11.725 4.826-20.143 15.08-22.548 27.746v.302L.3 632.174c-.3 1.207-.3 2.112-.3 3.318C0 646.652 9.02 656 20.142 656c6.013 0 11.725-3.016 15.633-7.54l16.836-21.11c3.608 3.317 8.418 5.428 13.53 5.428 11.123 0 20.142-9.048 20.142-20.207 0-5.73-2.405-10.856-6.314-14.475h29.763c-3.607 3.62-6.012 8.746-6.012 14.476 0 11.16 9.02 20.208 20.143 20.208 5.112 0 9.922-2.11 13.53-5.43l16.835 21.112c3.908 4.524 9.62 7.54 15.633 7.54C180.98 656 190 646.65 190 635.794c0-1.508 0-2.413-.3-3.62l-11.725-66.65zM121 529h29v7.077c-2.72-.923-5.74-1.23-8.76-1.23-7.25 0-14.198 2.153-20.24 6.153v-12zm-12.296 23c-3.55 5.672-5.622 12.537-5.622 20 0 7.164 2.07 14.03 5.918 20H80c3.847-5.97 5.918-12.836 5.918-20 0-7.463-2.07-14.328-5.918-20h28.704zM40 529h29v12c-6.042-4-12.99-6.154-20.24-6.154-3.02 0-6.04.308-8.76 1.23V529zm-8.618 115.844C28.694 648.18 24.514 650 20.332 650 12.273 650 6 643.63 6 635.44v-2.426L14.36 586c5.376 12.74 17.32 22.445 31.953 23.355-.3.91-.3 2.124-.3 3.034 0 3.638 1.195 7.278 2.987 10.31l-17.618 22.144zM65.668 627c-7.763 0-14.332-6.646-14.332-14.5 0-1.51.3-3.323.896-4.833.3-.907.3-2.115-.298-2.72-.598-.905-1.493-1.207-2.39-1.207h-.895c-17.617 0-31.65-14.198-31.65-31.72C17 554.2 31.033 540 48.65 540 65.966 540 80 554.5 80 572.02c0 8.46-3.284 16.615-9.256 22.657-.896.604-1.194 1.51-.896 2.417.3.906.896 1.812 1.493 2.114C76.717 601.625 80 606.76 80 612.5c0 7.854-6.57 14.5-14.332 14.5zm57.664 0C115.27 627 109 620.354 109 612.5c0-5.74 3.284-10.875 8.36-13.292.896-.302 1.493-1.208 1.792-2.114 0-.907-.3-1.813-.896-2.417-5.972-6.042-9.256-14.198-9.256-22.656C109 554.2 123.033 540 140.35 540c17.318 0 31.65 14.198 31.65 32.02 0 17.522-14.332 31.72-31.948 31.72h-.597c-.896 0-1.79.302-2.39 1.208-.596.604-.596 1.812-.297 2.72.597 1.51.896 3.322.896 4.832 0 7.854-6.57 14.5-14.332 14.5zm46.335 23c-4.48 0-8.36-1.82-11.05-5.156L141 622.7c1.792-3.032 2.986-6.672 2.986-10.31 0-.91 0-2.125-.298-3.035 14.333-.91 26.576-10.616 31.95-23.355l8.063 47.014c.3.91.3 1.82.3 2.427 0 8.19-6.27 14.56-14.333 14.56zm-46.018-46c-4.773 0-8.65 3.81-8.65 8.5 0 4.69 3.877 8.5 8.65 8.5 4.77 0 8.35-3.81 8.35-8.5 0-4.69-3.58-8.5-8.35-8.5zm.508 12c-1.895 0-3.158-1.263-3.158-2.842 0-1.58 1.263-3.158 3.158-3.158 1.58 0 2.842 1.58 2.842 3.158 0 1.58-1.263 2.842-2.842 2.842zM65.5 604c-4.69 0-8.5 3.81-8.5 8.5 0 4.69 3.81 8.5 8.5 8.5 4.69 0 8.5-3.81 8.5-8.5 0-4.69-3.81-8.5-8.5-8.5zm.5 12c-1.5 0-3-1.263-3-2.842 0-1.58 1.5-3.158 3-3.158s3 1.58 3 3.158c0 1.58-1.5 2.842-3 2.842zm83-26.5c0-4.69-3.81-8.5-8.5-8.5-4.69 0-8.5 3.81-8.5 8.5 0 4.69 3.81 8.5 8.5 8.5 4.69 0 8.5-3.81 8.5-8.5zm-11 .342c0-1.58 1.263-2.842 2.842-2.842 1.895 0 3.158 1.263 3.158 2.842 0 1.58-1.263 3.158-3.158 3.158-1.58 0-2.842-1.58-2.842-3.158zm-6-18.193c0-4.773-3.58-8.65-8.35-8.65-4.773 0-8.65 3.877-8.65 8.65 0 4.473 3.877 8.35 8.65 8.35 4.77 0 8.35-3.877 8.35-8.35zm-11 .508c0-1.895 1.263-3.158 3.158-3.158 1.58 0 2.842 1.263 2.842 3.158 0 1.58-1.263 2.842-2.842 2.842-1.895 0-3.158-1.263-3.158-2.842zM158.65 580c4.77 0 8.35-3.877 8.35-8.35 0-4.773-3.58-8.65-8.35-8.65-4.773 0-8.65 3.877-8.65 8.65 0 4.473 3.877 8.35 8.65 8.35zm-.492-11c1.58 0 2.842 1.263 2.842 3.158 0 1.58-1.263 2.842-2.842 2.842-1.895 0-3.158-1.263-3.158-2.842 0-1.895 1.263-3.158 3.158-3.158zm-17.658-6c4.69 0 8.5-3.81 8.5-8.5 0-4.69-3.81-8.5-8.5-8.5-4.69 0-8.5 3.81-8.5 8.5 0 4.69 3.81 8.5 8.5 8.5zm.342-11c1.895 0 3.158 1.263 3.158 2.842 0 1.58-1.263 3.158-3.158 3.158-1.58 0-2.842-1.58-2.842-3.158 0-1.58 1.263-2.842 2.842-2.842zm-85.42 22.687c-1.822 0-3.037 1.492-3.037 2.985v11.343c0 1.492-1.215 2.985-2.733 2.985-1.822 0-3.037-1.493-3.037-2.985v-11.343c0-1.493-1.215-2.985-3.037-2.985h-11.54c-1.52 0-3.038-1.194-3.038-2.687 0-1.79 1.52-2.985 3.037-2.985h11.54c1.823 0 3.038-1.194 3.038-2.985v-11.343c0-1.493 1.215-2.687 3.037-2.687 1.518 0 2.733 1.194 2.733 2.687v11.343c0 1.79 1.215 2.985 3.037 2.985h11.54c1.52 0 3.038 1.194 3.038 2.985 0 1.493-1.52 2.687-3.037 2.687h-11.54z" fill="#2C3E50"/><path d="M237.007 521c-2.765 0-5.007 2.23-5.007 4.993v90.014c0 2.757 2.233 4.993 5.007 4.993h589.986c2.765 0 5.007-2.23 5.007-4.993v-90.014c0-2.757-2.233-4.993-5.007-4.993H237.007zM232 543v56l-23-28 23-28z" fill="#C3ECFF"/><text fill="#34495E" font-family="Helvetica" font-size="32" transform="translate(0 29)"><tspan x="260" y="554" fill="#000">Note List controller is running</tspan></text><path d="M237.007 732c-2.765 0-5.007 2.23-5.007 4.993v90.014c0 2.757 2.233 4.993 5.007 4.993h589.986c2.765 0 5.007-2.23 5.007-4.993v-90.014c0-2.757-2.233-4.993-5.007-4.993H237.007zM232 754v56l-23-28 23-28z" fill="#C3ECFF"/><text fill="#34495E" font-family="Helvetica" font-size="32" transform="translate(0 29)"><tspan x="260" y="764" fill="#000">Note Details controller is not running</tspan></text><path fill="#EEE" d="M899 0h10v900h-10z"/><g><path d="M1111.122 33h547.756c4.512 0 8.122 3.61 8.122 8.124v382.752c0 4.513-3.61 8.124-8.122 8.124h-547.756c-4.212 0-8.122-3.61-8.122-8.124V41.124c0-4.513 3.91-8.124 8.122-8.124z" fill="#BDC3C7"/><path d="M1111.345 29h548.31c3.613 0 6.624 1.503 8.732 3.607 2.41 2.104 3.613 5.41 3.613 8.717v382.352c0 3.306-1.204 6.613-3.613 8.717-2.108 2.405-5.12 3.607-8.732 3.607h-548.31c-3.312 0-6.323-1.202-8.732-3.607-2.107-2.104-3.613-5.41-3.613-8.717V41.324c0-3.306 1.506-6.613 3.613-8.717 2.41-2.104 5.42-3.607 8.732-3.607zm548.74 8h-548.47c-.904 0-1.808.6-2.71 1.202-.604.6-.905 1.803-.905 2.704v382.188c0 1.202.3 2.103.904 2.704.903.6 1.807 1.202 2.71 1.202h548.47c1.205 0 2.11-.6 2.71-1.202.905-.6 1.206-1.502 1.206-2.704V40.906c0-.9-.3-2.103-1.205-2.704-.602-.6-1.506-1.202-2.71-1.202z" fill="#7F8C8D"/><path d="M1643.993 55c1.804 0 3.007 1.517 3.007 3.338v37.324c0 1.82-1.203 3.338-3.007 3.338h-516.685c-1.804 0-3.308-1.517-3.308-3.338V58.338c0-1.82 1.504-3.338 3.308-3.338h516.685z" fill="#FFF"/><path d="M1127.418 53h517.164c1.505 0 2.71.604 3.612 1.51 1.204.905 1.806 2.415 1.806 3.924v37.132c0 1.51-.602 3.02-1.806 3.925-.903.906-2.107 1.51-3.612 1.51h-517.164c-1.505 0-2.71-.604-3.913-1.51-.903-.905-1.505-2.415-1.505-3.924V58.434c0-1.51.602-3.02 1.505-3.925 1.204-.906 2.408-1.51 3.913-1.51zm516.68 4h-516.895c-.3 0-.6.305-.902.305 0 .306-.3.61-.3.916v37.56c0 .304.3.61.3.915.302 0 .603.305.903.305h516.894c.3 0 .602-.305.602-.305.3-.306.3-.61.3-.916V58.22c0-.304 0-.61-.3-.915 0 0-.302-.305-.603-.305z" fill="#7F8C8D"/><path d="M1127.28 55H1172v44h-44.72c-1.79 0-3.28-1.517-3.28-3.338V58.338c0-1.82 1.49-3.338 3.28-3.338z" fill="#7F8C8D"/><path d="M1127.45 53H1175v48h-47.55c-1.513 0-2.724-.604-3.936-1.51-.908-.905-1.514-2.415-1.514-3.924V58.434c0-1.51.606-3.02 1.514-3.925 1.212-.906 2.423-1.51 3.937-1.51zm42.55 4h-42.795c-.3 0-.602.305-.904.305 0 .306-.3.61-.3.916v37.56c0 .304.3.61.3.915.303 0 .604.305.905.305H1170V57z" fill="#7F8C8D"/><path d="M1138 76.148l10.348-6.222L1159 64v24l-10.652-5.926L1138 76.148z" fill="#BDC3C7"/><path fill="#D8D8D8" d="M1121 116h530v295h-530z"/><path fill="#FFF" d="M1133 130h198v38h-198zM1345 130h294v267h-294zM1133 178h198v38h-198zM1133 226h198v38h-198z"/><text fill="#888" font-family="Helvetica" font-size="22" transform="translate(970 29)"><tspan x="170" y="128" fill="#000">Note </tspan> <tspan x="222.583" y="128" font-weight="bold" fill="#000">#1</tspan></text><text fill="#888" font-family="Helvetica" font-size="22" transform="translate(970 29)"><tspan x="388" y="133" fill="#000">Note </tspan> <tspan x="440.583" y="133" font-weight="bold" fill="#000">#1</tspan></text><text fill="#888" font-family="Helvetica" font-size="22" transform="translate(970 29)"><tspan x="170" y="176" fill="#000">Note </tspan> <tspan x="222.583" y="176" font-weight="bold" fill="#000">#2</tspan></text><text fill="#888" font-family="Helvetica" font-size="22" transform="translate(970 29)"><tspan x="170" y="223" fill="#000">Note </tspan> <tspan x="222.583" y="223" font-weight="bold" fill="#000">#3</tspan></text><path d="M1064.5 482c49.255 0 89.5 39.945 89.5 89.5 0 49.255-40.245 89.5-89.5 89.5-49.555 0-89.5-40.245-89.5-89.5 0-49.555 39.945-89.5 89.5-89.5z" fill="#27AE60"/><path d="M1147.975 565.524v-.302c-2.405-12.666-11.124-22.92-22.548-27.746v-11.762c0-1.508-1.202-2.714-2.705-2.714h-34.573c-1.805 0-3.008 1.206-3.008 2.714v19.302l-.9.905h-38.483l-.902-.904v-19.302c0-1.508-1.504-2.714-3.007-2.714h-34.572c-1.503 0-2.705 1.206-2.705 2.714v11.762c-11.725 4.826-20.143 15.08-22.548 27.746v.302l-11.724 66.65c-.3 1.207-.3 2.112-.3 3.318 0 11.16 9.02 20.508 20.142 20.508 6.013 0 11.725-3.016 15.633-7.54l16.836-21.11c3.608 3.317 8.418 5.428 13.53 5.428 11.123 0 20.142-9.048 20.142-20.207 0-5.73-2.405-10.856-6.314-14.475h29.763c-3.607 3.62-6.012 8.746-6.012 14.476 0 11.16 9.02 20.208 20.143 20.208 5.112 0 9.922-2.11 13.53-5.43l16.835 21.112c3.908 4.524 9.62 7.54 15.633 7.54 11.123 0 20.142-9.35 20.142-20.206 0-1.508 0-2.413-.3-3.62l-11.725-66.65z" fill="#FFF"/><path d="M1027.566 580.566h8.717c4.81 0 8.717-3.907 8.717-8.416 0-4.81-3.908-8.716-8.717-8.716h-8.717v-8.717c0-4.81-3.907-8.717-8.416-8.717-4.81 0-8.716 3.908-8.716 8.717v8.717h-8.717c-4.81 0-8.717 3.907-8.717 8.716 0 4.51 3.908 8.416 8.717 8.416h8.717v8.717c0 4.81 3.907 8.717 8.716 8.717 4.51 0 8.416-3.908 8.416-8.717v-8.717zm120.41-15.042v-.302c-2.406-12.666-11.125-22.92-22.55-27.746v-11.762c0-1.508-1.2-2.714-2.704-2.714h-34.573c-1.805 0-3.008 1.206-3.008 2.714v19.302l-.9.905h-38.483l-.902-.904v-19.302c0-1.508-1.504-2.714-3.007-2.714h-34.572c-1.503 0-2.705 1.206-2.705 2.714v11.762c-11.725 4.826-20.143 15.08-22.548 27.746v.302l-11.724 66.65c-.3 1.207-.3 2.112-.3 3.318 0 11.16 9.02 20.508 20.142 20.508 6.013 0 11.725-3.016 15.633-7.54l16.836-21.11c3.608 3.317 8.418 5.428 13.53 5.428 11.123 0 20.142-9.048 20.142-20.207 0-5.73-2.405-10.856-6.314-14.475h29.763c-3.607 3.62-6.012 8.746-6.012 14.476 0 11.16 9.02 20.208 20.143 20.208 5.112 0 9.922-2.11 13.53-5.43l16.835 21.112c3.908 4.524 9.62 7.54 15.633 7.54 11.123 0 20.142-9.35 20.142-20.206 0-1.508 0-2.413-.3-3.62l-11.725-66.65zM1091 529h29v7.077c-2.72-.923-5.74-1.23-8.76-1.23-7.25 0-14.198 2.153-20.24 6.153v-12zm-12.296 23c-3.55 5.672-5.622 12.537-5.622 20 0 7.164 2.07 14.03 5.918 20h-29c3.847-5.97 5.918-12.836 5.918-20 0-7.463-2.07-14.328-5.918-20h28.704zM1010 529h29v12c-6.042-4-12.99-6.154-20.24-6.154-3.02 0-6.04.308-8.76 1.23V529zm-8.618 115.844c-2.688 3.336-6.868 5.156-11.05 5.156-8.06 0-14.332-6.37-14.332-14.56v-2.426L984.36 586c5.376 12.74 17.32 22.445 31.952 23.355-.298.91-.298 2.124-.298 3.034 0 3.638 1.194 7.278 2.986 10.31l-17.618 22.144zM1035.668 627c-7.763 0-14.332-6.646-14.332-14.5 0-1.51.3-3.323.896-4.833.3-.907.3-2.115-.298-2.72-.598-.905-1.493-1.207-2.39-1.207h-.895c-17.617 0-31.65-14.198-31.65-31.72 0-17.822 14.033-32.02 31.65-32.02 17.317 0 31.35 14.5 31.35 32.02 0 8.46-3.284 16.615-9.256 22.657-.896.604-1.194 1.51-.896 2.417.3.906.896 1.812 1.493 2.114 5.376 2.417 8.66 7.552 8.66 13.292 0 7.854-6.57 14.5-14.332 14.5zm57.664 0c-8.062 0-14.332-6.646-14.332-14.5 0-5.74 3.284-10.875 8.36-13.292.896-.302 1.493-1.208 1.792-2.114 0-.907-.3-1.813-.896-2.417-5.972-6.042-9.256-14.198-9.256-22.656 0-17.822 14.033-32.02 31.35-32.02 17.318 0 31.65 14.198 31.65 32.02 0 17.522-14.332 31.72-31.948 31.72h-.597c-.896 0-1.79.302-2.39 1.208-.596.604-.596 1.812-.297 2.72.597 1.51.896 3.322.896 4.832 0 7.854-6.57 14.5-14.332 14.5zm46.335 23c-4.48 0-8.36-1.82-11.05-5.156L1111 622.7c1.792-3.032 2.986-6.672 2.986-10.31 0-.91 0-2.125-.3-3.035 14.335-.91 26.578-10.616 31.953-23.355l8.06 47.014c.3.91.3 1.82.3 2.427 0 8.19-6.27 14.56-14.333 14.56zm-46.018-46c-4.773 0-8.65 3.81-8.65 8.5 0 4.69 3.877 8.5 8.65 8.5 4.77 0 8.35-3.81 8.35-8.5 0-4.69-3.58-8.5-8.35-8.5zm.508 12c-1.895 0-3.158-1.263-3.158-2.842 0-1.58 1.263-3.158 3.158-3.158 1.58 0 2.842 1.58 2.842 3.158 0 1.58-1.263 2.842-2.842 2.842zm-58.658-12c-4.69 0-8.5 3.81-8.5 8.5 0 4.69 3.81 8.5 8.5 8.5 4.69 0 8.5-3.81 8.5-8.5 0-4.69-3.81-8.5-8.5-8.5zm.5 12c-1.5 0-3-1.263-3-2.842 0-1.58 1.5-3.158 3-3.158s3 1.58 3 3.158c0 1.58-1.5 2.842-3 2.842zm83-26.5c0-4.69-3.81-8.5-8.5-8.5-4.69 0-8.5 3.81-8.5 8.5 0 4.69 3.81 8.5 8.5 8.5 4.69 0 8.5-3.81 8.5-8.5zm-11 .342c0-1.58 1.263-2.842 2.842-2.842 1.895 0 3.158 1.263 3.158 2.842 0 1.58-1.263 3.158-3.158 3.158-1.58 0-2.842-1.58-2.842-3.158zm-6-18.193c0-4.773-3.58-8.65-8.35-8.65-4.773 0-8.65 3.877-8.65 8.65 0 4.473 3.877 8.35 8.65 8.35 4.77 0 8.35-3.877 8.35-8.35zm-11 .508c0-1.895 1.263-3.158 3.158-3.158 1.58 0 2.842 1.263 2.842 3.158 0 1.58-1.263 2.842-2.842 2.842-1.895 0-3.158-1.263-3.158-2.842zm37.65 7.842c4.77 0 8.35-3.877 8.35-8.35 0-4.773-3.58-8.65-8.35-8.65-4.773 0-8.65 3.877-8.65 8.65 0 4.473 3.877 8.35 8.65 8.35zm-.492-11c1.58 0 2.842 1.263 2.842 3.158 0 1.58-1.263 2.842-2.842 2.842-1.895 0-3.158-1.263-3.158-2.842 0-1.895 1.263-3.158 3.158-3.158zm-17.658-6c4.69 0 8.5-3.81 8.5-8.5 0-4.69-3.81-8.5-8.5-8.5-4.69 0-8.5 3.81-8.5 8.5 0 4.69 3.81 8.5 8.5 8.5zm.342-11c1.895 0 3.158 1.263 3.158 2.842 0 1.58-1.263 3.158-3.158 3.158-1.58 0-2.842-1.58-2.842-3.158 0-1.58 1.263-2.842 2.842-2.842zm-85.42 22.687c-1.822 0-3.037 1.492-3.037 2.985v11.343c0 1.492-1.215 2.985-2.733 2.985-1.822 0-3.037-1.493-3.037-2.985v-11.343c0-1.493-1.215-2.985-3.037-2.985h-11.54c-1.52 0-3.038-1.194-3.038-2.687 0-1.79 1.52-2.985 3.037-2.985h11.54c1.823 0 3.038-1.194 3.038-2.985v-11.343c0-1.493 1.215-2.687 3.037-2.687 1.518 0 2.733 1.194 2.733 2.687v11.343c0 1.79 1.215 2.985 3.037 2.985h11.54c1.52 0 3.038 1.194 3.038 2.985 0 1.493-1.52 2.687-3.037 2.687h-11.54z" fill="#2C3E50"/><path d="M1064.5 692c49.255 0 89.5 39.945 89.5 89.5 0 49.255-40.245 89.5-89.5 89.5-49.555 0-89.5-40.245-89.5-89.5 0-49.555 39.945-89.5 89.5-89.5z" fill="#27AE60"/><path d="M1147.975 775.524v-.302c-2.405-12.666-11.124-22.92-22.548-27.746v-11.762c0-1.508-1.202-2.714-2.705-2.714h-34.573c-1.805 0-3.008 1.206-3.008 2.714v19.302l-.9.905h-38.483l-.902-.904v-19.302c0-1.508-1.504-2.714-3.007-2.714h-34.572c-1.503 0-2.705 1.206-2.705 2.714v11.762c-11.725 4.826-20.143 15.08-22.548 27.746v.302l-11.724 66.65c-.3 1.207-.3 2.112-.3 3.318 0 11.16 9.02 20.508 20.142 20.508 6.013 0 11.725-3.016 15.633-7.54l16.836-21.11c3.608 3.317 8.418 5.428 13.53 5.428 11.123 0 20.142-9.048 20.142-20.207 0-5.73-2.405-10.856-6.314-14.475h29.763c-3.607 3.62-6.012 8.746-6.012 14.476 0 11.16 9.02 20.208 20.143 20.208 5.112 0 9.922-2.11 13.53-5.43l16.835 21.112c3.908 4.524 9.62 7.54 15.633 7.54 11.123 0 20.142-9.35 20.142-20.206 0-1.508 0-2.413-.3-3.62l-11.725-66.65z" fill="#FFF"/><path d="M1027.566 790.566h8.717c4.81 0 8.717-3.907 8.717-8.416 0-4.81-3.908-8.716-8.717-8.716h-8.717v-8.717c0-4.81-3.907-8.717-8.416-8.717-4.81 0-8.716 3.908-8.716 8.717v8.717h-8.717c-4.81 0-8.717 3.907-8.717 8.716 0 4.51 3.908 8.416 8.717 8.416h8.717v8.717c0 4.81 3.907 8.717 8.716 8.717 4.51 0 8.416-3.908 8.416-8.717v-8.717zm120.41-15.042v-.302c-2.406-12.666-11.125-22.92-22.55-27.746v-11.762c0-1.508-1.2-2.714-2.704-2.714h-34.573c-1.805 0-3.008 1.206-3.008 2.714v19.302l-.9.905h-38.483l-.902-.904v-19.302c0-1.508-1.504-2.714-3.007-2.714h-34.572c-1.503 0-2.705 1.206-2.705 2.714v11.762c-11.725 4.826-20.143 15.08-22.548 27.746v.302l-11.724 66.65c-.3 1.207-.3 2.112-.3 3.318 0 11.16 9.02 20.508 20.142 20.508 6.013 0 11.725-3.016 15.633-7.54l16.836-21.11c3.608 3.317 8.418 5.428 13.53 5.428 11.123 0 20.142-9.048 20.142-20.207 0-5.73-2.405-10.856-6.314-14.475h29.763c-3.607 3.62-6.012 8.746-6.012 14.476 0 11.16 9.02 20.208 20.143 20.208 5.112 0 9.922-2.11 13.53-5.43l16.835 21.112c3.908 4.524 9.62 7.54 15.633 7.54 11.123 0 20.142-9.35 20.142-20.206 0-1.508 0-2.413-.3-3.62l-11.725-66.65zM1091 739h29v7.077c-2.72-.923-5.74-1.23-8.76-1.23-7.25 0-14.198 2.153-20.24 6.153v-12zm-12.296 23c-3.55 5.672-5.622 12.537-5.622 20 0 7.164 2.07 14.03 5.918 20h-29c3.847-5.97 5.918-12.836 5.918-20 0-7.463-2.07-14.328-5.918-20h28.704zM1010 739h29v12c-6.042-4-12.99-6.154-20.24-6.154-3.02 0-6.04.308-8.76 1.23V739zm-8.618 115.844c-2.688 3.336-6.868 5.156-11.05 5.156-8.06 0-14.332-6.37-14.332-14.56v-2.426L984.36 796c5.376 12.74 17.32 22.445 31.952 23.355-.298.91-.298 2.124-.298 3.034 0 3.638 1.194 7.278 2.986 10.31l-17.618 22.144zM1035.668 837c-7.763 0-14.332-6.646-14.332-14.5 0-1.51.3-3.323.896-4.833.3-.907.3-2.115-.298-2.72-.598-.905-1.493-1.207-2.39-1.207h-.895c-17.617 0-31.65-14.198-31.65-31.72 0-17.822 14.033-32.02 31.65-32.02 17.317 0 31.35 14.5 31.35 32.02 0 8.46-3.284 16.615-9.256 22.657-.896.604-1.194 1.51-.896 2.417.3.906.896 1.812 1.493 2.114 5.376 2.417 8.66 7.552 8.66 13.292 0 7.854-6.57 14.5-14.332 14.5zm57.664 0c-8.062 0-14.332-6.646-14.332-14.5 0-5.74 3.284-10.875 8.36-13.292.896-.302 1.493-1.208 1.792-2.114 0-.907-.3-1.813-.896-2.417-5.972-6.042-9.256-14.198-9.256-22.656 0-17.822 14.033-32.02 31.35-32.02 17.318 0 31.65 14.198 31.65 32.02 0 17.522-14.332 31.72-31.948 31.72h-.597c-.896 0-1.79.302-2.39 1.208-.596.604-.596 1.812-.297 2.72.597 1.51.896 3.322.896 4.832 0 7.854-6.57 14.5-14.332 14.5zm46.335 23c-4.48 0-8.36-1.82-11.05-5.156L1111 832.7c1.792-3.032 2.986-6.672 2.986-10.31 0-.91 0-2.125-.3-3.035 14.335-.91 26.578-10.616 31.953-23.355l8.06 47.014c.3.91.3 1.82.3 2.427 0 8.19-6.27 14.56-14.333 14.56zm-46.018-46c-4.773 0-8.65 3.81-8.65 8.5 0 4.69 3.877 8.5 8.65 8.5 4.77 0 8.35-3.81 8.35-8.5 0-4.69-3.58-8.5-8.35-8.5zm.508 12c-1.895 0-3.158-1.263-3.158-2.842 0-1.58 1.263-3.158 3.158-3.158 1.58 0 2.842 1.58 2.842 3.158 0 1.58-1.263 2.842-2.842 2.842zm-58.658-12c-4.69 0-8.5 3.81-8.5 8.5 0 4.69 3.81 8.5 8.5 8.5 4.69 0 8.5-3.81 8.5-8.5 0-4.69-3.81-8.5-8.5-8.5zm.5 12c-1.5 0-3-1.263-3-2.842 0-1.58 1.5-3.158 3-3.158s3 1.58 3 3.158c0 1.58-1.5 2.842-3 2.842zm83-26.5c0-4.69-3.81-8.5-8.5-8.5-4.69 0-8.5 3.81-8.5 8.5 0 4.69 3.81 8.5 8.5 8.5 4.69 0 8.5-3.81 8.5-8.5zm-11 .342c0-1.58 1.263-2.842 2.842-2.842 1.895 0 3.158 1.263 3.158 2.842 0 1.58-1.263 3.158-3.158 3.158-1.58 0-2.842-1.58-2.842-3.158zm-6-18.193c0-4.773-3.58-8.65-8.35-8.65-4.773 0-8.65 3.877-8.65 8.65 0 4.473 3.877 8.35 8.65 8.35 4.77 0 8.35-3.877 8.35-8.35zm-11 .508c0-1.895 1.263-3.158 3.158-3.158 1.58 0 2.842 1.263 2.842 3.158 0 1.58-1.263 2.842-2.842 2.842-1.895 0-3.158-1.263-3.158-2.842zm37.65 7.842c4.77 0 8.35-3.877 8.35-8.35 0-4.773-3.58-8.65-8.35-8.65-4.773 0-8.65 3.877-8.65 8.65 0 4.473 3.877 8.35 8.65 8.35zm-.492-11c1.58 0 2.842 1.263 2.842 3.158 0 1.58-1.263 2.842-2.842 2.842-1.895 0-3.158-1.263-3.158-2.842 0-1.895 1.263-3.158 3.158-3.158zm-17.658-6c4.69 0 8.5-3.81 8.5-8.5 0-4.69-3.81-8.5-8.5-8.5-4.69 0-8.5 3.81-8.5 8.5 0 4.69 3.81 8.5 8.5 8.5zm.342-11c1.895 0 3.158 1.263 3.158 2.842 0 1.58-1.263 3.158-3.158 3.158-1.58 0-2.842-1.58-2.842-3.158 0-1.58 1.263-2.842 2.842-2.842zm-85.42 22.687c-1.822 0-3.037 1.492-3.037 2.985v11.343c0 1.492-1.215 2.985-2.733 2.985-1.822 0-3.037-1.493-3.037-2.985v-11.343c0-1.493-1.215-2.985-3.037-2.985h-11.54c-1.52 0-3.038-1.194-3.038-2.687 0-1.79 1.52-2.985 3.037-2.985h11.54c1.823 0 3.038-1.194 3.038-2.985v-11.343c0-1.493 1.215-2.687 3.037-2.687 1.518 0 2.733 1.194 2.733 2.687v11.343c0 1.79 1.215 2.985 3.037 2.985h11.54c1.52 0 3.038 1.194 3.038 2.985 0 1.493-1.52 2.687-3.037 2.687h-11.54z" fill="#2C3E50"/><path d="M1207.007 521c-2.765 0-5.007 2.23-5.007 4.993v90.014c0 2.757 2.233 4.993 5.007 4.993h589.986c2.765 0 5.007-2.23 5.007-4.993v-90.014c0-2.757-2.233-4.993-5.007-4.993h-589.986zM1202 543v56l-23-28 23-28z" fill="#C3ECFF"/><text fill="#34495E" font-family="Helvetica" font-size="32" transform="translate(970 29)"><tspan x="260" y="554" fill="#000">Note List controller is running</tspan></text><path d="M1207.007 732c-2.765 0-5.007 2.23-5.007 4.993v90.014c0 2.757 2.233 4.993 5.007 4.993h589.986c2.765 0 5.007-2.23 5.007-4.993v-90.014c0-2.757-2.233-4.993-5.007-4.993h-589.986zM1202 754v56l-23-28 23-28z" fill="#C3ECFF"/><text fill="#34495E" font-family="Helvetica" font-size="32" transform="translate(970 29)"><tspan x="260" y="764" fill="#000">Note Details controller is running</tspan></text><path fill="#9B9B9B" d="M1358 175h270v9h-270zM1358 191h270v9h-270zM1358 207h270v9h-270zM1358 223h179v9h-179z"/><text fill="#9B9B9B" font-family="Helvetica" font-size="22" transform="translate(970 29)"><tspan x="216" y="55" fill="#000">http://example.com/</tspan></text><text fill="#4A4A4A" font-family="Helvetica" font-size="22" font-weight="bold" transform="translate(970 29)"><tspan x="408" y="55" fill="#000">starred/1</tspan></text></g></g></svg>