<svg width="1488" height="1766" viewBox="0 0 1488 1766" xmlns="http://www.w3.org/2000/svg"><g fill="none" fill-rule="evenodd"><path d="M673.904 177.343v406.615H611v-30.59c0-3.59-6.925-2.693-9.634 0l-30.54 30.59H500c0-3.92-1.205-6.93-3.614-9.34-2.41-2.41-5.42-3.915-9.034-3.915h-10.54c-1.506-5.72-3.313-11.443-5.722-16.864-2.108-5.723-4.82-10.842-8.13-15.962l7.527-7.53c2.41-2.71 3.915-6.022 3.915-9.033 0-3.313-1.505-6.625-3.915-9.035l-17.466-17.767c-2.71-2.41-5.72-3.614-9.034-3.614-3.312 0-6.625 1.203-9.034 3.613l-7.53 7.528c-5.12-3.01-10.54-5.72-15.96-8.13-5.42-2.108-11.142-4.216-17.165-5.42v-10.842c0-3.312-1.506-6.625-3.614-9.034-2.41-2.108-5.722-3.614-9.035-3.614h-24.995c-3.614 0-6.625 1.506-9.035 3.614-2.41 2.41-3.613 5.722-3.613 9.034v10.842c-6.023 1.204-11.745 3.312-17.166 5.42-5.723 2.41-10.842 5.12-15.962 8.13l-7.53-7.527c-2.71-2.41-5.72-3.614-9.033-3.614-3.313 0-6.625 1.203-9.035 3.613l-17.767 17.767c-2.41 2.41-3.614 5.722-3.614 9.035 0 3.01 1.203 6.324 3.613 9.034l7.528 7.528c-3.01 5.12-5.72 10.24-8.13 15.96-2.108 5.422-3.915 11.144-5.42 16.865h-10.842c-3.312 0-6.625 1.506-8.733 3.915-2.41 2.41-3.915 5.42-3.915 9.035v24.694c0 3.614 1.506 6.927 3.614 9.035 2.41 2.41 5.722 3.915 9.034 3.915h10.842c1.505 5.72 3.312 11.443 5.42 17.165 2.41 5.42 5.12 10.84 8.13 15.96l-7.527 7.53c-2.41 2.41-3.614 5.722-3.614 9.034 0 3.313 1.203 6.324 3.613 9.035l4.57 4.493-57.586 57.585-13.587-13.718c-1.504-1.505-3.91 1.806-3.91 3.912v27.303l-48.748 48.747c-.933-.223-1.905-.342-2.903-.342-3.387 0-6.537 1.494-8.808 3.88-12.254-6.317-26.157-9.88-40.892-9.88C46.012 802 6 841.945 6 891.5c0 6.353.666 12.555 1.932 18.54l-7.63 42.135C0 966.65 9.052 976 20.216 976c6.337 0 12.07-3.016 15.993-7.54l4.806-6.006C56.126 974.074 75.06 981 95.65 981c20.534 0 39.453-6.97 54.544-18.66l4.9 6.12c3.62 4.524 9.353 7.54 15.69 7.54 11.164 0 20.216-9.35 20.216-20.206 0-1.508-7.828-46.247-7.828-46.247 1.2-5.833 1.828-11.87 1.828-18.047 0-25.864-10.9-49.11-28.336-65.426.854-1.653 1.336-3.5 1.336-5.423 0-1.472 49.706-54.65 49.706-54.65h23.28c2.104 0 5.112-2.107 3.608-3.612l-11.583-11.694 57.7-57.7 4.57 4.493c2.41 2.41 5.722 3.915 9.035 3.915 3.313 0 6.324-1.505 9.034-3.915l7.528-7.528c5.12 3.01 10.24 6.022 15.96 8.13 5.422 2.41 11.144 4.216 17.167 5.42v10.842c0 3.614 1.204 6.625 3.613 9.034 2.41 2.41 5.42 3.614 9.035 3.614H362v24h-16.625c-2.124 0-1.517 3.967 0 5.493L362 773.213v20.553c-3.146 1.88-5.35 5.108-5.88 8.945C311.97 808.275 278 845.8 278 891.5c0 7.05.82 13.917 2.367 20.507l-7.066 40.168C273 966.65 282.02 976 293.143 976c6.013 0 11.725-3.016 15.633-7.54l4.56-5.717c13.66 10.41 30.41 16.985 48.665 18.09V1013h-16.625c-2.124 0-1.517 3.967 0 5.493l16.625 16.72v34.896c-38.208 1.214-77 12.505-77 31.848v138.084c0 10.25 10.744 18.24 26.597 23.667L374 1070.06c36.875.85 73.7 10.775 78.478 28.055L514 1036.587v-22.572c0-2.105 2.408-5.113 3.912-3.61l11.138 11.13 58.196-58.202c-.29-.215-5.47 5.127-5.47 5.127-3.91 4.524-9.62 7.54-15.634 7.54C555.02 976 546 966.65 546 955.492c0-1.206 7.373-43.523 7.373-43.523-1.552-6.58-2.373-13.433-2.373-20.47 0-26.163 11.218-49.648 29.058-65.99-.678-1.504-1.058-3.152-1.058-4.86 0-1.27-50.538-54.65-50.538-54.65h-21.415c-2.122 0-5.154-2.107-3.638-3.612l10.697-10.715-57.69-57.58-3.396 3.394c-2.71 2.41-5.72 3.915-9.034 3.915-3.312 0-6.625-1.505-9.034-3.915l-7.53-7.528c-5.12 3.01-10.54 6.022-15.96 8.13-5.42 2.41-11.142 4.216-17.165 5.42v10.842c0 3.614-1.506 6.625-3.614 9.034-2.41 2.41-5.722 3.614-9.035 3.614H374v24h19.625c2.124 0 1.517 3.967 0 5.493L374 775.95v17.28c3.758 1.798 6.416 5.41 6.915 9.772C423.857 809.474 457 846.53 457 891.5c0 6.142-.626 12.145-1.817 17.946l7.516 42.73C463 966.65 453.98 976 442.857 976c-6.013 0-11.725-3.016-15.633-7.54l-4.988-6.255c-13.546 10.52-30.167 17.25-48.237 18.56V1013h19.625c2.124 0 1.517 3.967 0 5.493L374 1037.95v32.11c-1.718-.04-3.436-.06-5.15-.06-40.272 0-83.85 11.457-83.85 31.958v138.084c0 10.25 10.744 18.24 26.597 23.667 13.828 4.732 31.54 7.516 49.403 8.15V1306h-17.625c-2.124 0-1.517 3.967 0 5.493L361 1328.968v20.262c-3.757 1.798-6.416 5.408-6.915 9.77H94.345c-3.312 0-6.323 1.202-8.732 3.607-2.107 2.104-3.613 5.41-3.613 8.717v382.352c0 3.306 1.506 6.613 3.613 8.717 2.41 2.104 5.42 3.607 8.732 3.607h548.31c3.613 0 6.624-1.503 8.732-3.607 2.41-2.104 3.613-5.41 3.613-8.717v-382.352c0-3.306-1.204-6.613-3.613-8.717-2.108-2.405-5.12-3.607-8.732-3.607h-263.74c-.454-3.964-2.69-7.307-5.915-9.234v-19.806l18.625-18.467c1.517-1.526 2.124-5.493 0-5.493H373v-34.04c39.86-.74 80-12.105 80-31.918v-125.614L519.556 1048h28.152c2.106 0 5.417-2.406 3.912-3.91l-14.065-14.055 60.12-60.005C610.41 977.02 625.01 981 640.5 981c20.667 0 39.662-7 54.785-18.733l4.94 6.193c3.908 4.524 9.62 7.54 15.633 7.54C726.98 976 736 966.65 736 955.794c0-1.508-7.81-46.315-7.81-46.315 1.186-5.813 1.81-11.826 1.81-17.98 0-49.555-39.945-89.5-89.5-89.5-14.496 0-28.21 3.46-40.35 9.606-2.286-2.226-5.398-3.606-8.8-3.606-1.18 0-2.33.18-3.425.518L541 761.588v-29.296c0-2.106-2.122-5.417-3.638-3.912l-14.772 14.796-57.626-57.632 5.523-5.523c2.41-2.71 3.915-5.72 3.915-9.034 0-3.312-1.505-6.625-3.915-9.034l-7.528-7.53c3.31-5.12 6.022-10.54 8.13-15.96 2.41-5.722 4.216-11.444 5.72-17.165h10.542c3.614 0 6.625-1.506 9.034-3.915 2.41-2.108 3.614-5.42 3.614-9.035l71.682-.347 29.684 29.734c2.71 2.394 9.634 3.59 9.634 0V608h74.048c7.53 0 12.952-5.41 12.952-12.02V165.02c0-6.61-5.422-12.02-12.048-12.02h-19.684c-2.696-3.696-6.663-6.4-11.268-7.482V22.324c0-3.306-1.204-6.613-3.613-8.717-2.108-2.104-5.12-3.607-8.732-3.607H94.345c-3.312 0-6.323 1.503-8.732 3.607C83.506 15.71 82 19.017 82 22.324v382.352c0 3.306 1.506 6.613 3.613 8.717 2.41 2.405 5.42 3.607 8.732 3.607h548.31c3.613 0 6.624-1.202 8.732-3.607 2.41-2.104 3.613-5.41 3.613-8.717V183.482c4.028-.945 7.567-3.133 10.195-6.14h8.71z" fill-opacity=".1" fill="#000"/><path d="M94.122 4h547.756C646.39 4 650 7.61 650 12.124v382.752c0 4.513-3.61 8.124-8.122 8.124H94.122C89.91 403 86 399.39 86 394.876V12.124C86 7.61 89.91 4 94.122 4z" fill="#BDC3C7"/><path d="M94.345 0h548.31c3.613 0 6.624 1.503 8.732 3.607 2.41 2.104 3.613 5.41 3.613 8.717v382.352c0 3.306-1.204 6.613-3.613 8.717-2.108 2.405-5.12 3.607-8.732 3.607H94.345c-3.312 0-6.323-1.202-8.732-3.607-2.107-2.104-3.613-5.41-3.613-8.717V12.324c0-3.306 1.506-6.613 3.613-8.717C88.023 1.503 91.033 0 94.345 0zm548.74 8H94.615c-.904 0-1.808.6-2.71 1.202-.604.6-.905 1.803-.905 2.704v382.188c0 1.202.3 2.103.904 2.704.903.6 1.807 1.202 2.71 1.202h548.47c1.205 0 2.11-.6 2.71-1.202.905-.6 1.206-1.502 1.206-2.704V11.906c0-.9-.3-2.103-1.205-2.704-.602-.6-1.506-1.202-2.71-1.202z" fill="#7F8C8D"/><path d="M625.993 26c1.804 0 3.007 1.517 3.007 3.338v37.324c0 1.82-1.203 3.338-3.007 3.338H109.308c-1.804 0-3.308-1.517-3.308-3.338V29.338c0-1.82 1.504-3.338 3.308-3.338h516.685z" fill="#FFF"/><path d="M109.418 24h517.164c1.505 0 2.71.604 3.612 1.51 1.204.905 1.806 2.415 1.806 3.924v37.132c0 1.51-.602 3.02-1.806 3.925-.903.906-2.107 1.51-3.612 1.51H109.418c-1.505 0-2.71-.604-3.913-1.51-.903-.905-1.505-2.415-1.505-3.924V29.434c0-1.51.602-3.02 1.505-3.925 1.204-.906 2.408-1.51 3.913-1.51zm516.68 4H109.202c-.3 0-.6.305-.902.305 0 .306-.3.61-.3.916v37.56c0 .304.3.61.3.915.302 0 .603.305.903.305h516.894c.3 0 .602-.305.602-.305.3-.306.3-.61.3-.916V29.22c0-.304 0-.61-.3-.915 0 0-.302-.305-.603-.305z" fill="#7F8C8D"/><path d="M109.28 26H154v44h-44.72c-1.79 0-3.28-1.517-3.28-3.338V29.338c0-1.82 1.49-3.338 3.28-3.338z" fill="#7F8C8D"/><path d="M109.45 24H157v48h-47.55c-1.513 0-2.724-.604-3.936-1.51-.908-.905-1.514-2.415-1.514-3.924V29.434c0-1.51.606-3.02 1.514-3.925 1.212-.906 2.423-1.51 3.937-1.51zM152 28h-42.795c-.3 0-.602.305-.904.305 0 .306-.3.61-.3.916v37.56c0 .304.3.61.3.915.303 0 .604.305.905.305H152V28z" fill="#7F8C8D"/><path d="M108.318 87h142.666c1.508 0 3.016 1.504 3.016 3.308v291.384c0 1.804-1.508 3.308-3.016 3.308H108.318c-1.81 0-3.318-1.504-3.318-3.308V90.308c0-1.804 1.508-3.308 3.318-3.308z" fill="#6C9AA1"/><path d="M626.987 87H272.013c-1.808 0-3.013 1.504-3.013 3.308v291.384c0 1.804 1.205 3.308 3.013 3.308h354.974c1.808 0 3.013-1.504 3.013-3.308V90.308c0-1.804-1.205-3.308-3.013-3.308z" fill="#ECF0F1"/><path d="M120 47.148l10.348-6.222L141 35v24l-10.652-5.926L120 47.148z" fill="#BDC3C7"/><path d="M283 109h231v18H283v-18zM283 138h335v8H283v-8zM444 152h174v8H444v-8zM283 167h335v8H283v-8zM283 181h335v8H283v-8zM283 196h335v8H283v-8zM283 211h335v8H283v-8zM283 225h335v8H283v-8zM283 240h335v8H283v-8zM283 254h335v8H283v-8zM283 269h136v8H283v-8z" fill="#C0C0C0"/><path d="M283 152h156v8H283v-8z" fill="#2980B9"/><path d="M95.65 792c49.338 0 89.35 39.945 89.35 89.5 0 49.255-40.012 89.5-89.35 89.5C46.012 971 6 930.755 6 881.5 6 831.945 46.012 792 95.65 792z" fill="#C0392B"/><path d="M178.93 875.524s0-.302-.3-.302c-2.113-12.666-10.864-22.92-22.33-27.746v-11.762c0-1.508-1.207-2.714-3.017-2.714h-34.7c-1.51 0-2.716 1.206-2.716 2.714v19.302c-.3.3-.905.603-1.207.905H76.34l-.906-.904v-19.302c0-1.508-1.508-2.714-3.017-2.714h-34.7c-1.508 0-3.017 1.206-3.017 2.714v11.762c-11.466 4.826-20.217 15.08-22.33 27.746v.302L.303 942.174c0 1.207-.302 2.112-.302 3.318C0 956.652 9.052 966 20.216 966c6.337 0 12.07-3.016 15.993-7.54l16.896-21.11c3.62 3.317 8.147 5.428 13.578 5.428 11.164 0 20.216-9.048 20.216-20.207 0-5.73-2.413-10.856-6.336-14.475h29.872c-3.923 3.62-6.336 8.746-6.336 14.476 0 11.16 9.052 20.208 20.216 20.208 5.43 0 10.26-2.11 13.88-5.43l16.897 21.112c3.62 4.524 9.354 7.54 15.69 7.54C181.95 966 191 956.65 191 945.794c0-1.508 0-2.413-.302-3.62l-11.768-66.65z" fill="#ECF0F1"/><path d="M57.566 890.566h8.717c4.81 0 8.717-3.907 8.717-8.416 0-4.81-3.908-8.716-8.717-8.716h-8.717v-8.717c0-4.81-3.907-8.717-8.716-8.717-4.81 0-8.416 3.908-8.416 8.717v8.717h-8.717c-4.81 0-8.717 3.907-8.717 8.716 0 4.51 3.908 8.416 8.717 8.416h8.717v8.717c0 4.81 3.606 8.717 8.416 8.717 4.81 0 8.716-3.908 8.716-8.717v-8.717zm121.364-15.042s0-.302-.3-.302c-2.113-12.666-10.864-22.92-22.33-27.746v-11.762c0-1.508-1.207-2.714-3.017-2.714h-34.7c-1.51 0-2.716 1.206-2.716 2.714v19.302c-.3.3-.905.603-1.207.905H76.34l-.906-.904v-19.302c0-1.508-1.508-2.714-3.017-2.714h-34.7c-1.508 0-3.017 1.206-3.017 2.714v11.762c-11.466 4.826-20.217 15.08-22.33 27.746v.302L.303 942.174c0 1.207-.302 2.112-.302 3.318C0 956.652 9.052 966 20.216 966c6.337 0 12.07-3.016 15.993-7.54l16.896-21.11c3.62 3.317 8.147 5.428 13.578 5.428 11.164 0 20.216-9.048 20.216-20.207 0-5.73-2.413-10.856-6.336-14.475h29.872c-3.923 3.62-6.336 8.746-6.336 14.476 0 11.16 9.052 20.208 20.216 20.208 5.43 0 10.26-2.11 13.88-5.43l16.897 21.112c3.62 4.524 9.354 7.54 15.69 7.54C181.95 966 191 956.65 191 945.794c0-1.508 0-2.413-.302-3.62l-11.768-66.65zM122 839h29v7.077c-3.02-.923-5.74-1.23-8.76-1.23-7.553 0-14.5 2.153-20.24 6.153v-12zm-12 23c-3.588 5.672-5.98 12.537-5.98 20 0 7.164 2.392 14.03 5.98 20H81c3.887-5.97 5.98-12.836 5.98-20 0-7.463-2.093-14.328-5.98-20h29zm-69-23h29v12c-5.8-4-12.82-6.154-20.453-6.154-3.052 0-5.8.308-8.547 1.23V839zm-9.44 115.844C28.852 958.18 24.642 960 20.132 960 12.315 960 6 953.63 6 945.44v-2.426L14.42 896c5.11 12.74 17.44 22.445 31.874 23.355v3.034c0 3.638.902 7.278 2.706 10.31l-17.44 22.144zM67.44 937c-8.19 0-14.558-6.646-14.558-14.5 0-1.51.303-3.323.91-4.833.303-.907 0-2.115-.304-2.72-.606-.905-1.516-1.207-2.426-1.207h-1.214C32.256 913.74 18 899.542 18 882.02 18 864.2 32.256 850 49.848 850 67.44 850 82 864.5 82 882.02c0 8.46-3.336 16.615-9.706 22.657-.607.604-.91 1.51-.607 2.417 0 .906.607 1.812 1.517 2.114C78.664 911.625 82 916.76 82 922.5c0 7.854-6.673 14.5-14.56 14.5zm56.66 0c-7.8 0-14.1-6.646-14.1-14.5 0-5.74 3.3-10.875 8.4-13.292.9-.302 1.5-1.208 1.8-2.114 0-.907-.3-1.813-.9-2.417-6-6.042-9.3-14.198-9.3-22.656C110 864.2 124.1 850 141.5 850s31.5 14.198 31.5 32.02c0 17.522-14.1 31.72-31.8 31.72h-.6c-.9 0-1.8.302-2.4 1.208-.6.604-.9 1.812-.6 2.72.6 1.51.9 3.322.9 4.832 0 7.854-6.3 14.5-14.4 14.5zm46.567 23c-4.48 0-8.36-1.82-11.348-5.156L142 932.7c1.792-3.032 2.986-6.672 2.986-10.31 0-.91-.298-2.125-.298-3.035 14.333-.91 26.576-10.616 31.652-23.355l8.36 47.014c.3.91.3 1.82.3 2.427 0 8.19-6.57 14.56-14.333 14.56zm-46.316-46c-4.473 0-8.35 3.81-8.35 8.5 0 4.69 3.877 8.5 8.35 8.5 4.773 0 8.65-3.81 8.65-8.5 0-4.69-3.877-8.5-8.65-8.5zm.492 12c-1.58 0-2.842-1.263-2.842-2.842 0-1.58 1.263-3.158 2.842-3.158 1.895 0 3.158 1.58 3.158 3.158 0 1.58-1.263 2.842-3.158 2.842zM67 914c-4.966 0-9 3.81-9 8.5 0 4.69 4.034 8.5 9 8.5s9-3.81 9-8.5c0-4.69-4.034-8.5-9-8.5zm.158 12c-1.895 0-3.158-1.263-3.158-2.842 0-1.58 1.58-3.158 3.158-3.158 1.58 0 2.842 1.58 2.842 3.158 0 1.58-1.263 2.842-2.842 2.842zM151 899.5c0-4.69-4.034-8.5-9-8.5s-9 3.81-9 8.5c0 4.69 4.034 8.5 9 8.5s9-3.81 9-8.5zm-12 .342c0-1.58 1.5-2.842 3-2.842s3 1.263 3 2.842c0 1.58-1.5 3.158-3 3.158s-3-1.58-3-3.158zm-6-18.193c0-4.773-3.877-8.65-8.65-8.65-4.473 0-8.35 3.877-8.35 8.65 0 4.473 3.877 8.35 8.35 8.35 4.773 0 8.65-3.877 8.65-8.35zm-11 .508c0-1.895 1.263-3.158 2.842-3.158 1.895 0 3.158 1.263 3.158 3.158 0 1.58-1.263 2.842-3.158 2.842-1.58 0-2.842-1.263-2.842-2.842zM159.35 890c4.773 0 8.65-3.877 8.65-8.35 0-4.773-3.877-8.65-8.65-8.65-4.473 0-8.35 3.877-8.35 8.65 0 4.473 3.877 8.35 8.35 8.35zm-.508-11c1.895 0 3.158 1.263 3.158 3.158 0 1.58-1.263 2.842-3.158 2.842-1.58 0-2.842-1.263-2.842-2.842 0-1.895 1.263-3.158 2.842-3.158zM142 873c4.966 0 9-3.81 9-8.5 0-4.69-4.034-8.5-9-8.5s-9 3.81-9 8.5c0 4.69 4.034 8.5 9 8.5zm0-11c1.5 0 3 1.263 3 2.842 0 1.58-1.5 3.158-3 3.158s-3-1.58-3-3.158c0-1.58 1.5-2.842 3-2.842zm-87.328 22.687c-1.493 0-2.687 1.492-2.687 2.985v11.343c0 1.492-1.194 2.985-2.985 2.985-1.493 0-2.687-1.493-2.687-2.985v-11.343c0-1.493-1.492-2.985-2.985-2.985H31.985c-1.79 0-2.985-1.194-2.985-2.687 0-1.79 1.194-2.985 2.985-2.985h11.343c1.493 0 2.985-1.194 2.985-2.985v-11.343c0-1.493 1.194-2.687 2.687-2.687 1.79 0 2.985 1.194 2.985 2.687v11.343c0 1.79 1.194 2.985 2.687 2.985h11.64c1.494 0 2.688 1.194 2.688 2.985 0 1.493-1.194 2.687-2.687 2.687h-11.64z" fill="#E74C3C"/><path d="M367.5 792c49.255 0 89.5 39.945 89.5 89.5 0 49.255-40.245 89.5-89.5 89.5-49.555 0-89.5-40.245-89.5-89.5 0-49.555 39.945-89.5 89.5-89.5z" fill="#27AE60"/><path d="M450.975 875.524v-.302c-2.405-12.666-11.124-22.92-22.548-27.746v-11.762c0-1.508-1.202-2.714-2.705-2.714H391.15c-1.805 0-3.008 1.206-3.008 2.714v19.302l-.9.905h-38.483l-.902-.904v-19.302c0-1.508-1.504-2.714-3.007-2.714H310.28c-1.503 0-2.705 1.206-2.705 2.714v11.762c-11.725 4.826-20.143 15.08-22.548 27.746v.302l-11.724 66.65c-.3 1.207-.3 2.112-.3 3.318 0 11.16 9.02 20.508 20.142 20.508 6.013 0 11.725-3.016 15.633-7.54l16.836-21.11c3.608 3.317 8.418 5.428 13.53 5.428 11.123 0 20.142-9.048 20.142-20.207 0-5.73-2.405-10.856-6.314-14.475h29.763c-3.607 3.62-6.012 8.746-6.012 14.476 0 11.16 9.02 20.208 20.143 20.208 5.112 0 9.922-2.11 13.53-5.43l16.835 21.112c3.908 4.524 9.62 7.54 15.633 7.54C453.98 966 463 956.65 463 945.794c0-1.508 0-2.413-.3-3.62l-11.725-66.65z" fill="#FFF"/><path d="M330.566 890.566h8.717c4.81 0 8.717-3.907 8.717-8.416 0-4.81-3.908-8.716-8.717-8.716h-8.717v-8.717c0-4.81-3.907-8.717-8.416-8.717-4.81 0-8.716 3.908-8.716 8.717v8.717h-8.717c-4.81 0-8.717 3.907-8.717 8.716 0 4.51 3.908 8.416 8.717 8.416h8.717v8.717c0 4.81 3.907 8.717 8.716 8.717 4.51 0 8.416-3.908 8.416-8.717v-8.717zm120.41-15.042v-.302c-2.406-12.666-11.125-22.92-22.55-27.746v-11.762c0-1.508-1.2-2.714-2.704-2.714H391.15c-1.805 0-3.008 1.206-3.008 2.714v19.302l-.9.905h-38.483l-.902-.904v-19.302c0-1.508-1.504-2.714-3.007-2.714H310.28c-1.503 0-2.705 1.206-2.705 2.714v11.762c-11.725 4.826-20.143 15.08-22.548 27.746v.302l-11.724 66.65c-.3 1.207-.3 2.112-.3 3.318 0 11.16 9.02 20.508 20.142 20.508 6.013 0 11.725-3.016 15.633-7.54l16.836-21.11c3.608 3.317 8.418 5.428 13.53 5.428 11.123 0 20.142-9.048 20.142-20.207 0-5.73-2.405-10.856-6.314-14.475h29.763c-3.607 3.62-6.012 8.746-6.012 14.476 0 11.16 9.02 20.208 20.143 20.208 5.112 0 9.922-2.11 13.53-5.43l16.835 21.112c3.908 4.524 9.62 7.54 15.633 7.54C453.98 966 463 956.65 463 945.794c0-1.508 0-2.413-.3-3.62l-11.725-66.65zM394 839h29v7.077c-2.72-.923-5.74-1.23-8.76-1.23-7.25 0-14.198 2.153-20.24 6.153v-12zm-12.296 23c-3.55 5.672-5.622 12.537-5.622 20 0 7.164 2.07 14.03 5.918 20h-29c3.847-5.97 5.918-12.836 5.918-20 0-7.463-2.07-14.328-5.918-20h28.704zM313 839h29v12c-6.042-4-12.99-6.154-20.24-6.154-3.02 0-6.04.308-8.76 1.23V839zm-8.618 115.844c-2.688 3.336-6.868 5.156-11.05 5.156-8.06 0-14.332-6.37-14.332-14.56v-2.426L287.36 896c5.376 12.74 17.32 22.445 31.952 23.355-.298.91-.298 2.124-.298 3.034 0 3.638 1.194 7.278 2.986 10.31l-17.618 22.144zM338.668 937c-7.763 0-14.332-6.646-14.332-14.5 0-1.51.3-3.323.896-4.833.3-.907.3-2.115-.298-2.72-.598-.905-1.493-1.207-2.39-1.207h-.895c-17.617 0-31.65-14.198-31.65-31.72C290 864.2 304.033 850 321.65 850c17.317 0 31.35 14.5 31.35 32.02 0 8.46-3.284 16.615-9.256 22.657-.896.604-1.194 1.51-.896 2.417.3.906.896 1.812 1.493 2.114 5.376 2.417 8.66 7.552 8.66 13.292 0 7.854-6.57 14.5-14.332 14.5zm57.664 0C388.27 937 382 930.354 382 922.5c0-5.74 3.284-10.875 8.36-13.292.896-.302 1.493-1.208 1.792-2.114 0-.907-.3-1.813-.896-2.417-5.972-6.042-9.256-14.198-9.256-22.656C382 864.2 396.033 850 413.35 850c17.318 0 31.65 14.198 31.65 32.02 0 17.522-14.332 31.72-31.948 31.72h-.597c-.896 0-1.79.302-2.39 1.208-.596.604-.596 1.812-.297 2.72.597 1.51.896 3.322.896 4.832 0 7.854-6.57 14.5-14.332 14.5zm46.335 23c-4.48 0-8.36-1.82-11.05-5.156L414 932.7c1.792-3.032 2.986-6.672 2.986-10.31 0-.91 0-2.125-.298-3.035 14.333-.91 26.576-10.616 31.95-23.355l8.063 47.014c.3.91.3 1.82.3 2.427 0 8.19-6.27 14.56-14.333 14.56zm-46.018-46c-4.773 0-8.65 3.81-8.65 8.5 0 4.69 3.877 8.5 8.65 8.5 4.77 0 8.35-3.81 8.35-8.5 0-4.69-3.58-8.5-8.35-8.5zm.508 12c-1.895 0-3.158-1.263-3.158-2.842 0-1.58 1.263-3.158 3.158-3.158 1.58 0 2.842 1.58 2.842 3.158 0 1.58-1.263 2.842-2.842 2.842zM338.5 914c-4.69 0-8.5 3.81-8.5 8.5 0 4.69 3.81 8.5 8.5 8.5 4.69 0 8.5-3.81 8.5-8.5 0-4.69-3.81-8.5-8.5-8.5zm.5 12c-1.5 0-3-1.263-3-2.842 0-1.58 1.5-3.158 3-3.158s3 1.58 3 3.158c0 1.58-1.5 2.842-3 2.842zm83-26.5c0-4.69-3.81-8.5-8.5-8.5-4.69 0-8.5 3.81-8.5 8.5 0 4.69 3.81 8.5 8.5 8.5 4.69 0 8.5-3.81 8.5-8.5zm-11 .342c0-1.58 1.263-2.842 2.842-2.842 1.895 0 3.158 1.263 3.158 2.842 0 1.58-1.263 3.158-3.158 3.158-1.58 0-2.842-1.58-2.842-3.158zm-6-18.193c0-4.773-3.58-8.65-8.35-8.65-4.773 0-8.65 3.877-8.65 8.65 0 4.473 3.877 8.35 8.65 8.35 4.77 0 8.35-3.877 8.35-8.35zm-11 .508c0-1.895 1.263-3.158 3.158-3.158 1.58 0 2.842 1.263 2.842 3.158 0 1.58-1.263 2.842-2.842 2.842-1.895 0-3.158-1.263-3.158-2.842zM431.65 890c4.77 0 8.35-3.877 8.35-8.35 0-4.773-3.58-8.65-8.35-8.65-4.773 0-8.65 3.877-8.65 8.65 0 4.473 3.877 8.35 8.65 8.35zm-.492-11c1.58 0 2.842 1.263 2.842 3.158 0 1.58-1.263 2.842-2.842 2.842-1.895 0-3.158-1.263-3.158-2.842 0-1.895 1.263-3.158 3.158-3.158zm-17.658-6c4.69 0 8.5-3.81 8.5-8.5 0-4.69-3.81-8.5-8.5-8.5-4.69 0-8.5 3.81-8.5 8.5 0 4.69 3.81 8.5 8.5 8.5zm.342-11c1.895 0 3.158 1.263 3.158 2.842 0 1.58-1.263 3.158-3.158 3.158-1.58 0-2.842-1.58-2.842-3.158 0-1.58 1.263-2.842 2.842-2.842zm-85.42 22.687c-1.822 0-3.037 1.492-3.037 2.985v11.343c0 1.492-1.215 2.985-2.733 2.985-1.822 0-3.037-1.493-3.037-2.985v-11.343c0-1.493-1.215-2.985-3.037-2.985h-11.54c-1.52 0-3.038-1.194-3.038-2.687 0-1.79 1.52-2.985 3.037-2.985h11.54c1.823 0 3.038-1.194 3.038-2.985v-11.343c0-1.493 1.215-2.687 3.037-2.687 1.518 0 2.733 1.194 2.733 2.687v11.343c0 1.79 1.215 2.985 3.037 2.985h11.54c1.52 0 3.038 1.194 3.038 2.985 0 1.493-1.52 2.687-3.037 2.687h-11.54z" fill="#2C3E50"/><path d="M640.5 792c49.555 0 89.5 39.945 89.5 89.5 0 49.255-39.945 89.5-89.5 89.5-49.255 0-89.5-40.245-89.5-89.5 0-49.555 40.245-89.5 89.5-89.5z" fill="#27AE60"/><path d="M723.975 875.524v-.302c-2.405-12.666-10.823-22.92-22.548-27.746v-11.762c0-1.508-1.202-2.714-2.705-2.714H664.15c-1.805 0-3.008 1.206-3.008 2.714v19.302l-.9.905h-38.483l-.902-.904v-19.302c0-1.508-1.203-2.714-3.007-2.714H583.28c-1.503 0-2.705 1.206-2.705 2.714v11.762c-11.424 4.826-20.143 15.08-22.548 27.746v.302l-11.724 66.65c-.3 1.207-.3 2.112-.3 3.318 0 11.16 9.02 20.508 20.142 20.508 6.013 0 11.725-3.016 15.633-7.54l16.836-21.11c3.608 3.317 8.418 5.428 13.53 5.428 11.123 0 20.142-9.048 20.142-20.207 0-5.73-2.405-10.856-6.314-14.475h30.064c-3.91 3.62-6.314 8.746-6.314 14.476 0 11.16 9.02 20.208 20.143 20.208 5.112 0 9.922-2.11 13.53-5.43l16.835 21.112c3.908 4.524 9.62 7.54 15.633 7.54C726.98 966 736 956.65 736 945.794c0-1.508 0-2.413-.3-3.62l-11.725-66.65z" fill="#FFF"/><path d="M603.767 890.566h8.466c4.837 0 8.767-3.907 8.767-8.416 0-4.81-3.93-8.716-8.767-8.716h-8.466v-8.717c0-4.81-3.93-8.717-8.767-8.717s-8.767 3.908-8.767 8.717v8.717h-8.768c-4.837 0-8.465 3.907-8.465 8.716 0 4.51 3.628 8.416 8.465 8.416h8.768v8.717c0 4.81 3.93 8.717 8.767 8.717s8.767-3.908 8.767-8.717v-8.717zm120.208-15.042v-.302c-2.405-12.666-10.823-22.92-22.548-27.746v-11.762c0-1.508-1.202-2.714-2.705-2.714H664.15c-1.805 0-3.008 1.206-3.008 2.714v19.302l-.9.905h-38.483l-.902-.904v-19.302c0-1.508-1.203-2.714-3.007-2.714H583.28c-1.503 0-2.705 1.206-2.705 2.714v11.762c-11.424 4.826-20.143 15.08-22.548 27.746v.302l-11.724 66.65c-.3 1.207-.3 2.112-.3 3.318 0 11.16 9.02 20.508 20.142 20.508 6.013 0 11.725-3.016 15.633-7.54l16.836-21.11c3.608 3.317 8.418 5.428 13.53 5.428 11.123 0 20.142-9.048 20.142-20.207 0-5.73-2.405-10.856-6.314-14.475h30.064c-3.91 3.62-6.314 8.746-6.314 14.476 0 11.16 9.02 20.208 20.143 20.208 5.112 0 9.922-2.11 13.53-5.43l16.835 21.112c3.908 4.524 9.62 7.54 15.633 7.54C726.98 966 736 956.65 736 945.794c0-1.508 0-2.413-.3-3.62l-11.725-66.65zM667 839h29v7.077c-2.72-.923-5.74-1.23-8.76-1.23-7.25 0-14.198 2.153-20.24 6.153v-12zm-12 23c-3.847 5.672-5.918 12.537-5.918 20 0 7.164 2.07 14.03 5.918 20h-29c3.847-5.97 5.918-12.836 5.918-20 0-7.463-2.07-14.328-5.622-20H655zm-69-23h29v12c-6.042-4-12.99-6.154-20.24-6.154-3.02 0-6.04.308-8.76 1.23V839zm-8.618 115.844c-2.688 3.336-6.868 5.156-11.05 5.156-8.06 0-14.332-6.37-14.332-14.56 0-.606 0-1.516.3-2.426L560.36 896c5.376 12.74 17.62 22.445 31.952 23.355-.298.91-.298 2.124-.298 3.034 0 3.638 1.194 7.278 2.986 10.31l-17.618 22.144zM611.668 937c-7.763 0-14.332-6.646-14.332-14.5 0-1.51.3-3.323.896-4.833.3-.907.3-2.115-.298-2.72-.598-.905-1.493-1.207-2.39-1.207h-.895c-17.318 0-31.65-14.198-31.65-31.72C563 864.2 577.332 850 594.65 850c17.317 0 31.35 14.5 31.35 32.02 0 8.46-3.284 16.615-9.256 22.657-.597.604-.896 1.51-.896 2.417.3.906.896 1.812 1.792 2.114 5.076 2.417 8.36 7.552 8.36 13.292 0 7.854-6.27 14.5-14.332 14.5zm57.664 0C661.57 937 655 930.354 655 922.5c0-5.74 3.284-10.875 8.36-13.292.896-.302 1.493-1.208 1.792-2.114.298-.907 0-1.813-.896-2.417-5.972-6.042-9.256-14.198-9.256-22.656C655 864.2 669.033 850 686.35 850c17.617 0 31.65 14.198 31.65 32.02 0 17.522-14.033 31.72-31.948 31.72h-.597c-.896 0-1.79.302-2.39 1.208-.596.604-.596 1.812-.297 2.72.597 1.51.896 3.322.896 4.832 0 7.854-6.57 14.5-14.332 14.5zm46.335 23c-4.18 0-8.36-1.82-11.05-5.156L687 932.7c1.792-3.032 2.986-6.672 2.986-10.31 0-.91 0-2.125-.298-3.035 14.63-.91 26.576-10.616 31.95-23.355L730 943.014v2.427c0 8.19-6.27 14.56-14.333 14.56zM669.5 914c-4.69 0-8.5 3.81-8.5 8.5 0 4.69 3.81 8.5 8.5 8.5 4.69 0 8.5-3.81 8.5-8.5 0-4.69-3.81-8.5-8.5-8.5zm.5 12c-1.5 0-3-1.263-3-2.842 0-1.58 1.5-3.158 3-3.158s3 1.58 3 3.158c0 1.58-1.5 2.842-3 2.842zm-57.65-12c-4.77 0-8.35 3.81-8.35 8.5 0 4.69 3.58 8.5 8.35 8.5 4.773 0 8.65-3.81 8.65-8.5 0-4.69-3.877-8.5-8.65-8.5zm-.508 12c-1.58 0-2.842-1.263-2.842-2.842 0-1.58 1.263-3.158 2.842-3.158 1.895 0 3.158 1.58 3.158 3.158 0 1.58-1.263 2.842-3.158 2.842zM696 899.5c0-4.69-3.877-8.5-8.65-8.5-4.473 0-8.35 3.81-8.35 8.5 0 4.69 3.877 8.5 8.35 8.5 4.773 0 8.65-3.81 8.65-8.5zm-12 .342c0-1.58 1.263-2.842 2.842-2.842 1.895 0 3.158 1.263 3.158 2.842 0 1.58-1.263 3.158-3.158 3.158-1.58 0-2.842-1.58-2.842-3.158zm-6-18.193c0-4.773-3.81-8.65-8.5-8.65-4.69 0-8.5 3.877-8.5 8.65 0 4.473 3.81 8.35 8.5 8.35 4.69 0 8.5-3.877 8.5-8.35zm-11 .508c0-1.895 1.5-3.158 3-3.158s3 1.263 3 3.158c0 1.58-1.5 2.842-3 2.842s-3-1.263-3-2.842zM704.5 890c4.69 0 8.5-3.877 8.5-8.35 0-4.773-3.81-8.65-8.5-8.65-4.69 0-8.5 3.877-8.5 8.65 0 4.473 3.81 8.35 8.5 8.35zm-.5-11c1.5 0 3 1.263 3 3.158 0 1.58-1.5 2.842-3 2.842s-3-1.263-3-2.842c0-1.895 1.5-3.158 3-3.158zm-16.65-6c4.773 0 8.65-3.81 8.65-8.5 0-4.69-3.877-8.5-8.65-8.5-4.473 0-8.35 3.81-8.35 8.5 0 4.69 3.877 8.5 8.35 8.5zm-.508-11c1.895 0 3.158 1.263 3.158 2.842 0 1.58-1.263 3.158-3.158 3.158-1.58 0-2.842-1.58-2.842-3.158 0-1.58 1.263-2.842 2.842-2.842zm-86.17 22.687c-1.493 0-2.985 1.492-2.985 2.985v11.343c0 1.492-1.194 2.985-2.687 2.985-1.79 0-2.985-1.493-2.985-2.985v-11.343c0-1.493-1.194-2.985-2.687-2.985h-11.64c-1.494 0-2.688-1.194-2.688-2.687 0-1.79 1.194-2.985 2.687-2.985h11.64c1.494 0 2.688-1.194 2.688-2.985v-11.343c0-1.493 1.194-2.687 2.985-2.687 1.493 0 2.687 1.194 2.687 2.687v11.343c0 1.79 1.492 2.985 2.985 2.985h11.343c1.79 0 2.985 1.194 2.985 2.985 0 1.493-1.194 2.687-2.985 2.687h-11.343z" fill="#2C3E50"/><path d="M648.904 167.343c-6.928 0-12.35-5.41-12.35-12.322 0-6.61 5.422-12.02 12.35-12.02h37.048c6.626 0 12.048 5.41 12.048 12.02v430.96c0 6.61-5.422 12.02-12.048 12.02H410.048c-6.626 0-12.048-5.41-12.048-12.02 0-6.613 5.422-12.022 12.048-12.022h263.856V167.343h-25z" fill="#EB641E"/><path d="M368 532c29.866 0 54 24.067 54 53.85 0 29.782-24.134 54.15-54 54.15s-54-24.368-54-54.15c0-29.783 24.134-53.85 54-53.85zM374 701v98h-12v-98h12zM449.42 660L598 808.595 589.58 817 441 668.706l8.42-8.706zM295 668.706L146.706 817 138 808.595 286.595 660l8.405 8.706z" fill="#EB641E"/><path d="M356.66 459h24.98c4.815 0 8.727 3.912 8.727 8.727v14.145c13.543 2.71 26.183 8.126 37.62 15.348l9.63-9.63c3.61-3.61 9.028-3.61 12.338 0l17.756 17.455c3.31 3.31 3.31 9.028 0 12.34l-9.93 9.93c7.523 11.135 12.94 23.775 15.65 37.62h13.843c4.815 0 8.727 3.91 8.727 8.726v24.68c0 4.814-3.912 8.726-8.727 8.726H473.43c-2.71 13.844-8.127 26.484-15.65 37.62l9.93 9.93c3.31 3.31 3.31 9.03 0 12.34l-17.755 17.755c-3.31 3.31-8.728 3.31-12.34 0l-9.63-9.93c-11.435 7.523-24.075 12.64-37.618 15.65v13.843c0 4.815-3.912 8.727-8.727 8.727h-24.98c-4.814 0-8.726-3.912-8.726-8.727V690.43c-13.543-3.01-26.484-8.127-37.62-15.65l-9.93 9.93c-3.31 3.31-9.03 3.31-12.34 0l-17.454-17.755c-3.31-3.31-3.31-9.028 0-12.34l9.93-9.93c-7.522-11.135-12.94-23.775-15.648-37.62h-14.145c-4.514 0-8.727-3.91-8.727-8.726v-24.68c0-4.814 4.213-8.726 8.727-8.726h14.145c2.71-13.844 8.126-26.484 15.65-37.62l-9.932-9.93c-3.31-3.31-3.31-9.03 0-12.34l17.455-17.454c3.31-3.61 9.028-3.61 12.34 0l9.93 9.63c11.135-7.222 24.076-12.64 37.62-15.348v-14.145c0-4.815 3.91-8.727 8.726-8.727zm11.69 57c38.428 0 69.65 30.922 69.65 69.35S406.778 655 368.35 655c-38.428 0-69.35-31.222-69.35-69.65 0-38.428 30.922-69.35 69.35-69.35z" fill="#405B75"/><path d="M356.653 455h24.995c3.313 0 6.626 1.506 8.734 3.614h.3c2.11 2.41 3.615 5.722 3.615 9.034v10.842c6.023 1.204 11.744 3.312 17.165 5.42 5.42 2.41 10.84 5.12 15.96 8.13l7.53-7.527c2.41-2.41 5.722-3.614 9.034-3.614 3.313 0 6.324 1.203 9.035 3.613l17.467 17.767c2.41 2.41 3.915 5.722 3.915 9.035 0 3.01-1.505 6.324-3.915 9.034l-7.528 7.528c3.31 5.12 6.022 10.24 8.13 15.96 2.41 5.422 4.216 11.144 5.72 16.865h10.542c3.614 0 6.625 1.506 9.034 3.915 2.41 2.41 3.614 5.42 3.614 9.035v24.694c0 3.614-1.205 6.927-3.614 9.035-2.41 2.41-5.42 3.915-9.034 3.915h-10.54c-1.506 5.72-3.313 11.443-5.722 17.165-2.108 5.42-4.82 10.84-8.13 15.96l7.527 7.53c2.41 2.41 3.915 5.722 3.915 9.034 0 3.313-1.505 6.324-3.915 9.035l-17.466 17.467c-2.71 2.41-5.72 3.915-9.034 3.915-3.312 0-6.625-1.505-9.034-3.915l-7.53-7.528c-5.12 3.01-10.54 6.022-15.96 8.13-5.42 2.41-11.142 4.216-17.165 5.42v10.842c0 3.614-1.506 6.625-3.614 9.034h-.3c-2.11 2.41-5.422 3.614-8.735 3.614h-24.995c-3.614 0-6.625-1.205-9.035-3.614-2.41-2.41-3.613-5.42-3.613-9.034V693.51c-6.023-1.204-11.745-3.01-17.166-5.42-5.723-2.108-10.842-5.12-15.962-8.13l-7.53 7.527c-2.71 2.41-5.72 3.915-9.033 3.915-3.313 0-6.625-1.505-9.035-3.915l-17.767-17.466c-2.41-2.71-3.614-5.72-3.614-9.034 0-3.312 1.203-6.625 3.613-9.034l7.528-7.53c-3.01-5.12-5.72-10.54-8.13-15.96-2.108-5.722-3.915-11.444-5.42-17.165h-10.842c-3.312 0-6.625-1.506-8.733-3.915h-.3c-2.11-2.108-3.615-5.42-3.615-9.035v-24.694c0-3.614 1.506-6.625 3.614-9.035h.3c2.11-2.41 5.422-3.915 8.734-3.915h10.842c1.505-5.72 3.312-11.443 5.42-16.864 2.41-5.723 5.12-10.842 8.13-15.962l-7.527-7.53c-2.41-2.71-3.614-6.022-3.614-9.033 0-3.313 1.203-6.625 3.613-9.035l17.767-17.767c2.41-2.41 5.722-3.614 9.035-3.614 3.313 0 6.324 1.203 9.034 3.613l7.528 7.528c5.12-3.01 10.24-5.72 15.96-8.13 5.422-2.108 11.144-4.216 17.167-5.42v-10.842c0-3.312 1.204-6.625 3.613-9.034 2.41-2.108 5.42-3.614 9.035-3.614zm24.843 8h-24.992c-1.204 0-2.41.602-3.312 1.204-.903.904-1.505 2.108-1.505 3.313v17.463l-3.01.603c-6.626 1.204-12.95 3.312-18.97 5.72-6.023 2.41-12.045 5.72-17.465 9.335l-2.71 1.806-2.408-2.41-9.636-9.935c-.903-.904-2.107-1.205-3.312-1.205-1.204 0-2.41.3-3.312 1.204L273.1 507.863c-.904.903-1.205 2.108-1.205 3.312 0 1.205.3 2.41 1.204 3.312l9.935 9.636 2.41 2.408-1.807 2.71c-3.614 5.42-6.926 11.442-9.334 17.464-2.41 6.022-4.517 12.345-5.72 18.67l-.604 3.31h-17.462c-1.206 0-2.41.603-3.314 1.506-.602.903-1.204 2.108-1.204 3.312v24.69c0 1.506.602 2.71 1.204 3.313.904.903 2.108 1.505 3.313 1.505h17.463l.603 3.312c1.204 6.323 3.312 12.647 5.72 18.67 2.41 6.322 5.72 12.043 9.335 17.463l1.806 2.71-2.41 2.408-9.935 9.937c-.904.903-1.205 2.107-1.205 3.312 0 1.204.3 2.41 1.204 3.312l17.764 17.464c.903.903 2.108 1.505 3.312 1.505 1.205 0 2.41-.602 3.312-1.505l9.636-9.937 2.408-2.107 2.71 1.806c5.42 3.614 11.442 6.625 17.464 9.033 6.022 2.71 12.345 4.517 18.97 6.022l3.01.603v17.162c0 1.205.603 2.41 1.506 3.312.903.904 2.108 1.506 3.312 1.506h24.992c1.204 0 2.41-.602 3.312-1.506.602-.903 1.204-2.107 1.204-3.312V687.02l3.312-.603c6.323-1.505 12.647-3.312 18.67-6.022 6.322-2.408 12.043-5.42 17.463-9.033l2.71-1.806 2.408 2.107 9.937 9.937c.903.903 2.107 1.505 3.312 1.505 1.204 0 2.41-.602 3.312-1.505l17.464-17.464c.903-.903 1.505-2.108 1.505-3.312 0-1.205-.602-2.41-1.505-3.312l-9.937-9.937-2.107-2.41 1.806-2.708c3.614-5.42 6.625-11.14 9.334-17.464 2.41-6.022 4.216-12.346 5.72-18.67l.604-3.31h17.162c1.205 0 2.41-.603 3.312-1.506.904-.602 1.506-1.807 1.506-3.312v-24.69c0-1.205-.602-2.41-1.506-3.313-.903-.903-2.107-1.505-3.312-1.505H470.02l-.603-3.312c-1.505-6.324-3.312-12.647-5.72-18.67-2.71-6.02-5.72-12.043-9.335-17.463l-1.806-2.71 2.107-2.408 9.937-9.636c.903-.903 1.505-2.107 1.505-3.312 0-1.204-.602-2.41-1.505-3.312L447.136 490.1c-.903-.904-2.108-1.205-3.312-1.205-1.205 0-2.41.3-3.312 1.204l-9.937 9.935-2.41 2.41-2.708-1.807c-5.42-3.614-11.14-6.926-17.464-9.334-6.022-2.41-12.346-4.517-18.67-5.72l-3.31-.604v-17.462c0-1.206-.603-2.41-1.205-3.314-.903-.602-2.108-1.204-3.312-1.204zM369 512c20.54 0 38.963 8.457 52.253 21.747C434.845 547.037 443 565.763 443 586c0 20.54-8.155 38.963-21.747 52.253C407.963 651.845 389.54 660 369 660c-20.237 0-38.963-8.155-52.253-21.747C303.457 624.963 295 606.54 295 586c0-20.237 8.457-38.963 21.747-52.253S348.763 512 369 512zm45.77 27.23C403.054 527.21 386.53 520 368.5 520c-18.028 0-34.553 7.21-46.27 19.23C310.51 550.946 303 567.47 303 585.5c0 18.028 7.51 34.553 19.23 46.27C333.946 643.79 350.47 651 368.5 651c18.028 0 34.553-7.21 46.27-19.23C426.79 620.054 434 603.53 434 585.5c0-18.028-7.21-34.553-19.23-46.27z" fill="#34495E"/><path d="M145.35 798c6.927 0 12.65 5.723 12.65 12.65 0 6.627-5.723 12.35-12.65 12.35-6.627 0-12.35-5.723-12.35-12.35 0-6.927 5.723-12.65 12.35-12.65zM591.35 798c6.927 0 12.65 5.723 12.65 12.65 0 6.627-5.723 12.35-12.65 12.35-6.627 0-12.35-5.723-12.35-12.35 0-6.927 5.723-12.65 12.35-12.65zM368.5 782c7.012 0 12.5 5.488 12.5 12.5s-5.488 12.5-12.5 12.5-12.5-5.488-12.5-12.5 5.488-12.5 12.5-12.5z" fill="#EB641E"/><path d="M362 1068v-98h12v98h-12zM441 1099.595L589.58 951l8.42 8.706L449.42 1108l-8.42-8.405z" fill="#27AE60"/><path d="M285 1091.958c0-20.5 43.578-31.958 83.85-31.958 41.173 0 84.15 11.457 84.15 31.958v138.084c0 20.5-42.977 31.958-84.15 31.958-40.873 0-83.85-11.457-83.85-31.958v-138.084z" fill="#16A085"/><path d="M564.032 580.764l37.334-37.396c2.71-2.693 9.634-3.59 9.634 0v84.366c0 3.59-6.925 2.394-9.634 0l-37.334-37.396c-2.71-2.693-2.71-6.88 0-9.574z" fill="#EB641E"/><path d="M366.617 1029.856l-21.242-21.363c-1.517-1.526-2.124-5.493 0-5.493h48.25c2.124 0 1.517 3.967 0 5.493l-21.546 21.363c-1.518 1.525-3.946 1.525-5.463 0zM514 1034.09v-30.075c0-2.105 2.408-5.113 3.912-3.61l33.708 33.685c1.505 1.504-1.806 3.91-3.912 3.91h-29.796c-2.106 0-3.912-1.805-3.912-3.91z" fill="#27AE60"/><path d="M368.85 1124.23c-28.82 0-58.84-5.71-73.85-16.23v30.058c0 8.416 28.82 21.942 73.85 21.942 45.03 0 74.15-13.526 74.15-21.942V1108c-15.01 10.52-45.03 16.23-74.15 16.23zM285 1091.96c0-20.5 43.578-31.958 83.85-31.958 41.173 0 84.15 11.457 84.15 31.958v138.084c0 20.5-42.977 31.958-84.15 31.958-40.873 0-83.85-11.457-83.85-31.958v-138.084zM295 1153v30.89c0 9.39 28.22 22.11 73.85 22.11 46.23 0 74.15-12.72 74.15-22.11V1153c-15.01 10.6-45.03 16.354-74.15 16.354-28.82 0-58.84-5.754-73.85-16.354zm0 47v30.058c0 9.318 28.22 21.942 73.85 21.942 46.23 0 74.15-12.624 74.15-21.942V1200c-15.01 10.52-45.03 16.23-74.15 16.23-28.82 0-58.84-5.71-73.85-16.23zm73.85-130c-46.23 0-73.85 12.658-73.85 22s27.62 22 73.85 22c46.23 0 74.15-12.658 74.15-22s-27.92-22-74.15-22z" fill="#34495E"/><path d="M366.617 767.856l-21.242-21.363c-1.517-1.526-2.124-5.493 0-5.493h48.25c2.124 0 1.517 3.967 0 5.493l-21.546 21.363c-1.518 1.525-3.946 1.525-5.463 0zM197 752.388v-30.096c0-2.106 2.406-5.417 3.91-3.912l33.684 34.008c1.504 1.505-1.504 3.612-3.61 3.612H200.91c-2.105 0-3.91-1.505-3.91-3.612zM541 752.388v-30.096c0-2.106-2.122-5.417-3.638-3.912l-33.953 34.008c-1.517 1.505 1.515 3.612 3.637 3.612h30.315c2.122 0 3.638-1.505 3.638-3.612z" fill="#EB641E"/><path d="M94.122 1353h547.756c4.512 0 8.122 3.61 8.122 8.124v382.752c0 4.513-3.61 8.124-8.122 8.124H94.122c-4.212 0-8.122-3.61-8.122-8.124v-382.752c0-4.513 3.91-8.124 8.122-8.124z" fill="#BDC3C7"/><path d="M94.345 1349h548.31c3.613 0 6.624 1.202 8.732 3.607 2.41 2.104 3.613 5.41 3.613 8.717v382.352c0 3.306-1.204 6.613-3.613 8.717-2.108 2.104-5.12 3.607-8.732 3.607H94.345c-3.312 0-6.323-1.503-8.732-3.607-2.107-2.104-3.613-5.41-3.613-8.717v-382.352c0-3.306 1.506-6.613 3.613-8.717 2.41-2.405 5.42-3.607 8.732-3.607zm548.74 8H94.615c-.904 0-1.808.6-2.71 1.202-.604.6-.905 1.502-.905 2.704v382.188c0 .9.3 2.103.904 2.704.903.6 1.807 1.202 2.71 1.202h548.47c1.205 0 2.11-.6 2.71-1.202.905-.6 1.206-1.803 1.206-2.704v-382.188c0-1.202-.3-2.103-1.205-2.704-.602-.6-1.506-1.202-2.71-1.202z" fill="#7F8C8D"/><path d="M625.993 1375c1.804 0 3.007 1.517 3.007 3.338v37.324c0 1.82-1.203 3.338-3.007 3.338H109.308c-1.804 0-3.308-1.517-3.308-3.338v-37.324c0-1.82 1.504-3.338 3.308-3.338h516.685z" fill="#FFF"/><path d="M109.418 1372h517.164c1.505 0 2.71.604 3.612 1.51 1.204.905 1.806 2.415 1.806 3.924v37.132c0 1.51-.602 3.02-1.806 3.925-.903.906-2.107 1.51-3.612 1.51H109.418c-1.505 0-2.71-.604-3.913-1.51-.903-.905-1.505-2.415-1.505-3.924v-37.132c0-1.51.602-3.02 1.505-3.925 1.204-.906 2.408-1.51 3.913-1.51zm516.68 4H109.202c-.3 0-.6 0-.902.305 0 .306-.3.61-.3.916v37.56c0 .304.3.61.3.915.302 0 .603.305.903.305h516.894c.3 0 .602-.305.602-.305.3-.306.3-.61.3-.916v-37.56c0-.304 0-.61-.3-.915 0-.305-.302-.305-.603-.305z" fill="#7F8C8D"/><path d="M109.28 1375H154v44h-44.72c-1.79 0-3.28-1.517-3.28-3.338v-37.324c0-1.82 1.49-3.338 3.28-3.338z" fill="#7F8C8D"/><path d="M109.45 1372H157v48h-47.55c-1.513 0-2.724-.604-3.936-1.51-.908-.905-1.514-2.415-1.514-3.924v-37.132c0-1.51.606-3.02 1.514-3.925 1.212-.906 2.423-1.51 3.937-1.51zm42.55 4h-42.795c-.3 0-.602 0-.904.305 0 .306-.3.61-.3.916v37.56c0 .304.3.61.3.915.303 0 .604.305.905.305H152v-40z" fill="#7F8C8D"/><path d="M108.318 1436h142.666c1.508 0 3.016 1.504 3.016 3.308v291.384c0 1.804-1.508 3.308-3.016 3.308H108.318c-1.81 0-3.318-1.504-3.318-3.308v-291.384c0-1.804 1.508-3.308 3.318-3.308z" fill="#6C9AA1"/><path d="M626.987 1436H272.013c-1.808 0-3.013 1.504-3.013 3.308v291.384c0 1.804 1.205 3.308 3.013 3.308h354.974c1.808 0 3.013-1.504 3.013-3.308v-291.384c0-1.804-1.205-3.308-3.013-3.308z" fill="#ECF0F1"/><path d="M120 1396l10.348-6 10.652-6v24l-10.652-6-10.348-6z" fill="#FFF"/><path d="M434 1455h112v19H434v-19zM434 1482h184v8H434v-8zM434 1496h184v8H434v-8zM434 1511h87v8h-87v-8z" fill="#C0C0C0"/><path d="M367 1256v98"/><path d="M373 1256v98h-12v-98h12z" fill="#34495E"/><path d="M366.5 1338c7.012 0 12.5 5.488 12.5 12.5s-5.488 12.5-12.5 12.5-12.5-5.488-12.5-12.5 5.488-12.5 12.5-12.5zM364.92 1322.856l-21.545-21.363c-1.517-1.526-2.124-5.493 0-5.493h48.25c2.124 0 1.517 3.967 0 5.493l-21.546 21.363c-1.214 1.525-3.946 1.525-5.16 0z" fill="#34495E"/><path d="M285 1530.283L325.26 1508l34.852 31.617 28.242-16.862L419 1529.98v55.708c0 1.806-1.502 3.312-3.305 3.312h-127.39c-1.803 0-3.305-1.506-3.305-3.312v-55.405zM378.65 1470c6.928 0 12.35 5.488 12.35 12.5s-5.422 12.5-12.35 12.5c-6.927 0-12.65-5.488-12.65-12.5s5.723-12.5 12.65-12.5z" fill="#C0C0C0"/><path d="M288.4 1453h127.2c1.5 0 2.7.6 3.6 1.5 1.2 1.2 1.8 2.4 1.8 3.9v127.2c0 1.5-.6 2.7-1.8 3.9-.9.9-2.1 1.5-3.6 1.5H288.4c-1.5 0-3-.6-3.9-1.5-.9-1.2-1.5-2.4-1.5-3.9v-127.2c0-1.5.6-2.7 1.5-3.9.9-.9 2.4-1.5 3.9-1.5zm126.702 4H288.197c-.3 0-.598.3-.898.3 0 .302-.3.603-.3.904v127.592c0 .3.3.602.3.602.3.3.598.602.897.602h126.905c.3 0 .6-.3.6-.602.298 0 .298-.3.298-.602v-127.592c0-.3 0-.602-.3-.903 0 0-.3-.3-.598-.3z" fill="#C0C0C0"/><path d="M650.5 135c10.8 0 19.5 8.7 19.5 19.5s-8.7 19.5-19.5 19.5-19.5-8.7-19.5-19.5 8.7-19.5 19.5-19.5z" fill="#EB641E"/><path d="M363.5 126c8.455 0 16.005 3.284 21.44 8.657 5.436 5.373 9.06 13.134 9.06 21.194 0 8.36-3.624 15.822-9.06 21.493-5.435 5.373-12.985 8.657-21.44 8.657-8.455 0-16.005-3.284-21.44-8.657-5.436-5.67-9.06-13.134-9.06-21.492 0-8.06 3.624-15.82 9.06-21.193 5.435-5.373 12.985-8.657 21.44-8.657zm19.34 11.115c-4.835-5.11-11.785-8.115-19.34-8.115s-14.505 3.005-19.643 8.115c-4.835 4.808-7.857 11.72-7.857 19.235 0 7.814 3.022 14.426 7.857 19.535 5.138 4.81 12.088 8.115 19.643 8.115 7.555 0 14.505-3.306 19.34-8.115 5.138-5.11 8.16-11.72 8.16-19.535 0-7.514-3.022-14.427-8.16-19.235z" fill="#34495E"/><path d="M363.5 138c5.156 0 9.705 1.785 13.04 5.058 3.337 3.273 5.46 8.033 5.46 12.793 0 5.06-2.123 9.522-5.46 12.795-3.335 3.272-7.884 5.355-13.04 5.355-5.156 0-9.705-2.083-13.04-5.355-3.337-3.273-5.46-7.736-5.46-12.794 0-4.76 2.123-9.52 5.46-12.792 3.335-3.273 7.884-5.058 13.04-5.058zm8.93 8.87c-2.382-2.382-5.36-3.87-8.93-3.87-3.57 0-6.548 1.488-8.93 3.87-2.082 2.082-3.57 5.356-3.57 8.63 0 3.57 1.488 6.548 3.57 8.93 2.382 2.082 5.36 3.57 8.93 3.57 3.57 0 6.548-1.19 8.93-3.57 2.082-2.382 3.57-5.36 3.57-8.93 0-3.274-1.488-6.548-3.57-8.63z" fill="#34495E"/><path d="M356.742 166.942v26.562l-5.68-3.32c-3.29-1.81-6.577-1.207-8.97.906-1.494 1.51-2.092 3.018-2.092 4.83 0 1.81.598 3.62 1.794 4.828l15.247 16.3c.3.302.6.302.898.603v12.68c0 .602.3 1.206.897 1.508 14.95 9.055 29.3.604 29.897 0 .598-.302.897-.906.897-1.51v-12.375c5.08-4.527 8.37-10.866 8.37-18.11v-10.565c0-3.622-2.99-6.64-6.876-6.64-.897 0-1.794.302-2.69.604-.898-2.717-3.29-4.83-6.578-4.83-1.196 0-2.392.302-3.588.906-1.196-1.81-3.29-3.32-5.68-3.32-.897 0-1.794.3-2.69.603v-9.658c0-3.924-2.99-6.942-6.578-6.942s-6.578 3.018-6.578 6.942z" fill-opacity=".2" fill="#000"/><path d="M356.742 156.942v26.562l-5.68-3.32c-3.29-1.81-6.577-1.207-8.97.906-1.494 1.51-2.092 3.018-2.092 4.83 0 1.81.598 3.62 1.794 4.828l15.247 16.3c.3.302.6.302.898.603v12.68c0 .602.3 1.206.897 1.508 14.95 9.055 29.3.604 29.897 0 .598-.302.897-.906.897-1.51v-12.375c5.08-4.527 8.37-10.866 8.37-18.11v-10.565c0-3.622-2.99-6.64-6.876-6.64-.897 0-1.794.302-2.69.604-.898-2.717-3.29-4.83-6.578-4.83-1.196 0-2.392.302-3.588.906-1.196-1.81-3.29-3.32-5.68-3.32-.897 0-1.794.3-2.69.603v-9.658c0-3.924-2.99-6.942-6.578-6.942s-6.578 3.018-6.578 6.942z" fill="#FFF"/><path d="M365.444 218.692c.593.308.89.308 1.482.308.593 0 .89 0 1.48-.308.298-.615.594-.923.594-1.538 0-.616-.296-1.23-.593-1.54-.592-.306-.888-.614-1.48-.614-.594 0-.89.308-1.483.615-.592.923-.592 2.154 0 3.077zm-8.702-61.75v26.562l-5.68-3.32c-3.29-1.81-6.577-1.207-8.97.906-1.494 1.51-2.092 3.018-2.092 4.83 0 1.81.598 3.62 1.794 4.828l15.247 16.3c.3.302.6.302.898.603v12.68c0 .602.3 1.206.897 1.508 14.95 9.055 29.3.604 29.897 0 .598-.302.897-.906.897-1.51v-12.375c5.08-4.527 8.37-10.866 8.37-18.11v-10.565c0-3.622-2.99-6.64-6.876-6.64-.897 0-1.794.302-2.69.604-.898-2.717-3.29-4.83-6.578-4.83-1.196 0-2.392.302-3.588.906-1.196-1.81-3.29-3.32-5.68-3.32-.897 0-1.794.3-2.69.603v-9.658c0-3.924-2.99-6.942-6.578-6.942s-6.578 3.018-6.578 6.942zM386 211v8.273c-3 1.477-13.5 5.318-24 0V211c3.6 2.068 7.8 3.25 12 3.25 4.5 0 8.4-1.182 12-3.25zm-19.97-54.276v24.52c0 .907.902 1.815 2.105 1.815.903 0 1.805-.91 1.805-1.817v-8.778c0-1.514 1.203-2.724 2.707-2.724 1.503 0 2.706 1.21 2.706 2.725v9.686c0 1.212.903 2.12 2.106 2.12.9 0 1.803-.908 1.803-2.12v-7.264c0-1.513 1.203-2.724 2.707-2.724 1.504 0 2.707 1.21 2.707 2.724v8.476c0 1.21.902 2.12 2.105 2.12.902 0 1.804-.91 1.804-2.12v-4.238c0-1.513 1.203-2.724 2.707-2.724 1.504 0 2.707 1.21 2.707 2.724v10.595c0 6.356-2.707 11.804-7.218 15.437v.302c-3.61 2.724-8.12 4.54-12.932 4.54-5.113 0-10.226-2.12-14.136-6.054L344.677 187.6c-.903-.908-.903-2.724 0-3.632 1.503-1.514 3.61-.91 4.21-.303l7.82 4.238v2.724c0 1.21.902 2.12 1.804 2.12 1.204 0 2.107-.91 2.107-2.12v-33.903c0-1.513 1.203-2.724 2.706-2.724 1.504 0 2.707 1.21 2.707 2.724z" fill="#2C3E50"/><path d="M167.547 1386.727h2.11v6.42c.5-.63.948-1.077 1.347-1.334.68-.446 1.527-.668 2.543-.668 1.82 0 3.055.636 3.703 1.91.352.695.527 1.66.527 2.894v8.05h-2.168v-7.91c0-.922-.118-1.598-.352-2.027-.383-.688-1.102-1.032-2.156-1.032-.875 0-1.668.302-2.38.904-.71.6-1.066 1.738-1.066 3.41V1404h-2.11v-17.273zm13.77 1.218h2.132v3.504h2.003v1.722h-2.004v8.19c0 .44.148.732.445.88.164.086.437.13.82.13.1 0 .21-.003.328-.007.117-.004.254-.013.41-.03V1404c-.242.07-.494.12-.756.152-.26.032-.545.047-.85.047-.984 0-1.652-.253-2.003-.757-.352-.504-.528-1.158-.528-1.963v-8.308h-1.7v-1.723h1.7v-3.505zm6.667 0h2.133v3.504h2.004v1.722h-2.003v8.19c0 .44.15.732.446.88.164.086.437.13.82.13.1 0 .21-.003.328-.007.118-.004.255-.013.41-.03V1404c-.24.07-.493.12-.755.152-.26.032-.545.047-.85.047-.984 0-1.652-.253-2.003-.757-.352-.504-.528-1.158-.528-1.963v-8.308h-1.7v-1.723h1.7v-3.505zm6.082 3.563h2.05v1.664c.423-.57.884-1.012 1.384-1.324.71-.47 1.547-.703 2.508-.703 1.422 0 2.63.544 3.62 1.634.993 1.09 1.49 2.646 1.49 4.67 0 2.734-.716 4.687-2.145 5.86-.907.74-1.96 1.112-3.164 1.112-.947 0-1.74-.207-2.38-.62-.375-.236-.793-.638-1.254-1.208v6.41h-2.11v-17.496zm7.916 9.838c.653-.825.98-2.057.98-3.698 0-1-.146-1.86-.435-2.578-.547-1.383-1.547-2.074-3-2.074-1.46 0-2.46.73-3 2.19-.29.783-.433 1.775-.433 2.978 0 .97.144 1.793.433 2.473.547 1.297 1.547 1.945 3 1.945.985 0 1.803-.412 2.455-1.236zm6.71-9.733h2.45v2.555h-2.45v-2.555zm0 9.832h2.45V1404h-2.45v-2.555zm9.468-14.66h1.78L214.48 1404h-1.78l5.46-17.215zm6.668 0h1.78L221.15 1404h-1.78l5.46-17.215zm10.57 5.01c.836.418 1.473.96 1.91 1.623.422.633.704 1.37.844 2.215.125.578.188 1.5.188 2.765h-9.2c.04 1.274.34 2.295.903 3.065.562.77 1.434 1.154 2.613 1.154 1.102 0 1.98-.363 2.637-1.09.375-.422.64-.91.797-1.465h2.074c-.055.46-.236.975-.545 1.542-.31.566-.655 1.03-1.038 1.388-.64.625-1.434 1.047-2.38 1.266-.507.125-1.08.187-1.722.187-1.562 0-2.886-.568-3.972-1.705-1.086-1.136-1.63-2.728-1.63-4.775 0-2.016.548-3.652 1.642-4.91 1.093-1.258 2.523-1.887 4.29-1.887.89 0 1.752.21 2.588.627zm.774 4.928c-.086-.914-.285-1.645-.598-2.192-.578-1.014-1.543-1.522-2.894-1.522-.97 0-1.782.35-2.438 1.05-.656.698-1.004 1.587-1.043 2.665h6.972zm3.562-5.274h2.73l2.884 4.417 2.918-4.418 2.566.058-4.23 6.058 4.418 6.434h-2.696l-3.117-4.71-3.023 4.71h-2.672l4.418-6.434-4.196-6.117zm19.922 4.945c.485-.063.81-.266.973-.61.093-.187.14-.457.14-.808 0-.72-.256-1.24-.768-1.565-.512-.324-1.244-.486-2.197-.486-1.102 0-1.883.297-2.344.89-.257.33-.425.817-.503 1.465h-1.97c.04-1.546.542-2.622 1.507-3.227.965-.606 2.084-.908 3.358-.908 1.476 0 2.675.28 3.597.843.913.563 1.37 1.438 1.37 2.625v7.23c0 .22.045.395.135.528.09.134.28.2.568.2.094 0 .2-.006.317-.017.117-.012.242-.03.375-.053v1.56c-.328.092-.578.15-.75.174-.172.024-.406.036-.703.036-.727 0-1.254-.258-1.582-.774-.172-.273-.293-.66-.364-1.16-.43.562-1.046 1.05-1.85 1.465-.806.415-1.693.622-2.66.622-1.165 0-2.117-.354-2.855-1.06-.737-.708-1.106-1.592-1.106-2.655 0-1.164.363-2.066 1.09-2.707.726-.64 1.68-1.035 2.86-1.184l3.362-.42zm-4.44 5.707c.444.35.97.527 1.58.527.743 0 1.462-.173 2.157-.517 1.172-.57 1.758-1.504 1.758-2.8v-1.7c-.257.164-.59.3-.995.41-.406.11-.805.188-1.195.235l-1.278.164c-.765.1-1.34.262-1.722.48-.65.368-.973.953-.973 1.758 0 .61.223 1.09.668 1.442zm11.06-10.653h2.087v1.78c.5-.617.953-1.066 1.36-1.347.695-.477 1.484-.715 2.367-.715 1 0 1.805.246 2.414.738.344.282.656.696.937 1.242.47-.67 1.02-1.17 1.654-1.494.633-.324 1.343-.486 2.133-.486 1.687 0 2.835.61 3.445 1.828.328.656.492 1.54.492 2.65V1404h-2.19v-8.72c0-.835-.21-1.41-.628-1.72-.418-.314-.928-.47-1.53-.47-.828 0-1.54.277-2.138.832-.598.555-.897 1.48-.897 2.777v7.3h-2.143v-8.19c0-.853-.102-1.474-.305-1.865-.32-.586-.918-.88-1.793-.88-.798 0-1.522.31-2.175.927-.652.617-.978 1.735-.978 3.352V1404h-2.11v-12.55zm19.83.058h2.05v1.664c.422-.57.883-1.012 1.383-1.324.71-.47 1.546-.703 2.507-.703 1.422 0 2.63.544 3.62 1.634.993 1.09 1.49 2.646 1.49 4.67 0 2.734-.716 4.687-2.145 5.86-.907.74-1.96 1.112-3.164 1.112-.946 0-1.74-.207-2.38-.62-.374-.236-.792-.638-1.253-1.208v6.41h-2.11v-17.496zm7.915 9.838c.654-.825.98-2.057.98-3.698 0-1-.145-1.86-.434-2.578-.546-1.383-1.546-2.074-3-2.074-1.46 0-2.46.73-3 2.19-.29.783-.433 1.775-.433 2.978 0 .97.144 1.793.433 2.473.547 1.297 1.547 1.945 3 1.945.985 0 1.803-.412 2.455-1.236zm5.656-14.56h2.11V1404h-2.11v-17.215zm13.09 5.01c.836.417 1.472.958 1.91 1.622.422.633.703 1.37.844 2.215.125.578.187 1.5.187 2.765h-9.2c.04 1.274.34 2.295.903 3.065s1.434 1.154 2.613 1.154c1.102 0 1.98-.363 2.637-1.09.375-.422.64-.91.797-1.465h2.074c-.053.46-.235.975-.544 1.542-.308.566-.654 1.03-1.037 1.388-.64.625-1.434 1.047-2.38 1.266-.508.125-1.082.187-1.722.187-1.563 0-2.887-.568-3.973-1.705-1.086-1.136-1.63-2.728-1.63-4.775 0-2.016.548-3.652 1.642-4.91 1.093-1.258 2.523-1.887 4.29-1.887.89 0 1.753.21 2.59.627zm.773 4.927c-.087-.914-.286-1.645-.6-2.192-.577-1.014-1.542-1.522-2.893-1.522-.97 0-1.78.35-2.438 1.05-.657.698-1.005 1.587-1.044 2.665h6.973zm5.26 4.722h2.45V1404h-2.45v-2.555zm14.456-9.328c.887.688 1.42 1.87 1.6 3.55h-2.05c-.126-.772-.41-1.415-.857-1.927-.446-.51-1.16-.767-2.145-.767-1.344 0-2.305.656-2.883 1.968-.375.853-.563 1.904-.563 3.154 0 1.258.265 2.316.796 3.176.532.86 1.367 1.29 2.508 1.29.875 0 1.568-.27 2.08-.804.512-.535.865-1.268 1.06-2.197h2.05c-.233 1.663-.82 2.88-1.756 3.65-.938.77-2.137 1.153-3.598 1.153-1.64 0-2.95-.6-3.926-1.8-.976-1.198-1.465-2.696-1.465-4.493 0-2.203.535-3.918 1.605-5.144 1.07-1.227 2.433-1.84 4.09-1.84 1.414 0 2.564.344 3.45 1.03zm12.873.586c1.116 1.078 1.675 2.664 1.675 4.758 0 2.024-.492 3.696-1.477 5.017-.984 1.32-2.512 1.98-4.582 1.98-1.726 0-3.098-.584-4.113-1.752-1.016-1.168-1.524-2.736-1.524-4.705 0-2.11.535-3.79 1.605-5.04 1.07-1.25 2.508-1.874 4.312-1.874 1.618 0 2.985.54 4.102 1.617zm-1.308 8.35c.52-1.06.78-2.237.78-3.533 0-1.172-.188-2.125-.563-2.86-.595-1.156-1.618-1.734-3.07-1.734-1.29 0-2.228.492-2.814 1.476-.586.985-.88 2.172-.88 3.563 0 1.336.294 2.45.88 3.34.586.89 1.516 1.336 2.79 1.336 1.398 0 2.357-.53 2.876-1.587zm5.49-9.604h2.086v1.78c.5-.617.954-1.066 1.36-1.347.695-.477 1.484-.715 2.367-.715 1 0 1.805.246 2.414.738.343.282.655.696.937 1.242.468-.67 1.02-1.17 1.652-1.494.632-.324 1.343-.486 2.132-.486 1.687 0 2.836.61 3.445 1.828.328.656.492 1.54.492 2.65V1404h-2.192v-8.72c0-.835-.21-1.41-.627-1.72-.417-.314-.927-.47-1.528-.47-.83 0-1.54.277-2.14.832-.597.555-.896 1.48-.896 2.777v7.3h-2.144v-8.19c0-.853-.102-1.474-.305-1.865-.32-.586-.918-.88-1.793-.88-.797 0-1.52.31-2.174.927-.652.617-.978 1.735-.978 3.352V1404h-2.11v-12.55zm23.907-4.665H376L370.54 1404h-1.782l5.46-17.215z" fill="#7F8C8D"/><path d="M382.27 1386.568l.703.053v2.72c-.188-.024-.502-.04-.944-.053-.442-.012-.747.086-.915.293-.168.207-.252.436-.252.686v1.078h2.192v2.355h-2.192v10.3h-3.328v-10.3h-1.863v-2.356h1.828v-.82c0-1.368.23-2.31.69-2.825.486-.766 1.654-1.15 3.505-1.15.21 0 .403.007.575.018zm13.36 15.88c-1.08 1.33-2.716 1.997-4.91 1.997-2.197 0-3.833-.666-4.91-1.998-1.08-1.332-1.62-2.935-1.62-4.81 0-1.844.54-3.442 1.62-4.793 1.077-1.352 2.713-2.028 4.91-2.028 2.194 0 3.83.676 4.91 2.028 1.077 1.35 1.616 2.95 1.616 4.793 0 1.875-.54 3.478-1.617 4.81zm-2.673-1.846c.523-.696.785-1.684.785-2.965 0-1.282-.262-2.268-.785-2.96-.523-.69-1.273-1.036-2.25-1.036-.977 0-1.728.346-2.256 1.038-.526.69-.79 1.677-.79 2.96 0 1.28.264 2.268.79 2.964.53.695 1.28 1.043 2.257 1.043.977 0 1.727-.348 2.25-1.043zm17.332 1.845c-1.08 1.332-2.716 1.998-4.91 1.998-2.196 0-3.833-.666-4.91-1.998-1.08-1.332-1.618-2.935-1.618-4.81 0-1.844.54-3.442 1.617-4.793 1.077-1.352 2.714-2.028 4.91-2.028 2.194 0 3.83.676 4.91 2.028 1.077 1.35 1.616 2.95 1.616 4.793 0 1.875-.54 3.478-1.617 4.81zm-2.673-1.845c.524-.696.785-1.684.785-2.965 0-1.282-.26-2.268-.785-2.96-.523-.69-1.273-1.036-2.25-1.036-.976 0-1.728.346-2.256 1.038-.526.69-.79 1.677-.79 2.96 0 1.28.264 2.268.79 2.964.53.695 1.28 1.043 2.257 1.043.977 0 1.727-.348 2.25-1.043zm10.5-14.403h2.778l-6.715 17.8h-2.754l6.69-17.8zm13.694 6.562c.95 1.21 1.424 2.773 1.424 4.687 0 1.984-.468 3.628-1.406 4.933-.937 1.305-2.246 1.957-3.926 1.957-1.054 0-1.902-.21-2.543-.633-.383-.25-.797-.687-1.243-1.312V1404h-3.27v-17.25h3.33v6.14c.42-.593.885-1.046 1.393-1.36.602-.39 1.367-.585 2.297-.585 1.68 0 2.994.606 3.944 1.817zm-2.794 7.78c.476-.694.714-1.608.714-2.74 0-.907-.117-1.657-.35-2.25-.446-1.126-1.267-1.69-2.462-1.69-1.21 0-2.043.552-2.496 1.654-.235.586-.352 1.343-.352 2.273 0 1.093.242 2 .727 2.718.484.72 1.223 1.078 2.215 1.078.86 0 1.527-.348 2.004-1.043zm11.625-4.312c.618-.078 1.06-.175 1.325-.293.476-.203.715-.52.715-.95 0-.522-.182-.883-.545-1.083-.364-.2-.897-.3-1.6-.3-.79 0-1.347.197-1.676.587-.235.29-.39.68-.47 1.173h-3.222c.07-1.117.383-2.035.937-2.754.883-1.126 2.4-1.688 4.547-1.688 1.4 0 2.64.277 3.727.832 1.085.555 1.628 1.6 1.628 3.14v5.86c0 .406.008.898.023 1.476.025.438.09.735.2.89.11.157.274.286.493.388v.492h-3.633c-.102-.258-.172-.5-.21-.727-.04-.226-.07-.484-.095-.773-.46.5-.992.926-1.594 1.277-.717.414-1.53.62-2.436.62-1.156 0-2.11-.33-2.865-.99-.755-.66-1.132-1.594-1.132-2.805 0-1.57.605-2.707 1.816-3.41.664-.383 1.64-.657 2.93-.82l1.137-.142zm2.028 1.56c-.21.132-.424.24-.64.32-.214.083-.508.16-.883.23l-.75.14c-.704.125-1.207.278-1.512.457-.516.305-.774.778-.774 1.418 0 .57.158.983.474 1.237.316.254.7.38 1.154.38.72 0 1.38-.21 1.987-.632.605-.422.92-1.192.943-2.31v-1.24zm13.4-6.862c.043.004.14.01.287.017v3.422c-.21-.023-.398-.04-.562-.047-.164-.007-.297-.01-.398-.01-1.344 0-2.247.436-2.707 1.31-.258.493-.387 1.25-.387 2.275V1404h-3.363v-12.773h3.188v2.226c.516-.85.965-1.433 1.348-1.746.625-.523 1.437-.785 2.437-.785.063 0 .115.002.158.006zm6.065-4.73h2.777L458.195 1404h-2.754l6.693-17.8zm13.693 6.564c.95 1.21 1.424 2.773 1.424 4.687 0 1.984-.47 3.628-1.406 4.933-.938 1.305-2.246 1.957-3.926 1.957-1.055 0-1.902-.21-2.543-.633-.383-.25-.797-.687-1.242-1.312V1404h-3.27v-17.25h3.328v6.14c.423-.593.888-1.046 1.396-1.36.602-.39 1.367-.585 2.297-.585 1.68 0 2.994.606 3.943 1.817zm-2.795 7.78c.478-.694.716-1.608.716-2.74 0-.907-.117-1.657-.35-2.25-.447-1.126-1.267-1.69-2.462-1.69-1.21 0-2.043.552-2.497 1.654-.234.586-.35 1.343-.35 2.273 0 1.093.24 2 .726 2.718.484.72 1.222 1.078 2.214 1.078.86 0 1.528-.348 2.004-1.043zm11.626-4.312c.617-.078 1.06-.175 1.324-.293.477-.203.715-.52.715-.95 0-.522-.18-.883-.545-1.083-.363-.2-.896-.3-1.6-.3-.788 0-1.347.197-1.675.587-.234.29-.39.68-.47 1.173h-3.22c.07-1.117.38-2.035.936-2.754.884-1.126 2.4-1.688 4.548-1.688 1.398 0 2.64.277 3.727.832 1.085.555 1.628 1.6 1.628 3.14v5.86c0 .406.008.898.024 1.476.023.438.09.735.2.89.108.157.273.286.49.388v.492h-3.632c-.1-.258-.17-.5-.21-.727-.04-.226-.07-.484-.094-.773-.46.5-.99.926-1.593 1.277-.72.414-1.53.62-2.437.62-1.157 0-2.112-.33-2.866-.99-.754-.66-1.13-1.594-1.13-2.805 0-1.57.605-2.707 1.816-3.41.664-.383 1.64-.657 2.93-.82l1.136-.142zm2.028 1.56c-.21.132-.424.24-.64.32-.214.083-.51.16-.884.23l-.75.14c-.703.125-1.207.278-1.512.457-.515.305-.773.778-.773 1.418 0 .57.158.983.475 1.237.316.254.7.38 1.154.38.72 0 1.38-.21 1.986-.632.606-.422.92-1.192.944-2.31v-1.24zm5.578-3.845v-2.718h10.36v2.777l-6.48 7.254h6.702V1404h-11.028v-2.602l6.55-7.453h-6.104z" fill="#4A4A4A"/><path d="M167.547 37.727h2.11v6.42c.5-.63.948-1.077 1.347-1.334.68-.446 1.527-.668 2.543-.668 1.82 0 3.055.636 3.703 1.91.352.695.527 1.66.527 2.894V55h-2.168v-7.91c0-.922-.118-1.598-.352-2.028-.383-.687-1.102-1.03-2.156-1.03-.875 0-1.668.3-2.38.902-.71.6-1.066 1.738-1.066 3.41V55h-2.11V37.727zm13.77 1.218h2.132v3.504h2.003v1.722h-2.004v8.19c0 .44.148.732.445.88.164.086.437.13.82.13.1 0 .21-.003.328-.007.117-.004.254-.013.41-.03V55c-.242.07-.494.12-.756.152-.26.032-.545.047-.85.047-.984 0-1.652-.253-2.003-.757-.352-.504-.528-1.158-.528-1.963v-8.308h-1.7V42.45h1.7v-3.505zm6.667 0h2.133v3.504h2.004v1.722h-2.003v8.19c0 .44.15.732.446.88.164.086.437.13.82.13.1 0 .21-.003.328-.007.118-.004.255-.013.41-.03V55c-.24.07-.493.12-.755.152-.26.032-.545.047-.85.047-.984 0-1.652-.253-2.003-.757-.352-.504-.528-1.158-.528-1.963v-8.308h-1.7V42.45h1.7v-3.505zm6.082 3.563h2.05v1.664c.423-.57.884-1.012 1.384-1.324.71-.47 1.547-.703 2.508-.703 1.422 0 2.63.544 3.62 1.634.993 1.09 1.49 2.646 1.49 4.67 0 2.734-.716 4.687-2.145 5.86-.907.74-1.96 1.112-3.164 1.112-.947 0-1.74-.207-2.38-.62-.375-.236-.793-.638-1.254-1.208v6.41h-2.11V42.508zm7.916 9.838c.653-.825.98-2.057.98-3.698 0-1-.146-1.86-.435-2.578-.547-1.383-1.547-2.074-3-2.074-1.46 0-2.46.73-3 2.19-.29.783-.433 1.775-.433 2.978 0 .97.144 1.793.433 2.473.547 1.297 1.547 1.945 3 1.945.985 0 1.803-.412 2.455-1.236zm6.71-9.733h2.45v2.555h-2.45v-2.555zm0 9.832h2.45V55h-2.45v-2.555zm9.468-14.66h1.78L214.48 55h-1.78l5.46-17.215zm6.668 0h1.78L221.15 55h-1.78l5.46-17.215zm10.57 5.01c.836.418 1.473.96 1.91 1.623.422.633.704 1.37.844 2.215.125.578.188 1.5.188 2.765h-9.2c.04 1.274.34 2.295.903 3.065.562.77 1.434 1.154 2.613 1.154 1.102 0 1.98-.363 2.637-1.09.375-.422.64-.91.797-1.465h2.074c-.055.46-.236.975-.545 1.542-.31.566-.655 1.03-1.038 1.388-.64.625-1.434 1.047-2.38 1.266-.507.125-1.08.187-1.722.187-1.562 0-2.886-.568-3.972-1.705-1.086-1.136-1.63-2.728-1.63-4.775 0-2.016.548-3.652 1.642-4.91 1.093-1.258 2.523-1.887 4.29-1.887.89 0 1.752.21 2.588.627zm.774 4.928c-.086-.914-.285-1.645-.598-2.192-.578-1.014-1.543-1.522-2.894-1.522-.97 0-1.782.35-2.438 1.05-.656.698-1.004 1.587-1.043 2.665h6.972zm3.562-5.274h2.73l2.884 4.417 2.918-4.418 2.566.058-4.23 6.058L251.02 55h-2.696l-3.117-4.71-3.023 4.71h-2.672l4.418-6.434-4.196-6.117zm19.922 4.945c.485-.063.81-.266.973-.61.093-.187.14-.457.14-.808 0-.72-.256-1.24-.768-1.565-.512-.324-1.244-.486-2.197-.486-1.102 0-1.883.297-2.344.89-.257.33-.425.817-.503 1.465h-1.97c.04-1.546.542-2.622 1.507-3.227.965-.606 2.084-.908 3.358-.908 1.476 0 2.675.28 3.597.843.913.563 1.37 1.438 1.37 2.625v7.23c0 .22.045.395.135.528.09.134.28.2.568.2.094 0 .2-.006.317-.017.117-.012.242-.03.375-.053v1.56c-.328.092-.578.15-.75.174-.172.024-.406.036-.703.036-.727 0-1.254-.258-1.582-.774-.172-.273-.293-.66-.364-1.16-.43.562-1.046 1.05-1.85 1.465-.806.415-1.693.622-2.66.622-1.165 0-2.117-.354-2.855-1.06-.737-.708-1.106-1.592-1.106-2.655 0-1.164.363-2.066 1.09-2.707.726-.64 1.68-1.035 2.86-1.184l3.362-.42zm-4.44 5.707c.444.35.97.527 1.58.527.743 0 1.462-.173 2.157-.517 1.172-.57 1.758-1.504 1.758-2.8v-1.7c-.257.164-.59.3-.995.41-.406.11-.805.188-1.195.235l-1.278.164c-.765.1-1.34.262-1.722.48-.65.368-.973.953-.973 1.758 0 .61.223 1.09.668 1.442zm11.06-10.653h2.087v1.78c.5-.617.953-1.066 1.36-1.347.695-.477 1.484-.715 2.367-.715 1 0 1.805.246 2.414.738.344.282.656.696.937 1.242.47-.67 1.02-1.17 1.654-1.494.633-.324 1.343-.486 2.133-.486 1.687 0 2.835.61 3.445 1.828.328.656.492 1.54.492 2.65V55h-2.19v-8.72c0-.835-.21-1.41-.628-1.72-.418-.314-.928-.47-1.53-.47-.828 0-1.54.277-2.138.832-.598.555-.897 1.48-.897 2.777V55h-2.143v-8.19c0-.853-.102-1.474-.305-1.865-.32-.586-.918-.88-1.793-.88-.798 0-1.522.31-2.175.927-.652.617-.978 1.735-.978 3.352V55h-2.11V42.45zm19.83.058h2.05v1.664c.422-.57.883-1.012 1.383-1.324.71-.47 1.546-.703 2.507-.703 1.422 0 2.63.544 3.62 1.634.993 1.09 1.49 2.646 1.49 4.67 0 2.734-.716 4.687-2.145 5.86-.907.74-1.96 1.112-3.164 1.112-.946 0-1.74-.207-2.38-.62-.374-.236-.792-.638-1.253-1.208v6.41h-2.11V42.508zm7.915 9.838c.654-.825.98-2.057.98-3.698 0-1-.145-1.86-.434-2.578-.546-1.383-1.546-2.074-3-2.074-1.46 0-2.46.73-3 2.19-.29.783-.433 1.775-.433 2.978 0 .97.144 1.793.433 2.473.547 1.297 1.547 1.945 3 1.945.985 0 1.803-.412 2.455-1.236zm5.656-14.56h2.11V55h-2.11V37.785zm13.09 5.01c.836.417 1.472.958 1.91 1.622.422.633.703 1.37.844 2.215.125.578.187 1.5.187 2.765h-9.2c.04 1.274.34 2.295.903 3.065s1.434 1.154 2.613 1.154c1.102 0 1.98-.363 2.637-1.09.375-.422.64-.91.797-1.465h2.074c-.053.46-.235.975-.544 1.542-.308.566-.654 1.03-1.037 1.388-.64.625-1.434 1.047-2.38 1.266-.508.125-1.082.187-1.722.187-1.563 0-2.887-.568-3.973-1.705-1.086-1.136-1.63-2.728-1.63-4.775 0-2.016.548-3.652 1.642-4.91 1.093-1.258 2.523-1.887 4.29-1.887.89 0 1.753.21 2.59.627zm.773 4.927c-.087-.914-.286-1.645-.6-2.192-.577-1.014-1.542-1.522-2.893-1.522-.97 0-1.78.35-2.438 1.05-.657.698-1.005 1.587-1.044 2.665h6.973zm5.26 4.722h2.45V55h-2.45v-2.555zm14.456-9.328c.887.688 1.42 1.87 1.6 3.55h-2.05c-.126-.772-.41-1.415-.857-1.927-.446-.51-1.16-.767-2.145-.767-1.344 0-2.305.656-2.883 1.968-.375.853-.563 1.904-.563 3.154 0 1.258.265 2.316.796 3.176.532.86 1.367 1.29 2.508 1.29.875 0 1.568-.27 2.08-.804.512-.535.865-1.268 1.06-2.197h2.05c-.233 1.663-.82 2.88-1.756 3.65-.938.77-2.137 1.153-3.598 1.153-1.64 0-2.95-.6-3.926-1.8-.976-1.198-1.465-2.696-1.465-4.493 0-2.203.535-3.918 1.605-5.144 1.07-1.227 2.433-1.84 4.09-1.84 1.414 0 2.564.344 3.45 1.03zm12.873.586c1.116 1.078 1.675 2.664 1.675 4.758 0 2.024-.492 3.696-1.477 5.017-.984 1.32-2.512 1.98-4.582 1.98-1.726 0-3.098-.584-4.113-1.752-1.016-1.168-1.524-2.736-1.524-4.705 0-2.11.535-3.79 1.605-5.04 1.07-1.25 2.508-1.874 4.312-1.874 1.618 0 2.985.54 4.102 1.617zm-1.308 8.35c.52-1.06.78-2.237.78-3.533 0-1.172-.188-2.125-.563-2.86-.595-1.156-1.618-1.734-3.07-1.734-1.29 0-2.228.492-2.814 1.476-.586.985-.88 2.172-.88 3.563 0 1.336.294 2.45.88 3.34.586.89 1.516 1.336 2.79 1.336 1.398 0 2.357-.53 2.876-1.587zm5.49-9.604h2.086v1.78c.5-.617.954-1.066 1.36-1.347.695-.477 1.484-.715 2.367-.715 1 0 1.805.246 2.414.738.343.282.655.696.937 1.242.468-.67 1.02-1.17 1.652-1.494.632-.324 1.343-.486 2.132-.486 1.687 0 2.836.61 3.445 1.828.328.656.492 1.54.492 2.65V55h-2.192v-8.72c0-.835-.21-1.41-.627-1.72-.417-.314-.927-.47-1.528-.47-.83 0-1.54.277-2.14.832-.597.555-.896 1.48-.896 2.777V55h-2.144v-8.19c0-.853-.102-1.474-.305-1.865-.32-.586-.918-.88-1.793-.88-.797 0-1.52.31-2.174.927-.652.617-.978 1.735-.978 3.352V55h-2.11V42.45z" fill="#7F8C8D"/><path d="M828.994 1525c-2.758 0-4.994 2.238-4.994 4.993v128.014c0 2.758 2.246 4.993 4.994 4.993h655.012c2.758 0 4.994-2.238 4.994-4.993v-128.014c0-2.758-2.246-4.993-4.994-4.993H828.994zM824 1566v56.292l-21-28.146L824 1566zm4.994-557c-2.758 0-4.994 2.238-4.994 4.993v128.014c0 2.758 2.246 4.993 4.994 4.993h655.012c2.758 0 4.994-2.238 4.994-4.993v-128.014c0-2.758-2.246-4.993-4.994-4.993H828.994zM824 1050v56.292l-21-28.146L824 1050zm4.994-537c-2.758 0-4.994 2.24-4.994 4.998v154.004c0 2.76 2.246 4.998 4.994 4.998h655.012c2.758 0 4.994-2.24 4.994-4.998V517.998c0-2.76-2.246-4.998-4.994-4.998H828.994zM824 567v56.292l-21-28.146L824 567zm4.994-452c-2.758 0-4.994 2.23-4.994 4.993v90.014c0 2.757 2.246 4.993 4.994 4.993h655.012c2.758 0 4.994-2.23 4.994-4.993v-90.014c0-2.757-2.246-4.993-4.994-4.993H828.994zM824 137v56.292l-21-28.146L824 137z" fill-opacity=".05" fill="#000"/><path d="M828.994 105c-2.758 0-4.994 2.23-4.994 4.993v90.014c0 2.757 2.246 4.993 4.994 4.993h655.012c2.758 0 4.994-2.23 4.994-4.993v-90.014c0-2.757-2.246-4.993-4.994-4.993H828.994zM824 127v56.292l-21-28.146L824 127zM828.994 503c-2.758 0-4.994 2.24-4.994 4.998v154.004c0 2.76 2.246 4.998 4.994 4.998h655.012c2.758 0 4.994-2.24 4.994-4.998V507.998c0-2.76-2.246-4.998-4.994-4.998H828.994zM824 557v56.292l-21-28.146L824 557zM828.994 999c-2.758 0-4.994 2.238-4.994 4.993v128.014c0 2.758 2.246 4.993 4.994 4.993h655.012c2.758 0 4.994-2.238 4.994-4.993v-128.014c0-2.758-2.246-4.993-4.994-4.993H828.994zM824 1040v56.292l-21-28.146L824 1040zM828.994 1515c-2.758 0-4.994 2.238-4.994 4.993v128.014c0 2.758 2.246 4.993 4.994 4.993h655.012c2.758 0 4.994-2.238 4.994-4.993v-128.014c0-2.758-2.246-4.993-4.994-4.993H828.994zM824 1556v56.292l-21-28.146L824 1556z" fill="#C3ECFF"/><text fill="#34495E" font-family="Helvetica" font-size="32"><tspan x="869" y="167">Clicking on a link changes the URL.</tspan></text><text fill="#34495E" font-family="Helvetica" font-size="32"><tspan x="869" y="559">Controller manager receives the new</tspan> <tspan x="869" y="597">route data. Based on the route, it will </tspan> <tspan x="869" y="635">start or stop the controllers.</tspan></text><text fill="#34495E" font-family="Helvetica" font-size="32"><tspan x="869" y="1061">When started, controllers can fetch the </tspan> <tspan x="869" y="1099">data and update the application state.</tspan></text><text fill="#34495E" font-family="Helvetica" font-size="32"><tspan x="869" y="1577">Application state changes are </tspan> <tspan x="869" y="1615">propagated to the DOM.</tspan></text></g></svg>